<svg width="597" height="45" viewBox="0 0 597 45" fill="none" xmlns="http://www.w3.org/2000/svg">
<g filter="url(#filter0_d_4611_21765)">
<g clip-path="url(#clip0_4611_21765)">
<path d="M587.485 3.27344H9.5154C7.17748 3.27344 5.28223 5.10977 5.28223 7.375V33.625C5.28223 35.8902 7.17748 37.7266 9.5154 37.7266H587.485C589.823 37.7266 591.718 35.8902 591.718 33.625V7.375C591.718 5.10977 589.823 3.27344 587.485 3.27344Z" fill="#F7FEF3"/>
<path d="M587.485 3.27344H9.5154C7.17748 3.27344 5.28223 5.10977 5.28223 7.375V33.625C5.28223 35.8902 7.17748 37.7266 9.5154 37.7266H587.485C589.823 37.7266 591.718 35.8902 591.718 33.625V7.375C591.718 5.10977 589.823 3.27344 587.485 3.27344Z" stroke="#EAE5E2"/>
<mask id="mask0_4611_21765" style="mask-type:luminance" maskUnits="userSpaceOnUse" x="16" y="9" width="23" height="23">
<path d="M38.8655 20.5C38.8655 14.4594 33.8115 9.5625 27.577 9.5625C21.3426 9.5625 16.2886 14.4594 16.2886 20.5C16.2886 26.5406 21.3426 31.4375 27.577 31.4375C33.8115 31.4375 38.8655 26.5406 38.8655 20.5Z" fill="white"/>
</mask>
<g mask="url(#mask0_4611_21765)">
<path d="M38.8655 20.5C38.8655 14.4594 33.8115 9.5625 27.577 9.5625C21.3426 9.5625 16.2886 14.4594 16.2886 20.5C16.2886 26.5406 21.3426 31.4375 27.577 31.4375C33.8115 31.4375 38.8655 26.5406 38.8655 20.5Z" fill="#F9F7F6"/>
<path d="M27.577 22.0625C29.8036 22.0625 31.6086 20.3136 31.6086 18.1563C31.6086 15.9989 29.8036 14.25 27.577 14.25C25.3504 14.25 23.5454 15.9989 23.5454 18.1563C23.5454 20.3136 25.3504 22.0625 27.577 22.0625Z" fill="#B5BDC3"/>
<path d="M27.5768 36.125C32.03 36.125 35.64 33.3268 35.64 29.875C35.64 26.4232 32.03 23.625 27.5768 23.625C23.1237 23.625 19.5137 26.4232 19.5137 29.875C19.5137 33.3268 23.1237 36.125 27.5768 36.125Z" fill="#B5BDC3"/>
</g>
<path d="M27.5768 9.4834H27.5768C21.2972 9.4834 16.2065 14.4158 16.2065 20.5001V20.5002C16.2065 26.5846 21.2972 31.5169 27.5768 31.5169H27.5768C33.8565 31.5169 38.9471 26.5846 38.9471 20.5002V20.5001C38.9471 14.4158 33.8565 9.4834 27.5768 9.4834Z" stroke="#D2C5B6" stroke-width="0.289855"/>
<path d="M50.1328 24.651H45.564V23.781H50.1328V24.651ZM51.7597 23.781H50.703V16.8212H51.7448V19.4119H51.8143C51.9432 19.1203 52.1384 18.8944 52.3996 18.7342C52.6642 18.574 52.9998 18.4939 53.4066 18.4939C53.7837 18.4939 54.1094 18.5692 54.3839 18.7198C54.6617 18.8672 54.875 19.0883 55.0239 19.3831C55.176 19.6779 55.2521 20.0368 55.2521 20.4598V23.781H54.1954V20.5799C54.1954 20.33 54.1491 20.1153 54.0565 19.9359C53.9639 19.7532 53.8316 19.6154 53.6597 19.5225C53.4877 19.4296 53.2826 19.3831 53.0445 19.3831C52.7931 19.3831 52.5716 19.4344 52.3798 19.5369C52.1913 19.6362 52.0408 19.7852 51.9283 19.9839C51.8159 20.1794 51.7597 20.4133 51.7597 20.6856V23.781ZM56.9881 25.7421C56.7764 25.7421 56.5879 25.7357 56.4226 25.7229V24.8577L56.6111 24.8673C56.6805 24.8737 56.7764 24.8769 56.8988 24.8769C57.0344 24.8769 57.1468 24.8641 57.2361 24.8385C57.3287 24.8128 57.418 24.7487 57.504 24.6462C57.5933 24.5469 57.6743 24.3947 57.7471 24.1896L57.886 23.8579L55.9066 18.5612H57.0476L58.4019 22.6035H58.4614L59.8207 18.5612H60.9616L58.7392 24.4732C58.5772 24.8897 58.354 25.2054 58.0695 25.4201C57.7851 25.6347 57.4246 25.7421 56.9881 25.7421ZM64.8852 24.651H60.3165V23.781H64.8852V24.651ZM67.4945 23.8772C66.9419 23.8772 66.4695 23.7378 66.0756 23.459C65.6821 23.1802 65.3813 22.7733 65.173 22.2381C64.9648 21.703 64.8603 21.0573 64.8603 20.3011C64.8603 19.5513 64.9648 18.9088 65.173 18.3737C65.3813 17.8386 65.6838 17.43 66.0806 17.1481C66.4774 16.8661 66.9487 16.7251 67.4945 16.7251C68.0403 16.7251 68.5116 16.8661 68.9084 17.1481C69.3052 17.43 69.6077 17.8386 69.816 18.3737C70.0243 18.9088 70.1287 19.5513 70.1287 20.3011C70.1287 21.0573 70.0243 21.703 69.816 22.2381C69.6111 22.7733 69.3103 23.1802 68.9135 23.459C68.5195 23.7378 68.0465 23.8772 67.4945 23.8772ZM67.4945 22.9687C67.8151 22.9687 68.0917 22.8662 68.3231 22.6611C68.5579 22.456 68.7362 22.1549 68.8587 21.7575C68.9812 21.357 69.0405 20.8715 69.0371 20.3011C69.0371 19.7308 68.9761 19.2453 68.8536 18.8447C68.7312 18.4442 68.5545 18.1398 68.3231 17.9315C68.0917 17.7233 67.8151 17.6191 67.4945 17.6191C67.1739 17.6191 66.8973 17.7233 66.6659 17.9315C66.4345 18.1398 66.2562 18.4442 66.1303 18.8447C66.0044 19.2453 65.9418 19.7308 65.9418 20.3011C65.9418 20.8715 66.0027 21.357 66.1252 21.7575C66.2477 22.1549 66.4261 22.456 66.6609 22.6611C66.8957 22.8662 67.1739 22.9687 67.4945 22.9687ZM74.5086 17.7777V17.7297H70.8032V16.8212H75.6397V17.7633L72.44 23.781H71.3038L74.5086 17.7777ZM79.4592 23.781H78.358V17.8834H78.3184L76.6071 18.9697V17.9556L78.3879 16.8212H79.4592V23.781ZM83.8741 23.8772C83.3881 23.8708 82.9416 23.7618 82.5347 23.5503C82.1311 23.3388 81.8004 22.9847 81.5424 22.4881C81.2879 21.9914 81.1609 21.3394 81.1609 20.5318C81.1609 19.7339 81.2749 19.0498 81.5029 18.4795C81.731 17.9059 82.0549 17.4701 82.4754 17.1721C82.8954 16.8741 83.3915 16.7251 83.9632 16.7251C84.4001 16.7251 84.7884 16.8068 85.1293 16.9702C85.4731 17.1304 85.7525 17.3547 85.9675 17.6431C86.1859 17.9315 86.3231 18.2615 86.3795 18.6333H85.2981C85.2451 18.4378 85.1593 18.2664 85.0402 18.119C84.9239 17.9684 84.7755 17.853 84.5937 17.7729C84.4114 17.6928 84.2014 17.6527 83.9632 17.6527C83.5964 17.6527 83.282 17.7521 83.0207 17.9508C82.7599 18.1462 82.5595 18.4314 82.4207 18.8063C82.2818 19.1812 82.2107 19.6314 82.2073 20.1569H82.2869C82.419 19.9614 82.5776 19.7932 82.7627 19.6522C82.9512 19.5113 83.1629 19.4039 83.3977 19.3302C83.6325 19.2533 83.8775 19.2149 84.132 19.2149C84.5553 19.2149 84.9442 19.3142 85.2981 19.5128C85.6548 19.7083 85.9348 19.9791 86.1363 20.3252C86.3412 20.6712 86.4439 21.0637 86.4439 21.5028C86.4439 21.9514 86.3361 22.3567 86.1216 22.7188C85.9066 23.0809 85.604 23.3645 85.2134 23.5696C84.8234 23.7746 84.377 23.8772 83.8741 23.8772ZM83.869 22.9928C84.1535 22.9928 84.4097 22.9271 84.6383 22.7957C84.8697 22.6643 85.0515 22.4865 85.1835 22.2622C85.3196 22.0347 85.3873 21.7895 85.3873 21.5268C85.3873 21.2544 85.3229 21.0077 85.1937 20.7866C85.065 20.5655 84.8861 20.3924 84.6581 20.2675C84.43 20.1393 84.1715 20.0752 83.8842 20.0752C83.6031 20.0752 83.3452 20.1425 83.1104 20.2771C82.8756 20.4085 82.6888 20.5863 82.5494 20.8106C82.4139 21.0317 82.3428 21.272 82.3366 21.5316C82.3394 21.7847 82.4077 22.0234 82.5398 22.2478C82.6752 22.472 82.8587 22.6531 83.0901 22.7909C83.3221 22.9255 83.5817 22.9928 83.869 22.9928Z" fill="#2C2C2C"/>
<path d="M121.056 17.9258V19.6678H121.982V17.2977H122.684V23.5408H121.982V20.251H121.056V22.1053H118.371V17.9258H121.056ZM119.065 21.537H120.369V18.4865H119.065V21.537ZM123.387 23.8698V17.1706H124.089V23.8698H123.387ZM130.571 20.1613V20.7445H128.479V22.4492H131.289V23.0324H124.961V22.4492H127.746V20.7445H125.717V17.7239H126.458V20.1613H130.571ZM135.509 17.8509C135.505 19.8248 134.83 21.6006 132.292 22.8006L131.898 22.2473C133.14 21.6641 133.908 20.9426 134.34 20.0903L132.037 20.2959L131.937 19.6753L134.576 19.5108C134.688 19.1706 134.753 18.808 134.78 18.4267H132.284V17.8509H135.509ZM136.79 23.8698V17.1706H137.531V23.8698H136.79ZM141.752 17.5743C143.229 17.5781 144.306 18.2846 144.306 19.3538C144.306 20.3557 143.403 21.0249 142.115 21.1258V22.4417H144.931V23.0324H138.603V22.4417H141.389V21.1258C140.108 21.0249 139.202 20.3557 139.205 19.3538C139.202 18.2846 140.282 17.5781 141.752 17.5743ZM139.915 19.3538C139.915 20.1052 140.687 20.5725 141.752 20.58C142.825 20.5725 143.592 20.1052 143.596 19.3538C143.592 18.6285 142.825 18.15 141.752 18.1575C140.687 18.15 139.915 18.6285 139.915 19.3538ZM147.678 17.6491C148.77 17.6454 149.557 18.2996 149.561 19.2416C149.557 20.1838 148.77 20.838 147.678 20.8417C146.59 20.838 145.791 20.1838 145.795 19.2416C145.791 18.2996 146.59 17.6454 147.678 17.6491ZM145.463 21.8511C146.721 21.8511 148.465 21.8399 149.978 21.6267L150.032 22.1427C148.469 22.4342 146.791 22.4417 145.556 22.4417L145.463 21.8511ZM146.521 19.2416C146.513 19.836 147.007 20.2211 147.678 20.2211C148.349 20.2211 148.843 19.836 148.843 19.2416C148.843 18.6547 148.349 18.2622 147.678 18.2622C147.007 18.2622 146.513 18.6547 146.521 19.2416ZM150.41 23.8848V17.1706H151.143V23.8848H150.41ZM156.567 18.8753C156.559 20.0604 157.273 21.2754 158.304 21.7613L157.849 22.3296C157.096 21.9482 156.513 21.2006 156.208 20.3071C155.9 21.2567 155.294 22.0604 154.507 22.4567L154.052 21.881C155.113 21.3875 155.83 20.1015 155.834 18.8753V17.7313H156.567V18.8753ZM158.821 23.8698V17.1706H159.554V19.8398H160.665V20.4454H159.554V23.8698H158.821ZM163.589 17.8809V20.2809H161.915V21.6903C162.594 21.6828 163.25 21.6454 164.037 21.5146L164.099 22.0978C163.188 22.251 162.467 22.2772 161.653 22.2772H161.205V19.7127H162.887V18.4566H161.197V17.8809H163.589ZM163.96 21.1333V20.5501H164.824V19.466H163.96V18.8902H164.824V17.2977H165.519V23.5259H164.824V21.1333H163.96ZM166.221 23.8698V17.1706H166.923V23.8698H166.221ZM173.76 17.1706V23.8698H173.058V17.1706H173.76ZM167.887 20.0641C167.887 18.6136 168.474 17.7051 169.377 17.7089C170.218 17.7051 170.785 18.479 170.87 19.7351H171.653V17.2977H172.355V23.5408H171.653V20.3108H170.874C170.808 21.6193 170.233 22.4305 169.377 22.4268C168.474 22.4305 167.887 21.5183 167.887 20.0641ZM168.566 20.0641C168.566 21.1296 168.879 21.7576 169.377 21.7539C169.886 21.7576 170.203 21.1296 170.203 20.0641C170.203 18.9949 169.886 18.3706 169.377 18.3744C168.879 18.3706 168.566 18.9949 168.566 20.0641ZM177.124 18.8753C177.124 20.1015 177.834 21.3239 178.891 21.7838L178.444 22.352C177.66 21.9707 177.066 21.2155 176.761 20.2996C176.457 21.2642 175.855 22.0791 175.056 22.4791L174.593 21.9034C175.666 21.4062 176.38 20.1164 176.384 18.8753V17.7313H177.124V18.8753ZM178.127 19.9744V19.3987H179.671V17.1706H180.396V23.8848H179.671V19.9744H178.127ZM184.926 17.2753V17.8584H188.128V17.2753H188.861V19.4959H186.87V20.0791H189.679V20.6473H183.375V20.0791H186.152V19.4959H184.2V17.2753H184.926ZM184.13 21.6641V21.1333H188.884V22.6959H184.856V23.2567H189.077V23.8025H184.138V22.1875H188.159V21.6641H184.13ZM184.926 18.9575H188.128V18.3819H184.926V18.9575ZM195.659 17.7613C195.655 18.651 196.778 19.4847 198.136 19.6603L197.85 20.2435C196.72 20.0679 195.729 19.4996 195.277 18.7108C194.826 19.4996 193.834 20.0679 192.711 20.2435L192.418 19.6603C193.772 19.4847 194.891 18.6622 194.895 17.7613V17.3949H195.659V17.7613ZM192.117 21.4847V20.9015H198.422V21.4847H195.613V23.8698H194.895V21.4847H192.117ZM203.26 21.5969C203.26 22.1726 203.553 22.782 204.182 23.1445C204.815 22.752 205.127 22.1127 205.127 21.5969V21.2754H205.845V21.5969C205.841 22.2922 206.316 22.9651 207.218 23.2492L206.856 23.7726C206.173 23.5446 205.706 23.096 205.467 22.5501C205.247 23.0885 204.834 23.5782 204.201 23.8324C203.538 23.5894 203.117 23.1146 202.905 22.5688C202.654 23.096 202.199 23.5408 201.547 23.7726L201.176 23.2492C202.064 22.9427 202.546 22.2436 202.55 21.5969V21.2754H203.26V21.5969ZM200.999 19.1295C201.003 18.1912 201.782 17.5481 202.843 17.5444C203.9 17.5481 204.679 18.1912 204.679 19.1295C204.679 20.0567 203.9 20.6996 202.843 20.6996C201.782 20.6996 201.003 20.0567 200.999 19.1295ZM201.716 19.1295C201.712 19.7127 202.187 20.109 202.843 20.109C203.491 20.109 203.962 19.7127 203.962 19.1295C203.962 18.5426 203.491 18.1463 202.843 18.15C202.187 18.1463 201.712 18.5426 201.716 19.1295ZM205.86 20.9912V17.1781H206.593V20.9912H205.86ZM213.993 20.3707V20.9464H207.681V20.3707H213.993ZM208.16 23.2791C209.502 23.0997 210.467 22.4305 210.467 21.6043V21.4174H211.207V21.6043C211.211 22.4305 212.176 23.0997 213.531 23.2791L213.252 23.8324C212.165 23.6679 211.262 23.2081 210.841 22.524C210.417 23.2081 209.518 23.6679 208.43 23.8324L208.16 23.2791ZM208.468 19.7351V17.4023H213.222V17.9855H209.202V19.1594H213.291V19.7351H208.468ZM220.228 17.1706V23.8848H219.495V17.1706H220.228ZM214.742 20.0193C214.742 18.5874 215.486 17.6753 216.532 17.6715C217.558 17.6753 218.315 18.5874 218.315 20.0193C218.315 21.466 217.558 22.3782 216.532 22.3744C215.486 22.3782 214.742 21.466 214.742 20.0193ZM215.452 20.0193C215.448 21.0847 215.888 21.7389 216.532 21.7389C217.165 21.7389 217.605 21.0847 217.605 20.0193C217.605 18.9688 217.165 18.3108 216.532 18.307C215.888 18.3108 215.448 18.9688 215.452 20.0193ZM225.784 18.8753C225.776 20.0977 226.54 21.3314 227.613 21.7912L227.173 22.352C226.378 21.9856 225.749 21.2342 225.425 20.3183C225.105 21.3015 224.469 22.109 223.639 22.5016L223.191 21.9034C224.28 21.4361 225.043 20.1538 225.043 18.8753V17.7313H225.784V18.8753ZM228.238 23.8848V17.1706H228.971V23.8848H228.238ZM236.001 17.1706V23.8698H235.299V20.408H234.404V23.5259H233.732V17.3052H234.404V19.8248H235.299V17.1706H236.001ZM230.298 22.2623V17.9781H232.891V18.5538H231.031V21.6566C231.88 21.6529 232.521 21.6155 233.261 21.4772L233.315 22.0604C232.486 22.2286 231.768 22.2548 230.761 22.2623H230.298ZM240.384 17.836V22.1875H237.151V17.836H240.384ZM237.868 21.6118H239.658V18.3968H237.868V21.6118ZM241.541 23.8698V17.1706H242.274V19.7949H243.385V20.3931H242.274V23.8698H241.541ZM249.096 17.1706V19.765H250.207V20.3483H249.096V23.8848H248.363V17.1706H249.096ZM244.003 22.2174V17.8136H247.236V18.3893H244.736V21.6267C245.897 21.623 246.765 21.5744 247.753 21.4025L247.846 22.0006C246.762 22.1875 245.843 22.2212 244.558 22.2174H244.003ZM252.491 19.8847L253.108 17.8211H253.764L253.355 19.8847H252.491ZM258.409 18.2174V18.8005H254.312V18.2174H255.986V17.2603H256.719V18.2174H258.409ZM254.713 20.8492C254.713 19.9445 255.411 19.294 256.364 19.294C257.302 19.294 257.993 19.9445 257.993 20.8492C257.993 21.7501 257.302 22.4081 256.364 22.4118C255.411 22.4081 254.713 21.7501 254.713 20.8492ZM255.4 20.8492C255.396 21.4212 255.809 21.8062 256.364 21.7987C256.908 21.8062 257.325 21.4212 257.321 20.8492C257.325 20.2884 256.908 19.8996 256.364 19.8922C255.809 19.8996 255.396 20.2884 255.4 20.8492ZM258.263 20.5127V19.9295H259.343V17.1706H260.068V23.8698H259.343V20.5127H258.263ZM267.43 20.4379V21.0137H261.125V20.4379H262.638V19.537C262.102 19.3276 261.801 18.9912 261.805 18.5463C261.801 17.75 262.753 17.2865 264.274 17.2902C265.79 17.2865 266.739 17.75 266.743 18.5463C266.739 18.9912 266.439 19.3276 265.902 19.5407V20.4379H267.43ZM261.874 22.6586C261.874 21.8922 262.769 21.4697 264.274 21.4697C265.759 21.4697 266.654 21.8922 266.658 22.6586C266.654 23.4324 265.759 23.8549 264.274 23.8549C262.769 23.8549 261.874 23.4324 261.874 22.6586ZM262.56 18.5463C262.557 18.9949 263.197 19.2454 264.274 19.2491C265.342 19.2454 265.991 18.9949 265.987 18.5463C265.991 18.0977 265.342 17.8397 264.274 17.836C263.197 17.8397 262.557 18.0977 262.56 18.5463ZM262.615 22.6586C262.611 23.0773 263.217 23.3165 264.274 23.309C265.315 23.3165 265.925 23.0773 265.925 22.6586C265.925 22.2473 265.315 22.0156 264.274 22.0156C263.217 22.0156 262.611 22.2473 262.615 22.6586ZM263.379 20.4379H265.176V19.7239C264.907 19.765 264.602 19.7875 264.274 19.7875C263.949 19.7875 263.649 19.765 263.379 19.7277V20.4379ZM272.068 20.0043V20.5875H270.609V21.8286C271.25 21.8024 271.894 21.7613 272.5 21.6941L272.553 22.2174C271.03 22.438 269.394 22.4604 268.078 22.4642L267.985 21.8735C268.568 21.8735 269.212 21.8698 269.876 21.8548V20.5875H268.487V17.7912H272.036V18.3669H269.212V20.0043H272.068ZM272.932 23.8848V17.1706H273.665V23.8848H272.932ZM280.363 19.1295V19.6977H275.601V17.4098H276.327V19.1295H280.363ZM274.76 21.1109V20.5426H281.088V21.1109H274.76ZM275.548 23.7128V21.7464H276.28V23.1296H280.409V23.7128H275.548ZM285.911 18.8753C285.903 20.0604 286.617 21.2754 287.647 21.7613L287.192 22.3296C286.439 21.9482 285.857 21.2006 285.552 20.3071C285.243 21.2567 284.637 22.0604 283.85 22.4567L283.395 21.881C284.456 21.3875 285.174 20.1015 285.177 18.8753V17.7313H285.911V18.8753ZM288.164 23.8698V17.1706H288.897V19.8398H290.008V20.4454H288.897V23.8698H288.164ZM292.717 18.2398C292.713 19.1183 293.353 19.937 294.384 20.266L293.99 20.8268C293.234 20.5688 292.667 20.0454 292.365 19.3837C292.064 20.1351 291.478 20.7258 290.671 21.0137L290.278 20.4454C291.358 20.0753 291.984 19.1818 291.991 18.1799V17.522H292.717V18.2398ZM291.212 22.6137C291.212 21.8286 292.096 21.3688 293.535 21.3725C294.954 21.3688 295.826 21.8286 295.826 22.6137C295.826 23.4063 294.954 23.8586 293.535 23.8549C292.096 23.8586 291.212 23.4063 291.212 22.6137ZM291.945 22.6137C291.941 23.0548 292.535 23.2941 293.535 23.3015C294.526 23.2941 295.113 23.0548 295.109 22.6137C295.113 22.1875 294.526 21.9333 293.535 21.9333C292.535 21.9333 291.941 22.1875 291.945 22.6137ZM295.032 21.2155V17.1706H295.765V18.8529H296.768V19.451H295.765V21.2155H295.032ZM298.466 17.8285L297.848 19.8922H297.192L297.601 17.8285H298.466ZM302.856 17.8884V18.2996C302.852 18.8641 302.852 19.7277 302.655 20.9239L301.93 20.8716C302.108 19.8024 302.127 19.0211 302.131 18.464H299.322V17.8884H302.856ZM298.936 21.8511C299.368 21.8473 299.85 21.8436 300.356 21.8324V19.8024H301.081V21.8099C301.814 21.78 302.567 21.7352 303.258 21.6492L303.296 22.1801C301.857 22.4043 300.248 22.4342 299.021 22.4268L298.936 21.8511ZM303.651 23.8698V17.1706H304.391V19.937H305.449V20.5426H304.391V23.8698H303.651ZM309.06 17.8285L308.442 19.8922H307.786L308.196 17.8285H309.06ZM313.111 17.7014V18.2697H310.634V19.1146H312.98V19.6828H310.634V20.58C311.919 20.5688 312.66 20.5389 313.543 20.3931L313.62 20.9464C312.675 21.1221 311.861 21.152 310.441 21.1557H309.901V17.7014H313.111ZM310.649 23.7277V21.6791H311.382V23.152H315.325V23.7277H310.649ZM314.299 22.1277V17.1631H315.033V19.2192H316.036V19.8099H315.033V22.1277H314.299ZM318.366 17.4996C319.427 17.4996 320.191 18.1388 320.195 19.0547C320.191 19.9893 319.427 20.6249 318.366 20.6174C317.309 20.6249 316.533 19.9893 316.537 19.0547C316.533 18.1388 317.309 17.4996 318.366 17.4996ZM317.255 19.0547C317.247 19.6379 317.718 20.023 318.366 20.0267C319.014 20.023 319.481 19.6379 319.485 19.0547C319.481 18.479 319.014 18.0903 318.366 18.0903C317.718 18.0903 317.247 18.479 317.255 19.0547ZM317.425 23.7875V21.1109H318.15V21.881H321.121V21.1109H321.854V23.7875H317.425ZM318.15 23.2119H321.121V22.4343H318.15V23.2119ZM321.121 20.7969V17.1706H321.854V18.666H322.857V19.2491H321.854V20.7969H321.121ZM328.675 17.1706V18.7556H329.678V19.3463H328.675V21.081H327.942V17.1706H328.675ZM323.513 20.6922V17.5519H324.23V18.5239H326.044V17.5519H326.769V20.6922H323.513ZM324.23 20.1314H326.044V19.0846H324.23V20.1314ZM324.269 23.7726V21.4324H328.729V22.0006H325.002V23.2119H328.853V23.7726H324.269ZM335.659 19.1295V19.6977H330.897V17.4098H331.623V19.1295H335.659ZM330.056 21.1109V20.5426H336.384V21.1109H330.056ZM330.844 23.7128V21.7464H331.576V23.1296H335.705V23.7128H330.844ZM341.207 18.8753C341.199 20.0604 341.913 21.2754 342.943 21.7613L342.488 22.3296C341.735 21.9482 341.153 21.2006 340.848 20.3071C340.539 21.2567 339.933 22.0604 339.146 22.4567L338.691 21.881C339.752 21.3875 340.47 20.1015 340.473 18.8753V17.7313H341.207V18.8753ZM343.46 23.8698V17.1706H344.193V19.8398H345.304V20.4454H344.193V23.8698H343.46ZM348.013 18.2398C348.009 19.1183 348.649 19.937 349.68 20.266L349.286 20.8268C348.53 20.5688 347.963 20.0454 347.661 19.3837C347.36 20.1351 346.774 20.7258 345.967 21.0137L345.574 20.4454C346.654 20.0753 347.28 19.1818 347.287 18.1799V17.522H348.013V18.2398ZM346.508 22.6137C346.508 21.8286 347.391 21.3688 348.831 21.3725C350.25 21.3688 351.122 21.8286 351.122 22.6137C351.122 23.4063 350.25 23.8586 348.831 23.8549C347.391 23.8586 346.508 23.4063 346.508 22.6137ZM347.241 22.6137C347.237 23.0548 347.831 23.2941 348.831 23.3015C349.822 23.2941 350.409 23.0548 350.405 22.6137C350.409 22.1875 349.822 21.9333 348.831 21.9333C347.831 21.9333 347.237 22.1875 347.241 22.6137ZM350.328 21.2155V17.1706H351.061V18.8529H352.064V19.451H351.061V21.2155H350.328ZM352.488 19.8847L353.106 17.8211H353.762L353.352 19.8847H352.488ZM360.027 17.1706V23.8848H359.294V17.1706H360.027ZM354.54 20.0193C354.54 18.5874 355.286 17.6753 356.331 17.6715C357.358 17.6753 358.113 18.5874 358.113 20.0193C358.113 21.466 357.358 22.3782 356.331 22.3744C355.286 22.3782 354.54 21.466 354.54 20.0193ZM355.251 20.0193C355.247 21.0847 355.687 21.7389 356.331 21.7389C356.964 21.7389 357.404 21.0847 357.404 20.0193C357.404 18.9688 356.964 18.3108 356.331 18.307C355.687 18.3108 355.247 18.9688 355.251 20.0193ZM368.785 17.4846V18.0603H366.678C366.717 18.7968 367.716 19.4473 369.002 19.5931L368.724 20.1688C367.539 20.008 366.567 19.4697 366.196 18.7146C365.818 19.4697 364.85 20.008 363.669 20.1688L363.391 19.5931C364.684 19.4473 365.671 18.7968 365.706 18.0603H363.623V17.4846H368.785ZM363.044 21.3202V20.7445H365.83V19.6828H366.555V20.7445H369.364V21.3202H363.044ZM363.839 23.7277V21.8211H364.58V23.152H368.639V23.7277H363.839ZM375.838 17.1706V23.8698H375.136V20.4304H374.311V23.5408H373.616V17.2977H374.311V19.8323H375.136V17.1706H375.838ZM369.773 21.9782C370.784 21.4286 371.255 20.2734 371.255 18.9426V18.5089H369.958V17.9332H373.168V18.5089H371.964V18.9426C371.964 20.1463 372.432 21.238 373.438 21.7389L373.006 22.2847C372.327 21.9258 371.872 21.3015 371.625 20.5314C371.39 21.41 370.934 22.1127 370.228 22.5165L369.773 21.9782ZM382.119 17.1781V19.3314H383.123V19.9221H382.119V22.1875H381.386V17.1781H382.119ZM376.695 18.5314V17.9557H378.392V17.1706H379.126V17.9557H380.816V18.5314H376.695ZM377.073 20.1164C377.069 19.3501 377.752 18.8491 378.755 18.8529C379.746 18.8491 380.429 19.3501 380.429 20.1164C380.429 20.8753 379.746 21.3688 378.755 21.3725C377.752 21.3688 377.069 20.8753 377.073 20.1164ZM377.737 23.7277V21.7912H378.469V23.152H382.413V23.7277H377.737ZM377.783 20.1164C377.775 20.5538 378.168 20.823 378.755 20.8193C379.341 20.823 379.735 20.5538 379.743 20.1164C379.735 19.6753 379.341 19.4024 378.755 19.3987C378.168 19.4024 377.775 19.6753 377.783 20.1164ZM388.895 17.1706V19.765H390.006V20.3483H388.895V23.8848H388.161V17.1706H388.895ZM383.801 22.2174V17.8136H387.035V18.3893H384.534V21.6267C385.696 21.623 386.564 21.5744 387.552 21.4025L387.644 22.0006C386.56 22.1875 385.642 22.2212 384.357 22.2174H383.801ZM391.117 23.2866C390.816 23.2829 390.565 23.0474 390.569 22.7558C390.565 22.4642 390.816 22.2249 391.117 22.2249C391.414 22.2249 391.661 22.4642 391.665 22.7558C391.661 23.0474 391.414 23.2829 391.117 23.2866ZM400.006 17.1781V22.2847H399.273V20.9015H398.162V20.3333H399.273V19.5033H398.162V18.9201H399.273V17.1781H400.006ZM394.249 18.5314V17.9557H395.87V17.1706H396.595V17.9557H398.139V18.5314H394.249ZM394.635 20.1389C394.635 19.3725 395.291 18.8491 396.225 18.8529C397.155 18.8491 397.818 19.3725 397.822 20.1389C397.818 20.909 397.155 21.4324 396.225 21.4324C395.291 21.4324 394.635 20.909 394.635 20.1389ZM395.322 20.1389C395.318 20.5949 395.689 20.8791 396.225 20.8791C396.754 20.8791 397.128 20.5949 397.135 20.1389C397.128 19.6977 396.754 19.4136 396.225 19.4061C395.689 19.4136 395.318 19.6977 395.322 20.1389ZM395.492 23.7277V21.8361H396.233V23.152H400.161V23.7277H395.492ZM406.997 17.1706V23.8698H406.295V20.408H405.4V23.5259H404.728V17.3052H405.4V19.8248H406.295V17.1706H406.997ZM401.294 22.2623V17.9781H403.887V18.5538H402.028V21.6566C402.877 21.6529 403.517 21.6155 404.258 21.4772L404.312 22.0604C403.482 22.2286 402.765 22.2548 401.758 22.2623H401.294ZM410.285 18.8753C410.277 20.0604 410.991 21.2754 412.021 21.7613L411.565 22.3296C410.813 21.9482 410.23 21.2006 409.926 20.3071C409.617 21.2567 409.011 22.0604 408.224 22.4567L407.769 21.881C408.83 21.3875 409.547 20.1015 409.551 18.8753V17.7313H410.285V18.8753ZM412.538 23.8698V17.1706H413.271V19.8398H414.382V20.4454H413.271V23.8698H412.538ZM420.424 17.1706V23.8698H419.691V17.1706H420.424ZM414.745 22.0455C415.315 22.0417 415.964 22.038 416.643 22.0231V21.3501C415.836 21.2455 415.312 20.7856 415.315 20.1314C415.312 19.3762 415.991 18.879 416.99 18.8753C418.001 18.879 418.692 19.3762 418.696 20.1314C418.692 20.7781 418.171 21.2342 417.368 21.3464V21.9969C418.009 21.9669 418.657 21.9221 419.266 21.8436L419.32 22.3744C417.785 22.6212 416.111 22.6399 414.845 22.6361L414.745 22.0455ZM414.891 18.5389V17.9706H416.643V17.1856H417.376V17.9706H419.112V18.5389H414.891ZM416.01 20.1314C416.002 20.5576 416.411 20.823 416.99 20.8193C417.588 20.823 417.993 20.5576 417.993 20.1314C417.993 19.7015 417.588 19.4286 416.99 19.4286C416.411 19.4286 416.002 19.7015 416.01 20.1314ZM427.477 17.1706V23.8698H426.775V17.1706H427.477ZM421.605 20.0641C421.605 18.6136 422.191 17.7051 423.094 17.7089C423.935 17.7051 424.502 18.479 424.587 19.7351H425.37V17.2977H426.073V23.5408H425.37V20.3108H424.591C424.525 21.6193 423.95 22.4305 423.094 22.4268C422.191 22.4305 421.605 21.5183 421.605 20.0641ZM422.284 20.0641C422.284 21.1296 422.596 21.7576 423.094 21.7539C423.603 21.7576 423.919 21.1296 423.919 20.0641C423.919 18.9949 423.603 18.3706 423.094 18.3744C422.596 18.3706 422.284 18.9949 422.284 20.0641ZM430.841 18.8753C430.841 20.1015 431.551 21.3239 432.608 21.7838L432.16 22.352C431.378 21.9707 430.783 21.2155 430.479 20.2996C430.174 21.2642 429.572 22.0791 428.773 22.4791L428.31 21.9034C429.383 21.4062 430.096 20.1164 430.1 18.8753V17.7313H430.841V18.8753ZM431.844 19.9744V19.3987H433.388V17.1706H434.113V23.8848H433.388V19.9744H431.844ZM442.817 17.1706V23.8848H442.084V17.1706H442.817ZM437.477 22.2772V17.7313H438.211V19.451H440.07V17.7313H440.796V22.2772H437.477ZM438.211 21.6941H440.07V20.0118H438.211V21.6941ZM450.218 20.3781V20.9614H443.913V20.3781H450.218ZM444.268 19.3239C445.587 19.1557 446.687 18.3931 446.691 17.5594V17.2753H447.439V17.5594C447.443 18.3744 448.539 19.1557 449.863 19.3239L449.577 19.8922C448.477 19.7202 447.513 19.1818 447.069 18.4491C446.625 19.1893 445.653 19.7202 444.546 19.8922L444.268 19.3239ZM444.384 23.2866C445.715 23.1109 446.687 22.438 446.691 21.6043V21.41H447.432V21.6043C447.428 22.438 448.4 23.1109 449.747 23.2866L449.469 23.8399C448.385 23.6754 447.482 23.2156 447.061 22.524C446.637 23.2156 445.738 23.6754 444.653 23.8399L444.384 23.2866ZM456.167 17.1781V19.3314H457.17V19.9221H456.167V22.1875H455.433V17.1781H456.167ZM450.742 18.5314V17.9557H452.44V17.1706H453.173V17.9557H454.863V18.5314H450.742ZM451.12 20.1164C451.116 19.3501 451.799 18.8491 452.802 18.8529C453.794 18.8491 454.477 19.3501 454.477 20.1164C454.477 20.8753 453.794 21.3688 452.802 21.3725C451.799 21.3688 451.116 20.8753 451.12 20.1164ZM451.784 23.7277V21.7912H452.517V23.152H456.46V23.7277H451.784ZM451.83 20.1164C451.822 20.5538 452.216 20.823 452.802 20.8193C453.388 20.823 453.782 20.5538 453.79 20.1164C453.782 19.6753 453.388 19.4024 452.802 19.3987C452.216 19.4024 451.822 19.6753 451.83 20.1164ZM461.877 18.8753C461.869 20.0604 462.583 21.2754 463.613 21.7613L463.157 22.3296C462.405 21.9482 461.823 21.2006 461.518 20.3071C461.209 21.2567 460.603 22.0604 459.816 22.4567L459.361 21.881C460.422 21.3875 461.14 20.1015 461.144 18.8753V17.7313H461.877V18.8753ZM464.13 23.8698V17.1706H464.863V19.8398H465.975V20.4454H464.863V23.8698H464.13ZM468.899 17.8809V20.2809H467.224V21.6903C467.903 21.6828 468.559 21.6454 469.346 21.5146L469.408 22.0978C468.498 22.251 467.776 22.2772 466.962 22.2772H466.514V19.7127H468.197V18.4566H466.507V17.8809H468.899ZM469.269 21.1333V20.5501H470.133V19.466H469.269V18.8902H470.133V17.2977H470.828V23.5259H470.133V21.1333H469.269ZM471.53 23.8698V17.1706H472.232V23.8698H471.53ZM478.714 19.1295V19.6977H473.953V17.4098H474.678V19.1295H478.714ZM473.112 21.1109V20.5426H479.439V21.1109H473.112ZM473.899 23.7128V21.7464H474.632V23.1296H478.76V23.7128H473.899ZM488.182 21.0137V21.5894H485.358V23.8623H484.641V21.5894H481.855V21.0137H488.182ZM482.649 20.1613V17.5295H487.388V20.1613H482.649ZM483.367 19.608H486.654V18.0977H483.367V19.608ZM494.448 17.1706V21.7389H493.715V19.5482H492.369C492.218 20.337 491.512 20.8791 490.598 20.8716C489.556 20.8791 488.78 20.195 488.784 19.2416C488.78 18.2809 489.556 17.6155 490.598 17.6192C491.524 17.6155 492.241 18.1575 492.372 18.9725H493.715V17.1706H494.448ZM489.486 19.2416C489.482 19.8548 489.949 20.2697 490.598 20.266C491.218 20.2697 491.693 19.8548 491.693 19.2416C491.693 18.6435 491.218 18.2174 490.598 18.2174C489.949 18.2174 489.482 18.6435 489.486 19.2416ZM489.509 23.2717C490.794 23.0698 491.805 22.3146 491.809 21.4847V21.2455H492.558V21.4847C492.554 22.3483 493.545 23.0773 494.865 23.2717L494.572 23.8324C493.491 23.6567 492.592 23.1408 492.18 22.4081C491.755 23.1296 490.856 23.6567 489.772 23.8324L489.509 23.2717ZM501.231 17.1706V23.8848H500.498V17.1706H501.231ZM495.744 20.0193C495.744 18.5874 496.489 17.6753 497.535 17.6715C498.561 17.6753 499.317 18.5874 499.317 20.0193C499.317 21.466 498.561 22.3782 497.535 22.3744C496.489 22.3782 495.744 21.466 495.744 20.0193ZM496.454 20.0193C496.451 21.0847 496.89 21.7389 497.535 21.7389C498.167 21.7389 498.607 21.0847 498.607 20.0193C498.607 18.9688 498.167 18.3108 497.535 18.307C496.89 18.3108 496.451 18.9688 496.454 20.0193ZM506.647 21.5969C506.647 22.1726 506.941 22.782 507.57 23.1445C508.202 22.752 508.515 22.1127 508.515 21.5969V21.2754H509.232V21.5969C509.229 22.2922 509.703 22.9651 510.606 23.2492L510.244 23.7726C509.561 23.5446 509.094 23.096 508.855 22.5501C508.635 23.0885 508.222 23.5782 507.589 23.8324C506.926 23.5894 506.505 23.1146 506.293 22.5688C506.042 23.096 505.587 23.5408 504.934 23.7726L504.564 23.2492C505.451 22.9427 505.934 22.2436 505.938 21.5969V21.2754H506.647V21.5969ZM504.387 19.1295C504.39 18.1912 505.17 17.5481 506.231 17.5444C507.288 17.5481 508.067 18.1912 508.067 19.1295C508.067 20.0567 507.288 20.6996 506.231 20.6996C505.17 20.6996 504.39 20.0567 504.387 19.1295ZM505.104 19.1295C505.1 19.7127 505.575 20.109 506.231 20.109C506.879 20.109 507.35 19.7127 507.35 19.1295C507.35 18.5426 506.879 18.1463 506.231 18.15C505.575 18.1463 505.1 18.5426 505.104 19.1295ZM509.248 20.9912V17.1781H509.981V20.9912H509.248ZM514.217 17.2827C515.776 17.279 516.683 17.6865 516.687 18.4342C516.683 19.1856 515.776 19.5931 514.217 19.5931C512.659 19.5931 511.744 19.1856 511.748 18.4342C511.744 17.6865 512.659 17.279 514.217 17.2827ZM511.069 20.5725V20.0043H517.374V20.5725H511.069ZM511.825 21.6193V21.0884H516.579V22.6586H512.551V23.2567H516.772V23.8025H511.833V22.1427H515.854V21.6193H511.825ZM512.512 18.4342C512.508 18.8491 513.118 19.0622 514.217 19.0622C515.325 19.0622 515.934 18.8491 515.93 18.4342C515.934 18.0379 515.325 17.8061 514.217 17.8061C513.118 17.8061 512.508 18.0379 512.512 18.4342ZM523.385 17.1706V19.8922H524.388V20.4753H523.385V23.8698H522.652V17.1706H523.385ZM517.829 21.9856C518.84 20.9651 519.206 19.8136 519.28 18.4715H518.076V17.8884H519.974C519.97 19.5632 519.661 21.0884 518.408 22.3819L517.829 21.9856ZM519.804 22.4343C520.835 21.2679 521.136 19.8996 521.189 18.4715H520.198V17.8884H521.88C521.88 19.5819 521.66 21.3688 520.391 22.823L519.804 22.4343ZM525.846 21.6267C525.858 20.6473 526.155 20.3483 526.664 20.0417C526.989 19.851 527.235 19.5744 527.235 19.1818C527.235 18.7146 526.865 18.4192 526.402 18.4192C525.985 18.4192 525.58 18.666 525.545 19.2192H524.712C524.743 18.2659 525.483 17.7463 526.402 17.7463C527.405 17.7463 528.076 18.3295 528.076 19.1818C528.076 19.7837 527.779 20.1837 527.289 20.4753C526.826 20.7482 526.645 21.0174 526.634 21.6267V21.6716H525.846V21.6267ZM525.723 22.7558C525.719 22.4642 525.97 22.2249 526.271 22.2249C526.568 22.2249 526.815 22.4642 526.819 22.7558C526.815 23.0474 526.568 23.2829 526.271 23.2866C525.97 23.2829 525.719 23.0474 525.723 22.7558Z" fill="#434343"/>
<path d="M564.343 20.6094L567.422 23.8906L574.198 16.6719" stroke="#3BBF82" stroke-width="3"/>
</g>
<rect x="4.5" y="2.5" width="588" height="36" rx="8.5" stroke="#3EE89E" shape-rendering="crispEdges"/>
</g>
<defs>
<filter id="filter0_d_4611_21765" x="0" y="0" width="597" height="45" filterUnits="userSpaceOnUse" color-interpolation-filters="sRGB">
<feFlood flood-opacity="0" result="BackgroundImageFix"/>
<feColorMatrix in="SourceAlpha" type="matrix" values="0 0 0 0 0 0 0 0 0 0 0 0 0 0 0 0 0 0 127 0" result="hardAlpha"/>
<feOffset dy="2"/>
<feGaussianBlur stdDeviation="2"/>
<feComposite in2="hardAlpha" operator="out"/>
<feColorMatrix type="matrix" values="0 0 0 0 0.358974 0 0 0 0 1 0 0 0 0 0.690171 0 0 0 0.25 0"/>
<feBlend mode="normal" in2="BackgroundImageFix" result="effect1_dropShadow_4611_21765"/>
<feBlend mode="normal" in="SourceGraphic" in2="effect1_dropShadow_4611_21765" result="shape"/>
</filter>
<clipPath id="clip0_4611_21765">
<rect x="5" y="3" width="587" height="35" rx="8" fill="white"/>
</clipPath>
</defs>
</svg>
