<svg width="600" height="130" viewBox="0 0 600 130" fill="none" xmlns="http://www.w3.org/2000/svg">
<g filter="url(#filter0_d_4565_21510)">
<g clip-path="url(#clip0_4565_21510)">
<path d="M562.454 25H37.5461C30.5324 25 24.8467 30.7364 24.8467 37.8125V92.4792C24.8467 99.5553 30.5324 105.292 37.5461 105.292H562.454C569.468 105.292 575.153 99.5553 575.153 92.4792V37.8125C575.153 30.7364 569.468 25 562.454 25Z" fill="#F9F7F6"/>
<path d="M562.454 24.8545H37.5461C30.5324 24.8545 24.8467 30.5908 24.8467 37.667V92.3337C24.8467 99.4098 30.5324 105.146 37.5461 105.146H562.454C569.468 105.146 575.153 99.4098 575.153 92.3337V37.667C575.153 30.5908 569.468 24.8545 562.454 24.8545Z" stroke="#EAE5E2"/>
<mask id="path-5-outside-1_4565_21510" maskUnits="userSpaceOnUse" x="51" y="51" width="345" height="28" fill="black">
<rect fill="white" x="51" y="51" width="345" height="28"/>
<path d="M72.1041 65.0387H52V63.396H72.1041V65.0387ZM63.02 64.089H61.0839V59.469H63.02V64.089ZM69.6469 74.997H67.7108V68.9142H54.2338V67.2716H69.6469V74.997ZM69.8205 60.6241H54.5564V58.9556H69.8205V60.6241ZM69.6221 54.5923H56.4924V59.8284H54.5564V52.924H69.6221V54.5923ZM91.2645 61.4454H85.0595V59.8028H91.2645V61.4454ZM81.3365 58.1343C81.3365 59.7769 81.0676 61.3898 80.5298 62.9724C79.9921 64.5553 79.2556 65.9583 78.3208 67.1818C77.3859 68.4052 76.3394 69.3419 75.1811 69.9922L73.9152 68.3752C74.9909 67.8276 75.9713 67.0149 76.8564 65.9369C77.7417 64.8588 78.4409 63.6312 78.9538 62.2538C79.4666 60.8764 79.7231 59.5032 79.7231 58.1343V53.9764H81.3365V58.1343ZM81.7087 58.1343C81.7087 59.4861 81.9651 60.8208 82.4781 62.1384C82.9911 63.4558 83.686 64.6236 84.563 65.6418C85.4401 66.6598 86.408 67.4255 87.467 67.9389L86.3004 69.5816C85.1256 68.9484 84.0708 68.0458 83.136 66.8738C82.2011 65.7016 81.4647 64.3542 80.9269 62.8314C80.3892 61.3083 80.1202 59.7428 80.1202 58.1343V53.9764H81.7087V58.1343ZM92.2324 74.8689H90.2964V52H92.2324V74.8689ZM120.104 65.5262H104.84V63.8836H120.104V65.5262ZM122.437 71.9684H102.234V70.3002H122.437V71.9684ZM113.254 71.0702H111.318V64.7307H113.254V71.0702ZM119.856 55.542H106.825V64.5253H104.84V53.8737H119.856V55.542ZM119.384 60.4443H106.205V58.8016H119.384V60.4443ZM144.352 66.7069H124.149V65.0387H144.352V66.7069ZM142.218 74.5866H126.83V72.9181H142.218V74.5866ZM128.79 73.4059H126.83V68.2469H128.79V73.4059ZM135.194 65.7829H133.283V61.7534H135.194V65.7829ZM141.746 58.391H128.716V61.4967H126.78V56.9023H139.786V54.3615H126.705V52.7444H141.746V58.391ZM142.218 62.5232H126.78V60.932H142.218V62.5232ZM153.336 53.6685C154.495 53.6685 155.521 53.8952 156.414 54.3485C157.308 54.8019 158.007 55.4351 158.511 56.2479C159.016 57.0607 159.268 57.9889 159.268 59.0327C159.268 60.0766 159.016 61.0048 158.511 61.8175C158.007 62.6303 157.308 63.2633 156.414 63.7169C155.521 64.1702 154.495 64.3969 153.336 64.3969C152.195 64.3969 151.169 64.1702 150.259 63.7169C149.349 63.2633 148.641 62.6303 148.137 61.8175C147.632 61.0048 147.38 60.0766 147.38 59.0327C147.38 57.9889 147.632 57.0607 148.137 56.2479C148.641 55.4351 149.349 54.8019 150.259 54.3485C151.169 53.8952 152.195 53.6685 153.336 53.6685ZM153.336 55.4395C152.559 55.4395 151.864 55.5891 151.252 55.8885C150.639 56.1881 150.16 56.6115 149.812 57.159C149.465 57.7065 149.291 58.3312 149.291 59.0327C149.291 59.7342 149.465 60.3545 149.812 60.8935C150.16 61.4325 150.639 61.8559 151.252 62.164C151.864 62.472 152.559 62.6259 153.336 62.6259C154.114 62.6259 154.809 62.472 155.421 62.164C156.034 61.8559 156.509 61.4325 156.848 60.8935C157.188 60.3545 157.357 59.7342 157.357 59.0327C157.357 58.3312 157.188 57.7065 156.848 57.159C156.509 56.6115 156.034 56.1881 155.421 55.8885C154.809 55.5891 154.114 55.4395 153.336 55.4395ZM164.208 74.8689H162.272V52H164.208V74.8689ZM146.238 68.1185C148.075 68.1185 149.742 68.1014 151.239 68.0673C152.737 68.0331 154.329 67.9604 156.017 67.8491C157.705 67.7378 159.301 67.571 160.807 67.3487L160.956 68.8373C159.401 69.1282 157.788 69.3463 156.116 69.4918C154.445 69.6372 152.877 69.7314 151.413 69.7741C149.949 69.8168 148.315 69.8382 146.511 69.8382L146.238 68.1185ZM192.7 74.8689H190.739V52H192.7V74.8689ZM191.335 62.857H185.899V61.1887H191.335V62.857ZM181.68 59.4434C181.68 61.0004 181.415 62.5105 180.885 63.9733C180.356 65.4364 179.628 66.7284 178.701 67.8491C177.775 68.9698 176.732 69.8212 175.574 70.4029L174.457 68.8373C175.532 68.3069 176.501 67.5539 177.361 66.5786C178.221 65.6033 178.896 64.4911 179.384 63.242C179.872 61.993 180.116 60.7266 180.116 59.4434V57.3901H181.68V59.4434ZM182.027 59.4434C182.027 60.6754 182.279 61.8859 182.784 63.0751C183.289 64.2644 183.98 65.3251 184.857 66.2577C185.733 67.1903 186.71 67.9133 187.785 68.4264L186.668 69.9922C185.494 69.4276 184.435 68.6104 183.491 67.5412C182.548 66.4717 181.812 65.2312 181.283 63.8194C180.753 62.4078 180.488 60.9491 180.488 59.4434V57.3901H182.027V59.4434ZM187.041 57.6211H175.053V55.9785H187.041V57.6211ZM182.052 56.9023H180.116V52.4365H182.052V56.9023ZM206.4 52.5134C208.005 52.5134 209.39 52.6847 210.557 53.0268C211.723 53.3689 212.621 53.8652 213.25 54.5154C213.879 55.1657 214.193 55.9441 214.193 56.8511C214.193 57.7407 213.879 58.5022 213.25 59.1354C212.621 59.7684 211.723 60.2562 210.557 60.5983C209.39 60.9406 208.005 61.1116 206.4 61.1116C204.811 61.1116 203.429 60.9406 202.255 60.5983C201.08 60.2562 200.174 59.7684 199.537 59.1354C198.9 58.5022 198.581 57.7407 198.581 56.8511C198.581 55.9441 198.9 55.1657 199.537 54.5154C200.174 53.8652 201.08 53.3689 202.255 53.0268C203.429 52.6847 204.811 52.5134 206.4 52.5134ZM206.4 54.1304C205.225 54.1304 204.199 54.2373 203.322 54.4513C202.445 54.665 201.771 54.9773 201.299 55.388C200.828 55.7987 200.592 56.2864 200.592 56.8511C200.592 57.3986 200.824 57.8691 201.287 58.2626C201.75 58.6562 202.42 58.96 203.297 59.1738C204.174 59.3877 205.208 59.5032 206.4 59.5202C207.575 59.5032 208.6 59.3877 209.477 59.1738C210.354 58.96 211.029 58.6562 211.5 58.2626C211.972 57.8691 212.208 57.3986 212.208 56.8511C212.208 56.2864 211.972 55.7987 211.5 55.388C211.029 54.9773 210.354 54.665 209.477 54.4513C208.6 54.2373 207.575 54.1304 206.4 54.1304ZM213.994 74.5095H198.805V67.0149H213.994V74.5095ZM200.741 72.8668H212.083V68.6319H200.741V72.8668ZM216.452 64.7563H196.348V63.0881H216.452V64.7563ZM238.466 67.1947H218.263V65.552H238.466V67.1947ZM229.259 74.8174H227.347V66.2706H229.259V74.8174ZM222.78 56.1066H233.899V52.9497H235.861V62.7799H220.844V52.9497H222.78V56.1066ZM233.899 61.1373V57.7493H222.78V61.1373H233.899ZM258.521 74.8689H256.585V52H258.521V74.8689ZM256.907 62.2924H251.919V60.6241H256.907V62.2924ZM242.932 67.6822C245.15 67.6822 246.99 67.6351 248.456 67.5412C249.92 67.447 251.396 67.263 252.887 66.9892L253.109 68.6575C251.555 68.9142 250.019 69.0938 248.505 69.1965C246.99 69.2992 245.133 69.3505 242.932 69.3505H241.247V67.6822H242.932ZM251.546 55.773H243.206V68.2469H241.247V54.1048H251.546V55.773ZM250.578 62.164H242.685V60.5214H250.578V62.164ZM288.699 62.472H268.522V60.8293H288.699V62.472ZM276.339 54.5667H270.409V52.924H276.339V54.5667ZM277.606 53.8481C277.589 54.9261 277.515 56.0724 277.381 57.2873C277.25 58.5022 276.985 59.8882 276.587 61.4454L274.676 61.1887C274.975 60.0251 275.197 58.9515 275.348 57.9676C275.496 56.9836 275.587 56.1837 275.619 55.5678C275.653 54.9517 275.678 54.2673 275.695 53.5145V52.924H277.606V53.5145V53.8481ZM285.101 54.5667H279.095V52.924H285.101V54.5667ZM286.169 53.8481C286.169 54.5838 286.156 55.294 286.13 55.9785C286.107 56.6629 286.029 57.4884 285.895 58.4552C285.764 59.4219 285.556 60.4528 285.275 61.5479L283.388 61.2656C283.652 60.1705 283.851 59.1611 283.985 58.237C284.116 57.313 284.195 56.5517 284.22 55.9526C284.245 55.3538 284.264 54.6523 284.281 53.8481V52.924H286.169V53.8481ZM286.217 66.4759H272.988V73.3802H271.027V64.9103H286.217V66.4759ZM286.368 74.5095H271.027V72.9181H286.368V74.5095ZM285.647 70.4029H272.194V68.8886H285.647V70.4029ZM307.935 74.8174H305.974V52H307.935V74.8174ZM311.285 63.1137H307.289V61.4196H311.285V63.1137ZM297.163 54.4898C297.163 56.4233 296.998 58.2626 296.667 60.008C296.335 61.7534 295.79 63.4473 295.028 65.0899C294.268 66.7326 293.24 68.2554 291.951 69.6586L290.388 68.5035C291.578 67.2374 292.541 65.8685 293.279 64.3969C294.016 62.9253 294.545 61.3898 294.867 59.7899C295.189 58.1899 295.352 56.5002 295.352 54.7207V54.4898H297.163ZM296.047 56.1837H291.082V54.4898H296.047V56.1837ZM303.218 54.4898C303.218 56.5602 303.087 58.5364 302.822 60.4187C302.557 62.3009 302.062 64.1702 301.333 66.0267C300.605 67.8833 299.594 69.5986 298.304 71.173L296.716 70.0435C297.923 68.6233 298.876 67.0663 299.571 65.3722C300.266 63.6783 300.744 61.95 301.009 60.1876C301.274 58.4252 301.407 56.5858 301.407 54.6694V54.4898H303.218ZM302.176 56.1837H297.858V54.4898H302.176V56.1837ZM319.948 59.0071C319.948 60.5641 319.658 62.1084 319.077 63.6398C318.499 65.1712 317.726 66.5359 316.758 67.7335C315.79 68.9313 314.727 69.8297 313.569 70.4285L312.402 68.8373C313.444 68.3069 314.42 67.5153 315.331 66.4632C316.241 65.4108 316.968 64.2259 317.514 62.9083C318.061 61.5909 318.334 60.2903 318.334 59.0071V55.234H319.948V59.0071ZM320.295 59.0071C320.295 60.2561 320.564 61.5052 321.1 62.7543C321.638 64.0034 322.367 65.1114 323.286 66.0781C324.203 67.0449 325.2 67.7764 326.276 68.2725L325.184 69.8639C323.993 69.2992 322.905 68.4608 321.92 67.3487C320.935 66.2363 320.158 64.953 319.588 63.4985C319.016 62.0442 318.73 60.547 318.73 59.0071V55.234H320.295V59.0071ZM325.556 56.0297H313.122V54.3615H325.556V56.0297ZM330.595 74.8174H328.634V52H330.595V74.8174ZM336.03 78H334.193L335.557 71.0188H337.965L336.03 78ZM353.378 56.9538C353.378 58.1687 353.174 59.3279 352.77 60.4316C352.363 61.5352 351.785 62.5105 351.031 63.3575C350.279 64.2044 349.373 64.8588 348.314 65.321L347.346 63.8067C348.273 63.4131 349.076 62.8612 349.754 62.1511C350.432 61.441 350.953 60.6368 351.317 59.7386C351.681 58.8402 351.863 57.912 351.863 56.9538V56.1581H353.378V56.9538ZM353.7 56.9538C353.7 57.8434 353.886 58.7118 354.259 59.5588C354.632 60.4057 355.161 61.1629 355.847 61.8302C356.534 62.4976 357.332 63.0024 358.243 63.3445L357.298 64.9103C356.239 64.4655 355.331 63.8408 354.568 63.0366C353.808 62.2324 353.23 61.3042 352.831 60.2518C352.435 59.1996 352.236 58.1001 352.236 56.9538V56.1581H353.7V56.9538ZM357.696 56.6715H347.793V55.0288H357.696V56.6715ZM353.7 55.7218H351.863V52.2825H353.7V55.7218ZM365.912 65.9883H364.05V52.0258H365.912V65.9883ZM364.645 59.8028H360.401V58.1343H364.645V59.8028ZM361.172 65.8856H359.285V52.4365H361.172V65.8856ZM365.912 74.8174H364.001V68.863H351.044V67.2203H365.912V74.8174ZM389.315 71.8916H369.112V70.1974H389.315V71.8916ZM380.109 70.6852H378.196V64.2173H380.109V70.6852ZM386.81 64.628H371.495V53.9252H386.81V64.628ZM373.407 63.011H384.923V55.542H373.407V63.011ZM394.454 67.5026H392.367L392.194 54.156H394.627L394.454 67.5026ZM393.412 72.8925C393.13 72.8925 392.865 72.8156 392.617 72.6614C392.367 72.5074 392.175 72.3022 392.033 72.0455C391.893 71.7888 391.823 71.5151 391.823 71.2242C391.823 70.9333 391.893 70.6596 392.033 70.4029C392.175 70.1462 392.367 69.9451 392.617 69.7997C392.865 69.6543 393.13 69.5816 393.412 69.5816C393.691 69.5816 393.956 69.6543 394.206 69.7997C394.454 69.9451 394.648 70.1462 394.788 70.4029C394.928 70.6596 395 70.9333 395 71.2242C395 71.5151 394.928 71.7888 394.788 72.0455C394.648 72.3022 394.454 72.5074 394.206 72.6614C393.956 72.8156 393.691 72.8925 393.412 72.8925Z"/>
</mask>
<path d="M72.1041 65.0387H52V63.396H72.1041V65.0387ZM63.02 64.089H61.0839V59.469H63.02V64.089ZM69.6469 74.997H67.7108V68.9142H54.2338V67.2716H69.6469V74.997ZM69.8205 60.6241H54.5564V58.9556H69.8205V60.6241ZM69.6221 54.5923H56.4924V59.8284H54.5564V52.924H69.6221V54.5923ZM91.2645 61.4454H85.0595V59.8028H91.2645V61.4454ZM81.3365 58.1343C81.3365 59.7769 81.0676 61.3898 80.5298 62.9724C79.9921 64.5553 79.2556 65.9583 78.3208 67.1818C77.3859 68.4052 76.3394 69.3419 75.1811 69.9922L73.9152 68.3752C74.9909 67.8276 75.9713 67.0149 76.8564 65.9369C77.7417 64.8588 78.4409 63.6312 78.9538 62.2538C79.4666 60.8764 79.7231 59.5032 79.7231 58.1343V53.9764H81.3365V58.1343ZM81.7087 58.1343C81.7087 59.4861 81.9651 60.8208 82.4781 62.1384C82.9911 63.4558 83.686 64.6236 84.563 65.6418C85.4401 66.6598 86.408 67.4255 87.467 67.9389L86.3004 69.5816C85.1256 68.9484 84.0708 68.0458 83.136 66.8738C82.2011 65.7016 81.4647 64.3542 80.9269 62.8314C80.3892 61.3083 80.1202 59.7428 80.1202 58.1343V53.9764H81.7087V58.1343ZM92.2324 74.8689H90.2964V52H92.2324V74.8689ZM120.104 65.5262H104.84V63.8836H120.104V65.5262ZM122.437 71.9684H102.234V70.3002H122.437V71.9684ZM113.254 71.0702H111.318V64.7307H113.254V71.0702ZM119.856 55.542H106.825V64.5253H104.84V53.8737H119.856V55.542ZM119.384 60.4443H106.205V58.8016H119.384V60.4443ZM144.352 66.7069H124.149V65.0387H144.352V66.7069ZM142.218 74.5866H126.83V72.9181H142.218V74.5866ZM128.79 73.4059H126.83V68.2469H128.79V73.4059ZM135.194 65.7829H133.283V61.7534H135.194V65.7829ZM141.746 58.391H128.716V61.4967H126.78V56.9023H139.786V54.3615H126.705V52.7444H141.746V58.391ZM142.218 62.5232H126.78V60.932H142.218V62.5232ZM153.336 53.6685C154.495 53.6685 155.521 53.8952 156.414 54.3485C157.308 54.8019 158.007 55.4351 158.511 56.2479C159.016 57.0607 159.268 57.9889 159.268 59.0327C159.268 60.0766 159.016 61.0048 158.511 61.8175C158.007 62.6303 157.308 63.2633 156.414 63.7169C155.521 64.1702 154.495 64.3969 153.336 64.3969C152.195 64.3969 151.169 64.1702 150.259 63.7169C149.349 63.2633 148.641 62.6303 148.137 61.8175C147.632 61.0048 147.38 60.0766 147.38 59.0327C147.38 57.9889 147.632 57.0607 148.137 56.2479C148.641 55.4351 149.349 54.8019 150.259 54.3485C151.169 53.8952 152.195 53.6685 153.336 53.6685ZM153.336 55.4395C152.559 55.4395 151.864 55.5891 151.252 55.8885C150.639 56.1881 150.16 56.6115 149.812 57.159C149.465 57.7065 149.291 58.3312 149.291 59.0327C149.291 59.7342 149.465 60.3545 149.812 60.8935C150.16 61.4325 150.639 61.8559 151.252 62.164C151.864 62.472 152.559 62.6259 153.336 62.6259C154.114 62.6259 154.809 62.472 155.421 62.164C156.034 61.8559 156.509 61.4325 156.848 60.8935C157.188 60.3545 157.357 59.7342 157.357 59.0327C157.357 58.3312 157.188 57.7065 156.848 57.159C156.509 56.6115 156.034 56.1881 155.421 55.8885C154.809 55.5891 154.114 55.4395 153.336 55.4395ZM164.208 74.8689H162.272V52H164.208V74.8689ZM146.238 68.1185C148.075 68.1185 149.742 68.1014 151.239 68.0673C152.737 68.0331 154.329 67.9604 156.017 67.8491C157.705 67.7378 159.301 67.571 160.807 67.3487L160.956 68.8373C159.401 69.1282 157.788 69.3463 156.116 69.4918C154.445 69.6372 152.877 69.7314 151.413 69.7741C149.949 69.8168 148.315 69.8382 146.511 69.8382L146.238 68.1185ZM192.7 74.8689H190.739V52H192.7V74.8689ZM191.335 62.857H185.899V61.1887H191.335V62.857ZM181.68 59.4434C181.68 61.0004 181.415 62.5105 180.885 63.9733C180.356 65.4364 179.628 66.7284 178.701 67.8491C177.775 68.9698 176.732 69.8212 175.574 70.4029L174.457 68.8373C175.532 68.3069 176.501 67.5539 177.361 66.5786C178.221 65.6033 178.896 64.4911 179.384 63.242C179.872 61.993 180.116 60.7266 180.116 59.4434V57.3901H181.68V59.4434ZM182.027 59.4434C182.027 60.6754 182.279 61.8859 182.784 63.0751C183.289 64.2644 183.98 65.3251 184.857 66.2577C185.733 67.1903 186.71 67.9133 187.785 68.4264L186.668 69.9922C185.494 69.4276 184.435 68.6104 183.491 67.5412C182.548 66.4717 181.812 65.2312 181.283 63.8194C180.753 62.4078 180.488 60.9491 180.488 59.4434V57.3901H182.027V59.4434ZM187.041 57.6211H175.053V55.9785H187.041V57.6211ZM182.052 56.9023H180.116V52.4365H182.052V56.9023ZM206.4 52.5134C208.005 52.5134 209.39 52.6847 210.557 53.0268C211.723 53.3689 212.621 53.8652 213.25 54.5154C213.879 55.1657 214.193 55.9441 214.193 56.8511C214.193 57.7407 213.879 58.5022 213.25 59.1354C212.621 59.7684 211.723 60.2562 210.557 60.5983C209.39 60.9406 208.005 61.1116 206.4 61.1116C204.811 61.1116 203.429 60.9406 202.255 60.5983C201.08 60.2562 200.174 59.7684 199.537 59.1354C198.9 58.5022 198.581 57.7407 198.581 56.8511C198.581 55.9441 198.9 55.1657 199.537 54.5154C200.174 53.8652 201.08 53.3689 202.255 53.0268C203.429 52.6847 204.811 52.5134 206.4 52.5134ZM206.4 54.1304C205.225 54.1304 204.199 54.2373 203.322 54.4513C202.445 54.665 201.771 54.9773 201.299 55.388C200.828 55.7987 200.592 56.2864 200.592 56.8511C200.592 57.3986 200.824 57.8691 201.287 58.2626C201.75 58.6562 202.42 58.96 203.297 59.1738C204.174 59.3877 205.208 59.5032 206.4 59.5202C207.575 59.5032 208.6 59.3877 209.477 59.1738C210.354 58.96 211.029 58.6562 211.5 58.2626C211.972 57.8691 212.208 57.3986 212.208 56.8511C212.208 56.2864 211.972 55.7987 211.5 55.388C211.029 54.9773 210.354 54.665 209.477 54.4513C208.6 54.2373 207.575 54.1304 206.4 54.1304ZM213.994 74.5095H198.805V67.0149H213.994V74.5095ZM200.741 72.8668H212.083V68.6319H200.741V72.8668ZM216.452 64.7563H196.348V63.0881H216.452V64.7563ZM238.466 67.1947H218.263V65.552H238.466V67.1947ZM229.259 74.8174H227.347V66.2706H229.259V74.8174ZM222.78 56.1066H233.899V52.9497H235.861V62.7799H220.844V52.9497H222.78V56.1066ZM233.899 61.1373V57.7493H222.78V61.1373H233.899ZM258.521 74.8689H256.585V52H258.521V74.8689ZM256.907 62.2924H251.919V60.6241H256.907V62.2924ZM242.932 67.6822C245.15 67.6822 246.99 67.6351 248.456 67.5412C249.92 67.447 251.396 67.263 252.887 66.9892L253.109 68.6575C251.555 68.9142 250.019 69.0938 248.505 69.1965C246.99 69.2992 245.133 69.3505 242.932 69.3505H241.247V67.6822H242.932ZM251.546 55.773H243.206V68.2469H241.247V54.1048H251.546V55.773ZM250.578 62.164H242.685V60.5214H250.578V62.164ZM288.699 62.472H268.522V60.8293H288.699V62.472ZM276.339 54.5667H270.409V52.924H276.339V54.5667ZM277.606 53.8481C277.589 54.9261 277.515 56.0724 277.381 57.2873C277.25 58.5022 276.985 59.8882 276.587 61.4454L274.676 61.1887C274.975 60.0251 275.197 58.9515 275.348 57.9676C275.496 56.9836 275.587 56.1837 275.619 55.5678C275.653 54.9517 275.678 54.2673 275.695 53.5145V52.924H277.606V53.5145V53.8481ZM285.101 54.5667H279.095V52.924H285.101V54.5667ZM286.169 53.8481C286.169 54.5838 286.156 55.294 286.13 55.9785C286.107 56.6629 286.029 57.4884 285.895 58.4552C285.764 59.4219 285.556 60.4528 285.275 61.5479L283.388 61.2656C283.652 60.1705 283.851 59.1611 283.985 58.237C284.116 57.313 284.195 56.5517 284.22 55.9526C284.245 55.3538 284.264 54.6523 284.281 53.8481V52.924H286.169V53.8481ZM286.217 66.4759H272.988V73.3802H271.027V64.9103H286.217V66.4759ZM286.368 74.5095H271.027V72.9181H286.368V74.5095ZM285.647 70.4029H272.194V68.8886H285.647V70.4029ZM307.935 74.8174H305.974V52H307.935V74.8174ZM311.285 63.1137H307.289V61.4196H311.285V63.1137ZM297.163 54.4898C297.163 56.4233 296.998 58.2626 296.667 60.008C296.335 61.7534 295.79 63.4473 295.028 65.0899C294.268 66.7326 293.24 68.2554 291.951 69.6586L290.388 68.5035C291.578 67.2374 292.541 65.8685 293.279 64.3969C294.016 62.9253 294.545 61.3898 294.867 59.7899C295.189 58.1899 295.352 56.5002 295.352 54.7207V54.4898H297.163ZM296.047 56.1837H291.082V54.4898H296.047V56.1837ZM303.218 54.4898C303.218 56.5602 303.087 58.5364 302.822 60.4187C302.557 62.3009 302.062 64.1702 301.333 66.0267C300.605 67.8833 299.594 69.5986 298.304 71.173L296.716 70.0435C297.923 68.6233 298.876 67.0663 299.571 65.3722C300.266 63.6783 300.744 61.95 301.009 60.1876C301.274 58.4252 301.407 56.5858 301.407 54.6694V54.4898H303.218ZM302.176 56.1837H297.858V54.4898H302.176V56.1837ZM319.948 59.0071C319.948 60.5641 319.658 62.1084 319.077 63.6398C318.499 65.1712 317.726 66.5359 316.758 67.7335C315.79 68.9313 314.727 69.8297 313.569 70.4285L312.402 68.8373C313.444 68.3069 314.42 67.5153 315.331 66.4632C316.241 65.4108 316.968 64.2259 317.514 62.9083C318.061 61.5909 318.334 60.2903 318.334 59.0071V55.234H319.948V59.0071ZM320.295 59.0071C320.295 60.2561 320.564 61.5052 321.1 62.7543C321.638 64.0034 322.367 65.1114 323.286 66.0781C324.203 67.0449 325.2 67.7764 326.276 68.2725L325.184 69.8639C323.993 69.2992 322.905 68.4608 321.92 67.3487C320.935 66.2363 320.158 64.953 319.588 63.4985C319.016 62.0442 318.73 60.547 318.73 59.0071V55.234H320.295V59.0071ZM325.556 56.0297H313.122V54.3615H325.556V56.0297ZM330.595 74.8174H328.634V52H330.595V74.8174ZM336.03 78H334.193L335.557 71.0188H337.965L336.03 78ZM353.378 56.9538C353.378 58.1687 353.174 59.3279 352.77 60.4316C352.363 61.5352 351.785 62.5105 351.031 63.3575C350.279 64.2044 349.373 64.8588 348.314 65.321L347.346 63.8067C348.273 63.4131 349.076 62.8612 349.754 62.1511C350.432 61.441 350.953 60.6368 351.317 59.7386C351.681 58.8402 351.863 57.912 351.863 56.9538V56.1581H353.378V56.9538ZM353.7 56.9538C353.7 57.8434 353.886 58.7118 354.259 59.5588C354.632 60.4057 355.161 61.1629 355.847 61.8302C356.534 62.4976 357.332 63.0024 358.243 63.3445L357.298 64.9103C356.239 64.4655 355.331 63.8408 354.568 63.0366C353.808 62.2324 353.23 61.3042 352.831 60.2518C352.435 59.1996 352.236 58.1001 352.236 56.9538V56.1581H353.7V56.9538ZM357.696 56.6715H347.793V55.0288H357.696V56.6715ZM353.7 55.7218H351.863V52.2825H353.7V55.7218ZM365.912 65.9883H364.05V52.0258H365.912V65.9883ZM364.645 59.8028H360.401V58.1343H364.645V59.8028ZM361.172 65.8856H359.285V52.4365H361.172V65.8856ZM365.912 74.8174H364.001V68.863H351.044V67.2203H365.912V74.8174ZM389.315 71.8916H369.112V70.1974H389.315V71.8916ZM380.109 70.6852H378.196V64.2173H380.109V70.6852ZM386.81 64.628H371.495V53.9252H386.81V64.628ZM373.407 63.011H384.923V55.542H373.407V63.011ZM394.454 67.5026H392.367L392.194 54.156H394.627L394.454 67.5026ZM393.412 72.8925C393.13 72.8925 392.865 72.8156 392.617 72.6614C392.367 72.5074 392.175 72.3022 392.033 72.0455C391.893 71.7888 391.823 71.5151 391.823 71.2242C391.823 70.9333 391.893 70.6596 392.033 70.4029C392.175 70.1462 392.367 69.9451 392.617 69.7997C392.865 69.6543 393.13 69.5816 393.412 69.5816C393.691 69.5816 393.956 69.6543 394.206 69.7997C394.454 69.9451 394.648 70.1462 394.788 70.4029C394.928 70.6596 395 70.9333 395 71.2242C395 71.5151 394.928 71.7888 394.788 72.0455C394.648 72.3022 394.454 72.5074 394.206 72.6614C393.956 72.8156 393.691 72.8925 393.412 72.8925Z" fill="#2C2C2C"/>
<path d="M72.1041 65.0387H52V63.396H72.1041V65.0387ZM63.02 64.089H61.0839V59.469H63.02V64.089ZM69.6469 74.997H67.7108V68.9142H54.2338V67.2716H69.6469V74.997ZM69.8205 60.6241H54.5564V58.9556H69.8205V60.6241ZM69.6221 54.5923H56.4924V59.8284H54.5564V52.924H69.6221V54.5923ZM91.2645 61.4454H85.0595V59.8028H91.2645V61.4454ZM81.3365 58.1343C81.3365 59.7769 81.0676 61.3898 80.5298 62.9724C79.9921 64.5553 79.2556 65.9583 78.3208 67.1818C77.3859 68.4052 76.3394 69.3419 75.1811 69.9922L73.9152 68.3752C74.9909 67.8276 75.9713 67.0149 76.8564 65.9369C77.7417 64.8588 78.4409 63.6312 78.9538 62.2538C79.4666 60.8764 79.7231 59.5032 79.7231 58.1343V53.9764H81.3365V58.1343ZM81.7087 58.1343C81.7087 59.4861 81.9651 60.8208 82.4781 62.1384C82.9911 63.4558 83.686 64.6236 84.563 65.6418C85.4401 66.6598 86.408 67.4255 87.467 67.9389L86.3004 69.5816C85.1256 68.9484 84.0708 68.0458 83.136 66.8738C82.2011 65.7016 81.4647 64.3542 80.9269 62.8314C80.3892 61.3083 80.1202 59.7428 80.1202 58.1343V53.9764H81.7087V58.1343ZM92.2324 74.8689H90.2964V52H92.2324V74.8689ZM120.104 65.5262H104.84V63.8836H120.104V65.5262ZM122.437 71.9684H102.234V70.3002H122.437V71.9684ZM113.254 71.0702H111.318V64.7307H113.254V71.0702ZM119.856 55.542H106.825V64.5253H104.84V53.8737H119.856V55.542ZM119.384 60.4443H106.205V58.8016H119.384V60.4443ZM144.352 66.7069H124.149V65.0387H144.352V66.7069ZM142.218 74.5866H126.83V72.9181H142.218V74.5866ZM128.79 73.4059H126.83V68.2469H128.79V73.4059ZM135.194 65.7829H133.283V61.7534H135.194V65.7829ZM141.746 58.391H128.716V61.4967H126.78V56.9023H139.786V54.3615H126.705V52.7444H141.746V58.391ZM142.218 62.5232H126.78V60.932H142.218V62.5232ZM153.336 53.6685C154.495 53.6685 155.521 53.8952 156.414 54.3485C157.308 54.8019 158.007 55.4351 158.511 56.2479C159.016 57.0607 159.268 57.9889 159.268 59.0327C159.268 60.0766 159.016 61.0048 158.511 61.8175C158.007 62.6303 157.308 63.2633 156.414 63.7169C155.521 64.1702 154.495 64.3969 153.336 64.3969C152.195 64.3969 151.169 64.1702 150.259 63.7169C149.349 63.2633 148.641 62.6303 148.137 61.8175C147.632 61.0048 147.38 60.0766 147.38 59.0327C147.38 57.9889 147.632 57.0607 148.137 56.2479C148.641 55.4351 149.349 54.8019 150.259 54.3485C151.169 53.8952 152.195 53.6685 153.336 53.6685ZM153.336 55.4395C152.559 55.4395 151.864 55.5891 151.252 55.8885C150.639 56.1881 150.16 56.6115 149.812 57.159C149.465 57.7065 149.291 58.3312 149.291 59.0327C149.291 59.7342 149.465 60.3545 149.812 60.8935C150.16 61.4325 150.639 61.8559 151.252 62.164C151.864 62.472 152.559 62.6259 153.336 62.6259C154.114 62.6259 154.809 62.472 155.421 62.164C156.034 61.8559 156.509 61.4325 156.848 60.8935C157.188 60.3545 157.357 59.7342 157.357 59.0327C157.357 58.3312 157.188 57.7065 156.848 57.159C156.509 56.6115 156.034 56.1881 155.421 55.8885C154.809 55.5891 154.114 55.4395 153.336 55.4395ZM164.208 74.8689H162.272V52H164.208V74.8689ZM146.238 68.1185C148.075 68.1185 149.742 68.1014 151.239 68.0673C152.737 68.0331 154.329 67.9604 156.017 67.8491C157.705 67.7378 159.301 67.571 160.807 67.3487L160.956 68.8373C159.401 69.1282 157.788 69.3463 156.116 69.4918C154.445 69.6372 152.877 69.7314 151.413 69.7741C149.949 69.8168 148.315 69.8382 146.511 69.8382L146.238 68.1185ZM192.7 74.8689H190.739V52H192.7V74.8689ZM191.335 62.857H185.899V61.1887H191.335V62.857ZM181.68 59.4434C181.68 61.0004 181.415 62.5105 180.885 63.9733C180.356 65.4364 179.628 66.7284 178.701 67.8491C177.775 68.9698 176.732 69.8212 175.574 70.4029L174.457 68.8373C175.532 68.3069 176.501 67.5539 177.361 66.5786C178.221 65.6033 178.896 64.4911 179.384 63.242C179.872 61.993 180.116 60.7266 180.116 59.4434V57.3901H181.68V59.4434ZM182.027 59.4434C182.027 60.6754 182.279 61.8859 182.784 63.0751C183.289 64.2644 183.98 65.3251 184.857 66.2577C185.733 67.1903 186.71 67.9133 187.785 68.4264L186.668 69.9922C185.494 69.4276 184.435 68.6104 183.491 67.5412C182.548 66.4717 181.812 65.2312 181.283 63.8194C180.753 62.4078 180.488 60.9491 180.488 59.4434V57.3901H182.027V59.4434ZM187.041 57.6211H175.053V55.9785H187.041V57.6211ZM182.052 56.9023H180.116V52.4365H182.052V56.9023ZM206.4 52.5134C208.005 52.5134 209.39 52.6847 210.557 53.0268C211.723 53.3689 212.621 53.8652 213.25 54.5154C213.879 55.1657 214.193 55.9441 214.193 56.8511C214.193 57.7407 213.879 58.5022 213.25 59.1354C212.621 59.7684 211.723 60.2562 210.557 60.5983C209.39 60.9406 208.005 61.1116 206.4 61.1116C204.811 61.1116 203.429 60.9406 202.255 60.5983C201.08 60.2562 200.174 59.7684 199.537 59.1354C198.9 58.5022 198.581 57.7407 198.581 56.8511C198.581 55.9441 198.9 55.1657 199.537 54.5154C200.174 53.8652 201.08 53.3689 202.255 53.0268C203.429 52.6847 204.811 52.5134 206.4 52.5134ZM206.4 54.1304C205.225 54.1304 204.199 54.2373 203.322 54.4513C202.445 54.665 201.771 54.9773 201.299 55.388C200.828 55.7987 200.592 56.2864 200.592 56.8511C200.592 57.3986 200.824 57.8691 201.287 58.2626C201.75 58.6562 202.42 58.96 203.297 59.1738C204.174 59.3877 205.208 59.5032 206.4 59.5202C207.575 59.5032 208.6 59.3877 209.477 59.1738C210.354 58.96 211.029 58.6562 211.5 58.2626C211.972 57.8691 212.208 57.3986 212.208 56.8511C212.208 56.2864 211.972 55.7987 211.5 55.388C211.029 54.9773 210.354 54.665 209.477 54.4513C208.6 54.2373 207.575 54.1304 206.4 54.1304ZM213.994 74.5095H198.805V67.0149H213.994V74.5095ZM200.741 72.8668H212.083V68.6319H200.741V72.8668ZM216.452 64.7563H196.348V63.0881H216.452V64.7563ZM238.466 67.1947H218.263V65.552H238.466V67.1947ZM229.259 74.8174H227.347V66.2706H229.259V74.8174ZM222.78 56.1066H233.899V52.9497H235.861V62.7799H220.844V52.9497H222.78V56.1066ZM233.899 61.1373V57.7493H222.78V61.1373H233.899ZM258.521 74.8689H256.585V52H258.521V74.8689ZM256.907 62.2924H251.919V60.6241H256.907V62.2924ZM242.932 67.6822C245.15 67.6822 246.99 67.6351 248.456 67.5412C249.92 67.447 251.396 67.263 252.887 66.9892L253.109 68.6575C251.555 68.9142 250.019 69.0938 248.505 69.1965C246.99 69.2992 245.133 69.3505 242.932 69.3505H241.247V67.6822H242.932ZM251.546 55.773H243.206V68.2469H241.247V54.1048H251.546V55.773ZM250.578 62.164H242.685V60.5214H250.578V62.164ZM288.699 62.472H268.522V60.8293H288.699V62.472ZM276.339 54.5667H270.409V52.924H276.339V54.5667ZM277.606 53.8481C277.589 54.9261 277.515 56.0724 277.381 57.2873C277.25 58.5022 276.985 59.8882 276.587 61.4454L274.676 61.1887C274.975 60.0251 275.197 58.9515 275.348 57.9676C275.496 56.9836 275.587 56.1837 275.619 55.5678C275.653 54.9517 275.678 54.2673 275.695 53.5145V52.924H277.606V53.5145V53.8481ZM285.101 54.5667H279.095V52.924H285.101V54.5667ZM286.169 53.8481C286.169 54.5838 286.156 55.294 286.13 55.9785C286.107 56.6629 286.029 57.4884 285.895 58.4552C285.764 59.4219 285.556 60.4528 285.275 61.5479L283.388 61.2656C283.652 60.1705 283.851 59.1611 283.985 58.237C284.116 57.313 284.195 56.5517 284.22 55.9526C284.245 55.3538 284.264 54.6523 284.281 53.8481V52.924H286.169V53.8481ZM286.217 66.4759H272.988V73.3802H271.027V64.9103H286.217V66.4759ZM286.368 74.5095H271.027V72.9181H286.368V74.5095ZM285.647 70.4029H272.194V68.8886H285.647V70.4029ZM307.935 74.8174H305.974V52H307.935V74.8174ZM311.285 63.1137H307.289V61.4196H311.285V63.1137ZM297.163 54.4898C297.163 56.4233 296.998 58.2626 296.667 60.008C296.335 61.7534 295.79 63.4473 295.028 65.0899C294.268 66.7326 293.24 68.2554 291.951 69.6586L290.388 68.5035C291.578 67.2374 292.541 65.8685 293.279 64.3969C294.016 62.9253 294.545 61.3898 294.867 59.7899C295.189 58.1899 295.352 56.5002 295.352 54.7207V54.4898H297.163ZM296.047 56.1837H291.082V54.4898H296.047V56.1837ZM303.218 54.4898C303.218 56.5602 303.087 58.5364 302.822 60.4187C302.557 62.3009 302.062 64.1702 301.333 66.0267C300.605 67.8833 299.594 69.5986 298.304 71.173L296.716 70.0435C297.923 68.6233 298.876 67.0663 299.571 65.3722C300.266 63.6783 300.744 61.95 301.009 60.1876C301.274 58.4252 301.407 56.5858 301.407 54.6694V54.4898H303.218ZM302.176 56.1837H297.858V54.4898H302.176V56.1837ZM319.948 59.0071C319.948 60.5641 319.658 62.1084 319.077 63.6398C318.499 65.1712 317.726 66.5359 316.758 67.7335C315.79 68.9313 314.727 69.8297 313.569 70.4285L312.402 68.8373C313.444 68.3069 314.42 67.5153 315.331 66.4632C316.241 65.4108 316.968 64.2259 317.514 62.9083C318.061 61.5909 318.334 60.2903 318.334 59.0071V55.234H319.948V59.0071ZM320.295 59.0071C320.295 60.2561 320.564 61.5052 321.1 62.7543C321.638 64.0034 322.367 65.1114 323.286 66.0781C324.203 67.0449 325.2 67.7764 326.276 68.2725L325.184 69.8639C323.993 69.2992 322.905 68.4608 321.92 67.3487C320.935 66.2363 320.158 64.953 319.588 63.4985C319.016 62.0442 318.73 60.547 318.73 59.0071V55.234H320.295V59.0071ZM325.556 56.0297H313.122V54.3615H325.556V56.0297ZM330.595 74.8174H328.634V52H330.595V74.8174ZM336.03 78H334.193L335.557 71.0188H337.965L336.03 78ZM353.378 56.9538C353.378 58.1687 353.174 59.3279 352.77 60.4316C352.363 61.5352 351.785 62.5105 351.031 63.3575C350.279 64.2044 349.373 64.8588 348.314 65.321L347.346 63.8067C348.273 63.4131 349.076 62.8612 349.754 62.1511C350.432 61.441 350.953 60.6368 351.317 59.7386C351.681 58.8402 351.863 57.912 351.863 56.9538V56.1581H353.378V56.9538ZM353.7 56.9538C353.7 57.8434 353.886 58.7118 354.259 59.5588C354.632 60.4057 355.161 61.1629 355.847 61.8302C356.534 62.4976 357.332 63.0024 358.243 63.3445L357.298 64.9103C356.239 64.4655 355.331 63.8408 354.568 63.0366C353.808 62.2324 353.23 61.3042 352.831 60.2518C352.435 59.1996 352.236 58.1001 352.236 56.9538V56.1581H353.7V56.9538ZM357.696 56.6715H347.793V55.0288H357.696V56.6715ZM353.7 55.7218H351.863V52.2825H353.7V55.7218ZM365.912 65.9883H364.05V52.0258H365.912V65.9883ZM364.645 59.8028H360.401V58.1343H364.645V59.8028ZM361.172 65.8856H359.285V52.4365H361.172V65.8856ZM365.912 74.8174H364.001V68.863H351.044V67.2203H365.912V74.8174ZM389.315 71.8916H369.112V70.1974H389.315V71.8916ZM380.109 70.6852H378.196V64.2173H380.109V70.6852ZM386.81 64.628H371.495V53.9252H386.81V64.628ZM373.407 63.011H384.923V55.542H373.407V63.011ZM394.454 67.5026H392.367L392.194 54.156H394.627L394.454 67.5026ZM393.412 72.8925C393.13 72.8925 392.865 72.8156 392.617 72.6614C392.367 72.5074 392.175 72.3022 392.033 72.0455C391.893 71.7888 391.823 71.5151 391.823 71.2242C391.823 70.9333 391.893 70.6596 392.033 70.4029C392.175 70.1462 392.367 69.9451 392.617 69.7997C392.865 69.6543 393.13 69.5816 393.412 69.5816C393.691 69.5816 393.956 69.6543 394.206 69.7997C394.454 69.9451 394.648 70.1462 394.788 70.4029C394.928 70.6596 395 70.9333 395 71.2242C395 71.5151 394.928 71.7888 394.788 72.0455C394.648 72.3022 394.454 72.5074 394.206 72.6614C393.956 72.8156 393.691 72.8925 393.412 72.8925Z" stroke="#2C2C2C" stroke-width="0.6" mask="url(#path-5-outside-1_4565_21510)"/>
<path d="M544.333 49.1155L535.039 80.8839H534.996L526.122 67.4883L512.845 58.5363V58.4868L544.279 49.0576L544.333 49.1155Z" stroke="#FFC648" stroke-width="3" stroke-linecap="round"/>
<path d="M526.54 67.1671L534.061 59.5781" stroke="#FFC648" stroke-width="3" stroke-linecap="round"/>
</g>
<rect x="24.5" y="24.5" width="551" height="81" rx="13.5" stroke="#FFC648" shape-rendering="crispEdges"/>
</g>
<defs>
<filter id="filter0_d_4565_21510" x="0" y="0" width="600" height="130" filterUnits="userSpaceOnUse" color-interpolation-filters="sRGB">
<feFlood flood-opacity="0" result="BackgroundImageFix"/>
<feColorMatrix in="SourceAlpha" type="matrix" values="0 0 0 0 0 0 0 0 0 0 0 0 0 0 0 0 0 0 127 0" result="hardAlpha"/>
<feOffset/>
<feGaussianBlur stdDeviation="12"/>
<feComposite in2="hardAlpha" operator="out"/>
<feColorMatrix type="matrix" values="0 0 0 0 0.960784 0 0 0 0 0.733333 0 0 0 0 0.501961 0 0 0 1 0"/>
<feBlend mode="normal" in2="BackgroundImageFix" result="effect1_dropShadow_4565_21510"/>
<feBlend mode="normal" in="SourceGraphic" in2="effect1_dropShadow_4565_21510" result="shape"/>
</filter>
<clipPath id="clip0_4565_21510">
<rect x="24" y="24" width="552" height="82" rx="14" fill="white"/>
</clipPath>
</defs>
</svg>
