<svg width="891" height="64" viewBox="0 0 891 64" fill="none" xmlns="http://www.w3.org/2000/svg">
<g opacity="0.95">
<rect x="1" y="1" width="889" height="62" rx="7" fill="white"/>
<rect x="1" y="1" width="889" height="62" rx="7" stroke="#F5BB80" stroke-width="2"/>
<g clip-path="url(#clip0_4553_57388)">
<rect x="20" y="12" width="40" height="40" rx="20" fill="#F9F7F6"/>
<ellipse cx="39.9998" cy="27.7141" rx="7.14286" ry="7.14286" fill="#B5BDC3"/>
<ellipse cx="40.0001" cy="49.1429" rx="14.2857" ry="11.4286" fill="#B5BDC3"/>
</g>
<rect x="19.8551" y="11.8551" width="40.2899" height="40.2899" rx="20.1449" stroke="#D2C5B6" stroke-width="0.289855"/>
<path d="M125.905 23.0427C125.935 22.9506 126.065 22.9506 126.095 23.0427L128.054 29.0725C128.068 29.1137 128.106 29.1416 128.149 29.1416H134.49C134.586 29.1416 134.627 29.2656 134.548 29.3225L129.419 33.0491C129.384 33.0746 129.369 33.1197 129.383 33.1609L131.342 39.1907C131.372 39.2828 131.266 39.3594 131.188 39.3025L126.059 35.5759C126.024 35.5504 125.976 35.5504 125.941 35.5759L120.812 39.3025C120.734 39.3594 120.628 39.2828 120.658 39.1907L122.617 33.1609C122.631 33.1197 122.616 33.0746 122.581 33.0491L117.452 29.3225C117.373 29.2656 117.414 29.1416 117.51 29.1416H123.851C123.894 29.1416 123.932 29.1137 123.946 29.0725L125.905 23.0427Z" fill="#F5BB80" stroke="#F5BB80" stroke-width="1.5" stroke-linecap="round"/>
<path d="M149.905 23.0427C149.935 22.9506 150.065 22.9506 150.095 23.0427L152.054 29.0725C152.068 29.1137 152.106 29.1416 152.149 29.1416H158.49C158.586 29.1416 158.627 29.2656 158.548 29.3225L153.419 33.0491C153.384 33.0746 153.369 33.1197 153.383 33.1609L155.342 39.1907C155.372 39.2828 155.266 39.3594 155.188 39.3025L150.059 35.5759C150.024 35.5504 149.976 35.5504 149.941 35.5759L144.812 39.3025C144.734 39.3594 144.628 39.2828 144.658 39.1907L146.617 33.1609C146.631 33.1197 146.616 33.0746 146.581 33.0491L141.452 29.3225C141.373 29.2656 141.414 29.1416 141.51 29.1416H147.851C147.894 29.1416 147.932 29.1137 147.946 29.0725L149.905 23.0427Z" fill="#F5BB80" stroke="#F5BB80" stroke-width="1.5" stroke-linecap="round"/>
<path d="M173.905 23.0427C173.935 22.9506 174.065 22.9506 174.095 23.0427L176.054 29.0725C176.068 29.1137 176.106 29.1416 176.149 29.1416H182.49C182.586 29.1416 182.627 29.2656 182.548 29.3225L177.419 33.0491C177.384 33.0746 177.369 33.1197 177.383 33.1609L179.342 39.1907C179.372 39.2828 179.266 39.3594 179.188 39.3025L174.059 35.5759C174.024 35.5504 173.976 35.5504 173.941 35.5759L168.812 39.3025C168.734 39.3594 168.628 39.2828 168.658 39.1907L170.617 33.1609C170.631 33.1197 170.616 33.0746 170.581 33.0491L165.452 29.3225C165.373 29.2656 165.414 29.1416 165.51 29.1416H171.851C171.894 29.1416 171.932 29.1137 171.946 29.0725L173.905 23.0427Z" fill="#F5BB80" stroke="#F5BB80" stroke-width="1.5" stroke-linecap="round"/>
<path d="M197.905 23.0427C197.935 22.9506 198.065 22.9506 198.095 23.0427L200.054 29.0725C200.068 29.1137 200.106 29.1416 200.149 29.1416H206.49C206.586 29.1416 206.627 29.2656 206.548 29.3225L201.419 33.0491C201.384 33.0746 201.369 33.1197 201.383 33.1609L203.342 39.1907C203.372 39.2828 203.266 39.3594 203.188 39.3025L198.059 35.5759C198.024 35.5504 197.976 35.5504 197.941 35.5759L192.812 39.3025C192.734 39.3594 192.628 39.2828 192.658 39.1907L194.617 33.1609C194.631 33.1197 194.616 33.0746 194.581 33.0491L189.452 29.3225C189.373 29.2656 189.414 29.1416 189.51 29.1416H195.851C195.894 29.1416 195.932 29.1137 195.946 29.0725L197.905 23.0427Z" fill="#F5BB80" stroke="#F5BB80" stroke-width="1.5" stroke-linecap="round"/>
<path d="M221.905 23.0427C221.935 22.9506 222.065 22.9506 222.095 23.0427L224.054 29.0725C224.068 29.1137 224.106 29.1416 224.149 29.1416H230.49C230.586 29.1416 230.627 29.2656 230.548 29.3225L225.419 33.0491C225.384 33.0746 225.369 33.1197 225.383 33.1609L227.342 39.1907C227.372 39.2828 227.266 39.3594 227.188 39.3025L222.059 35.5759C222.024 35.5504 221.976 35.5504 221.941 35.5759L216.812 39.3025C216.734 39.3594 216.628 39.2828 216.658 39.1907L218.617 33.1609C218.631 33.1197 218.616 33.0746 218.581 33.0491L213.452 29.3225C213.373 29.2656 213.414 29.1416 213.51 29.1416H219.851C219.894 29.1416 219.932 29.1137 219.946 29.0725L221.905 23.0427Z" fill="#DADADA" stroke="#DADADA" stroke-width="1.5" stroke-linecap="round"/>
<path d="M264.855 27.8203C264.855 29.2917 264.654 30.6816 264.25 31.9902C263.853 33.2923 263.27 34.4382 262.502 35.4277C261.734 36.4173 260.809 37.1693 259.729 37.6836L258.4 35.8672C259.357 35.444 260.188 34.8223 260.891 34.002C261.594 33.1751 262.131 32.2279 262.502 31.1602C262.88 30.0859 263.068 28.9727 263.068 27.8203V24.998H264.855V27.8203ZM265.256 27.8203C265.256 28.9141 265.438 29.972 265.803 30.9941C266.167 32.0163 266.695 32.9277 267.385 33.7285C268.081 34.5293 268.895 35.1315 269.826 35.5352L268.537 37.2734C267.495 36.7852 266.59 36.0658 265.822 35.1152C265.054 34.1582 264.468 33.0547 264.064 31.8047C263.661 30.5547 263.459 29.2266 263.459 27.8203V24.998H265.256V27.8203ZM273.273 41.2676H271.076V23.582H273.273V41.2676ZM291.037 41.2188H288.986V23.582H291.037V41.2188ZM289.494 32.2441H286.359V30.4961H289.494V32.2441ZM286.984 40.3496H285.001V23.9141H286.984V40.3496ZM277.599 35.2812C278.934 35.2812 280.07 35.252 281.007 35.1934C281.945 35.1348 282.902 35.0143 283.878 34.832L284.044 36.6094C283.048 36.7982 282.069 36.9284 281.105 37C280.148 37.0651 278.979 37.1009 277.599 37.1074H276.398V35.2812H277.599ZM282.99 27.4297H278.576V36.1602H276.398V25.6719H282.99V27.4297ZM302.101 36.8633H293.731V25.291H302.101V36.8633ZM295.86 35.1348H299.942V27H295.86V35.1348ZM306.944 41.2188H304.776V23.582H306.944V41.2188ZM309.669 32.1953H306.456V30.3691H309.669V32.1953ZM324.21 41.2676H322.042V23.582H324.21V41.2676ZM326.934 32.0684H323.721V30.2812H326.934V32.0684ZM312.559 35.1348C314.193 35.1413 315.629 35.1022 316.866 35.0176C318.109 34.9329 319.363 34.7767 320.626 34.5488L320.87 36.3848C319.594 36.6126 318.327 36.7624 317.071 36.834C315.821 36.9056 314.317 36.9382 312.559 36.9316H311.104V35.1348H312.559ZM319.366 27.0195H313.272V36.0137H311.104V25.252H319.366V27.0195ZM334.189 25.3594H336.045L335.039 30.8379H332.548L334.189 25.3594ZM347.782 28.0352H337.382V26.2871H347.782V28.0352ZM342.577 29.1777C343.378 29.1777 344.097 29.3568 344.735 29.7148C345.373 30.0729 345.875 30.5677 346.239 31.1992C346.604 31.8307 346.786 32.5436 346.786 33.3379C346.786 34.1191 346.601 34.8255 346.23 35.457C345.865 36.0885 345.364 36.5866 344.726 36.9512C344.088 37.3092 343.372 37.4883 342.577 37.4883C341.79 37.4883 341.073 37.3092 340.429 36.9512C339.784 36.5866 339.276 36.0885 338.905 35.457C338.534 34.8255 338.349 34.1191 338.349 33.3379C338.349 32.5436 338.534 31.8307 338.905 31.1992C339.276 30.5677 339.781 30.0729 340.419 29.7148C341.064 29.3568 341.783 29.1777 342.577 29.1777ZM342.577 31.0234C342.167 31.0234 341.793 31.1211 341.454 31.3164C341.116 31.5117 340.852 31.7852 340.663 32.1367C340.481 32.4818 340.39 32.8822 340.39 33.3379C340.39 33.7936 340.481 34.2005 340.663 34.5586C340.852 34.9102 341.116 35.1803 341.454 35.3691C341.793 35.5514 342.167 35.6426 342.577 35.6426C343 35.6426 343.378 35.5514 343.71 35.3691C344.042 35.1803 344.306 34.9102 344.501 34.5586C344.696 34.2005 344.794 33.7936 344.794 33.3379C344.794 32.8822 344.696 32.4818 344.501 32.1367C344.306 31.7852 344.042 31.5117 343.71 31.3164C343.378 31.1211 343 31.0234 342.577 31.0234ZM343.651 27.166H341.484V23.8359H343.651V27.166ZM352.148 41.2188H349.999V23.582H352.148V41.2188ZM351.708 32.4883H347.421V30.7109H351.708V32.4883ZM360.546 32.791H358.368V29.5293H360.546V32.791ZM366.903 32.791H364.735V29.5293H366.903V32.791ZM370.702 33.8262H354.628V32.0684H370.702V33.8262ZM362.645 34.8809C363.921 34.8809 365.015 35.0013 365.926 35.2422C366.844 35.4831 367.544 35.8411 368.026 36.3164C368.514 36.7852 368.758 37.3581 368.758 38.0352C368.758 38.7122 368.514 39.2852 368.026 39.7539C367.544 40.2227 366.844 40.5807 365.926 40.8281C365.015 41.0755 363.921 41.1992 362.645 41.1992C361.363 41.1992 360.259 41.0755 359.335 40.8281C358.417 40.5807 357.714 40.2227 357.225 39.7539C356.737 39.2852 356.493 38.7122 356.493 38.0352C356.493 37.3581 356.737 36.7852 357.225 36.3164C357.714 35.8411 358.417 35.4831 359.335 35.2422C360.259 35.0013 361.363 34.8809 362.645 34.8809ZM362.645 36.5215C361.786 36.5215 361.063 36.5801 360.477 36.6973C359.898 36.8079 359.458 36.9772 359.159 37.2051C358.859 37.4329 358.71 37.7096 358.71 38.0352C358.71 38.3607 358.859 38.6374 359.159 38.8652C359.458 39.0931 359.901 39.2689 360.487 39.3926C361.073 39.5098 361.792 39.5684 362.645 39.5684C363.485 39.5684 364.201 39.5098 364.794 39.3926C365.386 39.2689 365.832 39.0931 366.131 38.8652C366.431 38.6374 366.581 38.3607 366.581 38.0352C366.581 37.7096 366.431 37.4329 366.131 37.2051C365.832 36.9772 365.389 36.8079 364.803 36.6973C364.217 36.5801 363.498 36.5215 362.645 36.5215ZM362.665 23.8652C363.954 23.8652 365.074 24.002 366.024 24.2754C366.981 24.5423 367.717 24.9264 368.231 25.4277C368.745 25.929 369.003 26.528 369.003 27.2246C369.003 27.9082 368.745 28.5007 368.231 29.002C367.717 29.4967 366.984 29.8776 366.034 30.1445C365.083 30.4049 363.96 30.5352 362.665 30.5352C361.363 30.5352 360.233 30.4049 359.276 30.1445C358.319 29.8776 357.58 29.4967 357.059 29.002C356.545 28.5007 356.288 27.9082 356.288 27.2246C356.288 26.528 356.545 25.929 357.059 25.4277C357.58 24.9264 358.319 24.5423 359.276 24.2754C360.233 24.002 361.363 23.8652 362.665 23.8652ZM362.665 25.5449C361.786 25.5449 361.037 25.6133 360.419 25.75C359.807 25.8802 359.341 26.069 359.022 26.3164C358.703 26.5638 358.544 26.8665 358.544 27.2246C358.544 27.5827 358.703 27.8854 359.022 28.1328C359.341 28.3737 359.807 28.5592 360.419 28.6895C361.037 28.8197 361.786 28.8848 362.665 28.8848C363.531 28.8848 364.27 28.8197 364.881 28.6895C365.493 28.5592 365.962 28.3737 366.288 28.1328C366.613 27.8854 366.776 27.5827 366.776 27.2246C366.776 26.8665 366.613 26.5638 366.288 26.3164C365.962 26.069 365.493 25.8802 364.881 25.75C364.27 25.6133 363.531 25.5449 362.665 25.5449ZM382.391 32.6543H373.192V30.9062H382.391V32.6543ZM378.817 36.1797H376.649V32.3027H378.817V36.1797ZM382.303 26.9219H375.34V31.4922H373.192V25.1934H382.303V26.9219ZM386.58 41.2676H384.432V23.582H386.58V41.2676ZM371.961 35.8574C374.09 35.8639 376.105 35.8379 378.006 35.7793C379.907 35.7207 381.694 35.6003 383.367 35.418L383.533 37.0098C382.329 37.1921 381.082 37.3288 379.793 37.4199C378.511 37.5111 377.283 37.5697 376.111 37.5957C374.946 37.6217 373.654 37.6348 372.235 37.6348L371.961 35.8574ZM403.455 30.291H391.209V28.582H403.455V30.291ZM405.271 34.0605H389.138V32.3418H405.271V34.0605ZM393.377 29.4414H391.209V24.2266H393.377V29.4414ZM403.562 40.8184H391.062V39.0605H403.562V40.8184ZM393.25 39.5586H391.062V35.6328H393.25V39.5586ZM417.067 27.8203C417.067 29.2396 416.875 30.5938 416.491 31.8828C416.107 33.1654 415.547 34.3014 414.811 35.291C414.076 36.2741 413.193 37.0293 412.165 37.5566L410.817 35.7988C411.748 35.3626 412.549 34.7279 413.219 33.8945C413.89 33.0547 414.404 32.1107 414.762 31.0625C415.12 30.0078 415.3 28.9271 415.3 27.8203V24.998H417.067V27.8203ZM417.458 27.8203C417.458 28.888 417.627 29.9264 417.966 30.9355C418.311 31.9382 418.809 32.8398 419.46 33.6406C420.117 34.4349 420.882 35.0501 421.755 35.4863L420.446 37.2148C419.45 36.707 418.594 35.9779 417.878 35.0273C417.168 34.0703 416.631 32.9733 416.266 31.7363C415.908 30.4993 415.729 29.194 415.729 27.8203V24.998H417.458V27.8203ZM424.987 41.2188H422.819V23.582H424.987V41.2188ZM427.712 32.3516H424.499V30.5059H427.712V32.3516ZM434.283 26.1895C434.283 27.3548 434.095 28.4421 433.717 29.4512C433.339 30.4603 432.786 31.3392 432.057 32.0879C431.334 32.8301 430.449 33.39 429.401 33.7676L428.229 32.0586C429.153 31.7331 429.934 31.2741 430.572 30.6816C431.217 30.0827 431.699 29.3991 432.018 28.6309C432.343 27.8561 432.506 27.0423 432.506 26.1895V24.5098H434.283V26.1895ZM434.674 26.3945C434.674 27.1432 434.834 27.8594 435.153 28.543C435.478 29.2266 435.95 29.832 436.569 30.3594C437.194 30.8867 437.946 31.2936 438.824 31.5801L437.662 33.2695C436.666 32.931 435.81 32.4232 435.094 31.7461C434.378 31.0625 433.834 30.2617 433.463 29.3438C433.099 28.4258 432.916 27.4427 432.916 26.3945V24.5098H434.674V26.3945ZM442.35 34.1387H440.182V23.582H442.35V34.1387ZM444.821 29.6758H441.735V27.8691H444.821V29.6758ZM436.608 34.5293C437.819 34.5293 438.867 34.6595 439.752 34.9199C440.644 35.1803 441.328 35.5612 441.803 36.0625C442.278 36.5573 442.516 37.1562 442.516 37.8594C442.516 38.5625 442.278 39.1647 441.803 39.666C441.328 40.1738 440.647 40.5579 439.762 40.8184C438.877 41.0788 437.825 41.209 436.608 41.209C435.39 41.209 434.329 41.0788 433.424 40.8184C432.526 40.5579 431.832 40.1738 431.344 39.666C430.862 39.1647 430.621 38.5625 430.621 37.8594C430.621 37.1562 430.862 36.5573 431.344 36.0625C431.832 35.5612 432.526 35.1803 433.424 34.9199C434.329 34.6595 435.39 34.5293 436.608 34.5293ZM436.608 36.2383C435.807 36.2383 435.12 36.3001 434.547 36.4238C433.981 36.5475 433.548 36.7331 433.248 36.9805C432.955 37.2214 432.809 37.5143 432.809 37.8594C432.809 38.2174 432.955 38.5202 433.248 38.7676C433.548 39.0085 433.977 39.1908 434.537 39.3145C435.104 39.4382 435.794 39.5033 436.608 39.5098C437.428 39.5033 438.118 39.4382 438.678 39.3145C439.238 39.1908 439.661 39.0085 439.947 38.7676C440.234 38.5202 440.377 38.2174 440.377 37.8594C440.377 37.5078 440.231 37.2116 439.938 36.9707C439.651 36.7298 439.225 36.5475 438.658 36.4238C438.092 36.3001 437.408 36.2383 436.608 36.2383ZM447.701 30.8477H445.845L446.851 25.3691H449.342L447.701 30.8477ZM459.224 27.1562H451.431V25.418H459.224V27.1562ZM456.05 36.4434H453.921V30.4668H456.05V36.4434ZM460.523 26.6582C460.516 27.498 460.506 28.2044 460.493 28.7773C460.48 29.3438 460.438 30.0404 460.366 30.8672C460.295 31.6875 460.181 32.5697 460.025 33.5137L457.876 33.3281C458.085 32.0195 458.215 30.8672 458.267 29.8711C458.325 28.8685 458.355 27.7975 458.355 26.6582V25.418H460.523V26.6582ZM464.497 41.2188H462.32V23.582H464.497V41.2188ZM467.046 32.5957H463.863V30.7695H467.046V32.5957ZM450.484 35.7891C452.684 35.7695 454.657 35.7272 456.402 35.6621C458.153 35.5905 459.816 35.457 461.392 35.2617L461.519 36.8828C459.878 37.1432 458.15 37.319 456.333 37.4102C454.523 37.5013 452.648 37.5404 450.708 37.5273L450.484 35.7891ZM474.672 30.8477H472.817L473.823 25.3691H476.313L474.672 30.8477ZM479.76 32.4492C481.648 32.4427 483.152 32.4069 484.271 32.3418C485.391 32.2767 486.504 32.1497 487.611 31.9609L487.855 33.6504C486.716 33.8652 485.564 34.0085 484.398 34.0801C483.239 34.1517 481.693 34.1875 479.76 34.1875H478.334V32.4492H479.76ZM486.605 26.6777H480.521V33.0645H478.334V24.9688H486.605V26.6777ZM486.244 30.3789H479.818V28.6504H486.244V30.3789ZM491.547 36.6387H489.379V23.5918H491.547V36.6387ZM494.017 30.6816H490.902V28.9043H494.017V30.6816ZM492.24 40.9062H480.238V39.1289H492.24V40.9062ZM482.396 40.1738H480.238V35.457H482.396V40.1738ZM499.837 24.4316C500.742 24.4316 501.553 24.6074 502.269 24.959C502.985 25.304 503.545 25.7891 503.949 26.4141C504.352 27.0391 504.554 27.752 504.554 28.5527C504.554 29.36 504.352 30.0827 503.949 30.7207C503.545 31.3522 502.985 31.847 502.269 32.2051C501.553 32.5566 500.742 32.7324 499.837 32.7324C498.939 32.7324 498.132 32.5566 497.415 32.2051C496.699 31.847 496.136 31.3522 495.726 30.7207C495.316 30.0827 495.111 29.36 495.111 28.5527C495.111 27.752 495.316 27.0391 495.726 26.4141C496.136 25.7891 496.699 25.304 497.415 24.959C498.132 24.6074 498.939 24.4316 499.837 24.4316ZM499.837 26.2285C499.342 26.222 498.897 26.3164 498.499 26.5117C498.102 26.707 497.79 26.9805 497.562 27.332C497.341 27.6836 497.23 28.0905 497.23 28.5527C497.23 29.0215 497.341 29.4316 497.562 29.7832C497.79 30.1348 498.102 30.4082 498.499 30.6035C498.897 30.7988 499.342 30.903 499.837 30.916C500.345 30.903 500.794 30.8021 501.185 30.6133C501.582 30.418 501.891 30.1445 502.113 29.793C502.341 29.4349 502.454 29.0215 502.454 28.5527C502.454 28.097 502.341 27.6901 502.113 27.332C501.891 26.974 501.582 26.7005 501.185 26.5117C500.794 26.3164 500.345 26.222 499.837 26.2285ZM508.812 33.1523H506.644V23.582H508.812V33.1523ZM511.283 29.1973H508.197V27.4102H511.283V29.1973ZM499.525 35.7695H506.644V33.9238H508.812V41.0137H497.367V33.9238H499.525V35.7695ZM506.644 39.2656V37.4492H499.525V39.2656H506.644ZM526.077 33.8848H523.909V23.582H526.077V33.8848ZM528.548 29.4707H525.462V27.6934H528.548V29.4707ZM514.895 27.0098H519.016V24.6172H521.184V32.9473H512.757V24.6172H514.895V27.0098ZM519.016 31.2383V28.709H514.895V31.2383H519.016ZM526.184 36.4727H516.868V40.5059H514.69V34.7441H526.184V36.4727ZM526.516 40.9941H514.69V39.2656H526.516V40.9941ZM543.723 30.291H531.477V28.582H543.723V30.291ZM545.539 34.0605H529.407V32.3418H545.539V34.0605ZM533.645 29.4414H531.477V24.2266H533.645V29.4414ZM543.83 40.8184H531.33V39.0605H543.83V40.8184ZM533.518 39.5586H531.33V35.6328H533.518V39.5586ZM557.335 27.8203C557.335 29.2396 557.143 30.5938 556.759 31.8828C556.375 33.1654 555.815 34.3014 555.08 35.291C554.344 36.2741 553.462 37.0293 552.433 37.5566L551.085 35.7988C552.016 35.3626 552.817 34.7279 553.488 33.8945C554.158 33.0547 554.673 32.1107 555.031 31.0625C555.389 30.0078 555.568 28.9271 555.568 27.8203V24.998H557.335V27.8203ZM557.726 27.8203C557.726 28.888 557.895 29.9264 558.234 30.9355C558.579 31.9382 559.077 32.8398 559.728 33.6406C560.386 34.4349 561.15 35.0501 562.023 35.4863L560.714 37.2148C559.718 36.707 558.862 35.9779 558.146 35.0273C557.436 34.0703 556.899 32.9733 556.535 31.7363C556.177 30.4993 555.997 29.194 555.997 27.8203V24.998H557.726V27.8203ZM565.255 41.2188H563.087V23.582H565.255V41.2188ZM567.98 32.3516H564.767V30.5059H567.98V32.3516ZM574.552 26.1895C574.552 27.3548 574.363 28.4421 573.985 29.4512C573.608 30.4603 573.054 31.3392 572.325 32.0879C571.603 32.8301 570.717 33.39 569.669 33.7676L568.497 32.0586C569.422 31.7331 570.203 31.2741 570.841 30.6816C571.485 30.0827 571.967 29.3991 572.286 28.6309C572.612 27.8561 572.774 27.0423 572.774 26.1895V24.5098H574.552V26.1895ZM574.942 26.3945C574.942 27.1432 575.102 27.8594 575.421 28.543C575.746 29.2266 576.218 29.832 576.837 30.3594C577.462 30.8867 578.214 31.2936 579.093 31.5801L577.931 33.2695C576.935 32.931 576.078 32.4232 575.362 31.7461C574.646 31.0625 574.103 30.2617 573.731 29.3438C573.367 28.4258 573.185 27.4427 573.185 26.3945V24.5098H574.942V26.3945ZM582.618 34.1387H580.45V23.582H582.618V34.1387ZM585.089 29.6758H582.003V27.8691H585.089V29.6758ZM576.876 34.5293C578.087 34.5293 579.135 34.6595 580.02 34.9199C580.912 35.1803 581.596 35.5612 582.071 36.0625C582.547 36.5573 582.784 37.1562 582.784 37.8594C582.784 38.5625 582.547 39.1647 582.071 39.666C581.596 40.1738 580.916 40.5579 580.03 40.8184C579.145 41.0788 578.093 41.209 576.876 41.209C575.658 41.209 574.597 41.0788 573.692 40.8184C572.794 40.5579 572.101 40.1738 571.612 39.666C571.131 39.1647 570.89 38.5625 570.89 37.8594C570.89 37.1562 571.131 36.5573 571.612 36.0625C572.101 35.5612 572.794 35.1803 573.692 34.9199C574.597 34.6595 575.658 34.5293 576.876 34.5293ZM576.876 36.2383C576.075 36.2383 575.388 36.3001 574.815 36.4238C574.249 36.5475 573.816 36.7331 573.517 36.9805C573.224 37.2214 573.077 37.5143 573.077 37.8594C573.077 38.2174 573.224 38.5202 573.517 38.7676C573.816 39.0085 574.246 39.1908 574.806 39.3145C575.372 39.4382 576.062 39.5033 576.876 39.5098C577.696 39.5033 578.386 39.4382 578.946 39.3145C579.506 39.1908 579.929 39.0085 580.216 38.7676C580.502 38.5202 580.645 38.2174 580.645 37.8594C580.645 37.5078 580.499 37.2116 580.206 36.9707C579.92 36.7298 579.493 36.5475 578.927 36.4238C578.36 36.3001 577.677 36.2383 576.876 36.2383ZM587.754 25.3594H589.61L588.604 30.8379H586.114L587.754 25.3594ZM605.605 41.2676H603.408V23.582H605.605V41.2676ZM596.094 24.8711C596.979 24.8711 597.77 25.1283 598.467 25.6426C599.163 26.1504 599.707 26.8763 600.098 27.8203C600.488 28.7578 600.684 29.8516 600.684 31.1016C600.684 32.3581 600.488 33.4583 600.098 34.4023C599.707 35.3398 599.163 36.0658 598.467 36.5801C597.77 37.0944 596.979 37.3516 596.094 37.3516C595.202 37.3516 594.408 37.0944 593.711 36.5801C593.014 36.0658 592.467 35.3398 592.07 34.4023C591.68 33.4583 591.484 32.3581 591.484 31.1016C591.484 29.8516 591.68 28.7578 592.07 27.8203C592.467 26.8763 593.014 26.1504 593.711 25.6426C594.408 25.1283 595.202 24.8711 596.094 24.8711ZM596.094 26.8242C595.599 26.8177 595.16 26.987 594.775 27.332C594.398 27.6706 594.105 28.1621 593.896 28.8066C593.688 29.4512 593.584 30.2161 593.584 31.1016C593.584 31.987 593.688 32.7552 593.896 33.4062C594.105 34.0508 594.398 34.5423 594.775 34.8809C595.16 35.2129 595.599 35.3789 596.094 35.3789C596.589 35.3789 597.025 35.2129 597.402 34.8809C597.78 34.5423 598.073 34.0508 598.281 33.4062C598.49 32.7552 598.594 31.987 598.594 31.1016C598.594 30.2161 598.49 29.4512 598.281 28.8066C598.073 28.1621 597.78 27.6706 597.402 27.332C597.031 26.987 596.595 26.8177 596.094 26.8242ZM621.415 25.8477C621.415 26.7982 621.135 27.6738 620.575 28.4746C620.015 29.2689 619.215 29.9329 618.173 30.4668C617.131 31.0007 615.917 31.3587 614.53 31.541L613.739 29.8027C614.905 29.6725 615.924 29.4089 616.796 29.0117C617.668 28.6146 618.336 28.1393 618.798 27.5859C619.26 27.0326 619.491 26.4531 619.491 25.8477V25.3789H621.415V25.8477ZM622.431 25.8477C622.431 26.4531 622.665 27.0326 623.134 27.5859C623.603 28.1393 624.276 28.6146 625.155 29.0117C626.034 29.4089 627.053 29.6725 628.212 29.8027L627.401 31.541C626.021 31.3587 624.807 31.0007 623.759 30.4668C622.717 29.9329 621.91 29.2689 621.337 28.4746C620.771 27.6803 620.487 26.8047 620.487 25.8477V25.3789H622.431V25.8477ZM627.567 26.1211H614.394V24.373H627.567V26.1211ZM627.196 40.9062H614.921V39.1289H627.196V40.9062ZM617.099 39.8125H614.921V35.8379H617.099V39.8125ZM629.032 34.6465H612.939V32.8887H629.032V34.6465ZM622.021 33.6309H619.882V30.2715H622.021V33.6309ZM645.516 41.2188H643.426V23.582H645.516V41.2188ZM644.149 32.2832H641.024V30.4961H644.149V32.2832ZM641.629 40.3887H639.569V23.8848H641.629V40.3887ZM635.223 28.0938C635.223 29.5911 635.086 30.9616 634.813 32.2051C634.54 33.4421 634.107 34.5391 633.514 35.4961C632.928 36.4531 632.167 37.2083 631.229 37.7617L629.891 36.0918C630.744 35.6165 631.444 34.9753 631.991 34.168C632.538 33.3607 632.935 32.446 633.182 31.4238C633.436 30.4017 633.563 29.2917 633.563 28.0938V26.3066H635.223V28.0938ZM635.672 28.0938C635.672 29.1875 635.799 30.2096 636.053 31.1602C636.314 32.1042 636.717 32.9505 637.264 33.6992C637.818 34.4479 638.514 35.0404 639.354 35.4766L638.094 37.1367C637.157 36.6289 636.382 35.9258 635.77 35.0273C635.165 34.1289 634.719 33.0938 634.432 31.9219C634.146 30.75 634.003 29.474 634.003 28.0938V26.3066H635.672V28.0938ZM638.563 27.2637H630.438V25.5059H638.563V27.2637ZM661.385 36.7949H659.217V23.6016H661.385V36.7949ZM663.856 30.9355H660.74V29.1484H663.856V30.9355ZM657.947 27.2832H647.469V25.5547H657.947V27.2832ZM652.713 28.0156C653.553 28.0156 654.298 28.1556 654.949 28.4355C655.607 28.7155 656.118 29.1126 656.483 29.627C656.847 30.1348 657.029 30.724 657.029 31.3945C657.029 32.0521 656.847 32.6315 656.483 33.1328C656.118 33.6341 655.607 34.0247 654.949 34.3047C654.298 34.5846 653.553 34.7246 652.713 34.7246C651.873 34.7246 651.121 34.5846 650.457 34.3047C649.8 34.0247 649.289 33.6341 648.924 33.1328C648.566 32.6315 648.387 32.0521 648.387 31.3945C648.387 30.724 648.566 30.1348 648.924 29.627C649.289 29.1126 649.8 28.7155 650.457 28.4355C651.121 28.1556 651.873 28.0156 652.713 28.0156ZM652.713 29.6953C652.277 29.6953 651.886 29.7604 651.541 29.8906C651.203 30.0208 650.942 30.2194 650.76 30.4863C650.578 30.7467 650.486 31.0495 650.486 31.3945C650.486 31.7396 650.578 32.0391 650.76 32.293C650.942 32.5404 651.203 32.7292 651.541 32.8594C651.886 32.9896 652.277 33.0547 652.713 33.0547C653.162 33.0547 653.556 32.9896 653.895 32.8594C654.233 32.7292 654.497 32.5404 654.686 32.293C654.874 32.0391 654.969 31.7396 654.969 31.3945C654.969 31.0495 654.874 30.7467 654.686 30.4863C654.497 30.2194 654.233 30.0208 653.895 29.8906C653.556 29.7604 653.162 29.6953 652.713 29.6953ZM653.807 26.4141H651.629V23.5918H653.807V26.4141ZM662.078 40.9062H650.076V39.1289H662.078V40.9062ZM652.234 39.8711H650.076V35.7598H652.234V39.8711ZM678.552 41.2676H676.384V23.582H678.552V41.2676ZM681.277 32.0684H678.064V30.2812H681.277V32.0684ZM666.902 35.1348C668.536 35.1413 669.972 35.1022 671.209 35.0176C672.452 34.9329 673.705 34.7767 674.968 34.5488L675.212 36.3848C673.936 36.6126 672.67 36.7624 671.414 36.834C670.164 36.9056 668.66 36.9382 666.902 36.9316H665.447V35.1348H666.902ZM673.709 27.0195H667.615V36.0137H665.447V25.252H673.709V27.0195ZM684.138 39.6562C683.864 39.6562 683.61 39.5879 683.376 39.4512C683.142 39.3079 682.956 39.1224 682.819 38.8945C682.689 38.6602 682.624 38.4062 682.624 38.1328C682.624 37.8659 682.689 37.6185 682.819 37.3906C682.956 37.1562 683.142 36.974 683.376 36.8438C683.61 36.707 683.864 36.6387 684.138 36.6387C684.398 36.6387 684.646 36.707 684.88 36.8438C685.114 36.974 685.3 37.1562 685.437 37.3906C685.573 37.6185 685.642 37.8659 685.642 38.1328C685.642 38.4062 685.573 38.6602 685.437 38.8945C685.3 39.1224 685.114 39.3079 684.88 39.4512C684.646 39.5879 684.398 39.6562 684.138 39.6562Z" fill="#434343"/>
</g>
<defs>
<clipPath id="clip0_4553_57388">
<rect x="20" y="12" width="40" height="40" rx="20" fill="white"/>
</clipPath>
</defs>
</svg>
