<svg width="891" height="64" viewBox="0 0 891 64" fill="none" xmlns="http://www.w3.org/2000/svg">
<g opacity="0.2">
<rect x="0.5" y="0.5" width="890" height="63" rx="7.5" fill="white"/>
<rect x="0.5" y="0.5" width="890" height="63" rx="7.5" stroke="#EAE5E2"/>
<g clip-path="url(#clip0_4553_57474)">
<rect x="20" y="12" width="40" height="40" rx="20" fill="#F9F7F6"/>
<ellipse cx="39.9998" cy="27.7141" rx="7.14286" ry="7.14286" fill="#B5BDC3"/>
<ellipse cx="40.0001" cy="49.1429" rx="14.2857" ry="11.4286" fill="#B5BDC3"/>
</g>
<rect x="19.8551" y="11.8551" width="40.2899" height="40.2899" rx="20.1449" stroke="#D2C5B6" stroke-width="0.289855"/>
<path d="M125.905 23.0427C125.935 22.9506 126.065 22.9506 126.095 23.0427L128.054 29.0725C128.068 29.1137 128.106 29.1416 128.149 29.1416H134.49C134.586 29.1416 134.627 29.2656 134.548 29.3225L129.419 33.0491C129.384 33.0746 129.369 33.1197 129.383 33.1609L131.342 39.1907C131.372 39.2828 131.266 39.3594 131.188 39.3025L126.059 35.5759C126.024 35.5504 125.976 35.5504 125.941 35.5759L120.812 39.3025C120.734 39.3594 120.628 39.2828 120.658 39.1907L122.617 33.1609C122.631 33.1197 122.616 33.0746 122.581 33.0491L117.452 29.3225C117.373 29.2656 117.414 29.1416 117.51 29.1416H123.851C123.894 29.1416 123.932 29.1137 123.946 29.0725L125.905 23.0427Z" fill="#F5BB80" stroke="#F5BB80" stroke-width="1.5" stroke-linecap="round"/>
<path d="M149.905 23.0427C149.935 22.9506 150.065 22.9506 150.095 23.0427L152.054 29.0725C152.068 29.1137 152.106 29.1416 152.149 29.1416H158.49C158.586 29.1416 158.627 29.2656 158.548 29.3225L153.419 33.0491C153.384 33.0746 153.369 33.1197 153.383 33.1609L155.342 39.1907C155.372 39.2828 155.266 39.3594 155.188 39.3025L150.059 35.5759C150.024 35.5504 149.976 35.5504 149.941 35.5759L144.812 39.3025C144.734 39.3594 144.628 39.2828 144.658 39.1907L146.617 33.1609C146.631 33.1197 146.616 33.0746 146.581 33.0491L141.452 29.3225C141.373 29.2656 141.414 29.1416 141.51 29.1416H147.851C147.894 29.1416 147.932 29.1137 147.946 29.0725L149.905 23.0427Z" fill="#F5BB80" stroke="#F5BB80" stroke-width="1.5" stroke-linecap="round"/>
<path d="M173.905 23.0427C173.935 22.9506 174.065 22.9506 174.095 23.0427L176.054 29.0725C176.068 29.1137 176.106 29.1416 176.149 29.1416H182.49C182.586 29.1416 182.627 29.2656 182.548 29.3225L177.419 33.0491C177.384 33.0746 177.369 33.1197 177.383 33.1609L179.342 39.1907C179.372 39.2828 179.266 39.3594 179.188 39.3025L174.059 35.5759C174.024 35.5504 173.976 35.5504 173.941 35.5759L168.812 39.3025C168.734 39.3594 168.628 39.2828 168.658 39.1907L170.617 33.1609C170.631 33.1197 170.616 33.0746 170.581 33.0491L165.452 29.3225C165.373 29.2656 165.414 29.1416 165.51 29.1416H171.851C171.894 29.1416 171.932 29.1137 171.946 29.0725L173.905 23.0427Z" fill="#F5BB80" stroke="#F5BB80" stroke-width="1.5" stroke-linecap="round"/>
<path d="M197.905 23.0427C197.935 22.9506 198.065 22.9506 198.095 23.0427L200.054 29.0725C200.068 29.1137 200.106 29.1416 200.149 29.1416H206.49C206.586 29.1416 206.627 29.2656 206.548 29.3225L201.419 33.0491C201.384 33.0746 201.369 33.1197 201.383 33.1609L203.342 39.1907C203.372 39.2828 203.266 39.3594 203.188 39.3025L198.059 35.5759C198.024 35.5504 197.976 35.5504 197.941 35.5759L192.812 39.3025C192.734 39.3594 192.628 39.2828 192.658 39.1907L194.617 33.1609C194.631 33.1197 194.616 33.0746 194.581 33.0491L189.452 29.3225C189.373 29.2656 189.414 29.1416 189.51 29.1416H195.851C195.894 29.1416 195.932 29.1137 195.946 29.0725L197.905 23.0427Z" fill="#F5BB80" stroke="#F5BB80" stroke-width="1.5" stroke-linecap="round"/>
<path d="M221.905 23.0427C221.935 22.9506 222.065 22.9506 222.095 23.0427L224.054 29.0725C224.068 29.1137 224.106 29.1416 224.149 29.1416H230.49C230.586 29.1416 230.627 29.2656 230.548 29.3225L225.419 33.0491C225.384 33.0746 225.369 33.1197 225.383 33.1609L227.342 39.1907C227.372 39.2828 227.266 39.3594 227.188 39.3025L222.059 35.5759C222.024 35.5504 221.976 35.5504 221.941 35.5759L216.812 39.3025C216.734 39.3594 216.628 39.2828 216.658 39.1907L218.617 33.1609C218.631 33.1197 218.616 33.0746 218.581 33.0491L213.452 29.3225C213.373 29.2656 213.414 29.1416 213.51 29.1416H219.851C219.894 29.1416 219.932 29.1137 219.946 29.0725L221.905 23.0427Z" fill="#F5BB80" stroke="#F5BB80" stroke-width="1.5" stroke-linecap="round"/>
<path d="M269.016 28.0352H258.615V26.2871H269.016V28.0352ZM263.811 29.1777C264.611 29.1777 265.331 29.3568 265.969 29.7148C266.607 30.0729 267.108 30.5677 267.473 31.1992C267.837 31.8307 268.02 32.5436 268.02 33.3379C268.02 34.1191 267.834 34.8255 267.463 35.457C267.098 36.0885 266.597 36.5866 265.959 36.9512C265.321 37.3092 264.605 37.4883 263.811 37.4883C263.023 37.4883 262.307 37.3092 261.662 36.9512C261.018 36.5866 260.51 36.0885 260.139 35.457C259.768 34.8255 259.582 34.1191 259.582 33.3379C259.582 32.5436 259.768 31.8307 260.139 31.1992C260.51 30.5677 261.014 30.0729 261.652 29.7148C262.297 29.3568 263.016 29.1777 263.811 29.1777ZM263.811 31.0234C263.4 31.0234 263.026 31.1211 262.688 31.3164C262.349 31.5117 262.085 31.7852 261.896 32.1367C261.714 32.4818 261.623 32.8822 261.623 33.3379C261.623 33.7936 261.714 34.2005 261.896 34.5586C262.085 34.9102 262.349 35.1803 262.688 35.3691C263.026 35.5514 263.4 35.6426 263.811 35.6426C264.234 35.6426 264.611 35.5514 264.943 35.3691C265.275 35.1803 265.539 34.9102 265.734 34.5586C265.93 34.2005 266.027 33.7936 266.027 33.3379C266.027 32.8822 265.93 32.4818 265.734 32.1367C265.539 31.7852 265.275 31.5117 264.943 31.3164C264.611 31.1211 264.234 31.0234 263.811 31.0234ZM264.885 27.166H262.717V23.8359H264.885V27.166ZM273.381 41.2188H271.232V23.582H273.381V41.2188ZM272.941 32.4883H268.654V30.7109H272.941V32.4883ZM281.779 32.791H279.601V29.5293H281.779V32.791ZM288.136 32.791H285.968V29.5293H288.136V32.791ZM291.935 33.8262H275.861V32.0684H291.935V33.8262ZM283.878 34.8809C285.154 34.8809 286.248 35.0013 287.16 35.2422C288.078 35.4831 288.778 35.8411 289.259 36.3164C289.748 36.7852 289.992 37.3581 289.992 38.0352C289.992 38.7122 289.748 39.2852 289.259 39.7539C288.778 40.2227 288.078 40.5807 287.16 40.8281C286.248 41.0755 285.154 41.1992 283.878 41.1992C282.596 41.1992 281.492 41.0755 280.568 40.8281C279.65 40.5807 278.947 40.2227 278.459 39.7539C277.97 39.2852 277.726 38.7122 277.726 38.0352C277.726 37.3581 277.97 36.7852 278.459 36.3164C278.947 35.8411 279.65 35.4831 280.568 35.2422C281.492 35.0013 282.596 34.8809 283.878 34.8809ZM283.878 36.5215C283.019 36.5215 282.296 36.5801 281.71 36.6973C281.131 36.8079 280.692 36.9772 280.392 37.2051C280.093 37.4329 279.943 37.7096 279.943 38.0352C279.943 38.3607 280.093 38.6374 280.392 38.8652C280.692 39.0931 281.134 39.2689 281.72 39.3926C282.306 39.5098 283.026 39.5684 283.878 39.5684C284.718 39.5684 285.434 39.5098 286.027 39.3926C286.619 39.2689 287.065 39.0931 287.365 38.8652C287.664 38.6374 287.814 38.3607 287.814 38.0352C287.814 37.7096 287.664 37.4329 287.365 37.2051C287.065 36.9772 286.623 36.8079 286.037 36.6973C285.451 36.5801 284.731 36.5215 283.878 36.5215ZM283.898 23.8652C285.187 23.8652 286.307 24.002 287.257 24.2754C288.214 24.5423 288.95 24.9264 289.464 25.4277C289.979 25.929 290.236 26.528 290.236 27.2246C290.236 27.9082 289.979 28.5007 289.464 29.002C288.95 29.4967 288.218 29.8776 287.267 30.1445C286.317 30.4049 285.194 30.5352 283.898 30.5352C282.596 30.5352 281.466 30.4049 280.509 30.1445C279.552 29.8776 278.813 29.4967 278.292 29.002C277.778 28.5007 277.521 27.9082 277.521 27.2246C277.521 26.528 277.778 25.929 278.292 25.4277C278.813 24.9264 279.552 24.5423 280.509 24.2754C281.466 24.002 282.596 23.8652 283.898 23.8652ZM283.898 25.5449C283.019 25.5449 282.27 25.6133 281.652 25.75C281.04 25.8802 280.574 26.069 280.255 26.3164C279.936 26.5638 279.777 26.8665 279.777 27.2246C279.777 27.5827 279.936 27.8854 280.255 28.1328C280.574 28.3737 281.04 28.5592 281.652 28.6895C282.27 28.8197 283.019 28.8848 283.898 28.8848C284.764 28.8848 285.503 28.8197 286.115 28.6895C286.727 28.5592 287.195 28.3737 287.521 28.1328C287.847 27.8854 288.009 27.5827 288.009 27.2246C288.009 26.8665 287.847 26.5638 287.521 26.3164C287.195 26.069 286.727 25.8802 286.115 25.75C285.503 25.6133 284.764 25.5449 283.898 25.5449ZM303.624 32.6543H294.425V30.9062H303.624V32.6543ZM300.05 36.1797H297.882V32.3027H300.05V36.1797ZM303.536 26.9219H296.573V31.4922H294.425V25.1934H303.536V26.9219ZM307.814 41.2676H305.665V23.582H307.814V41.2676ZM293.194 35.8574C295.323 35.8639 297.338 35.8379 299.239 35.7793C301.14 35.7207 302.927 35.6003 304.601 35.418L304.767 37.0098C303.562 37.1921 302.315 37.3288 301.026 37.4199C299.744 37.5111 298.517 37.5697 297.345 37.5957C296.179 37.6217 294.887 37.6348 293.468 37.6348L293.194 35.8574ZM324.688 30.291H312.442V28.582H324.688V30.291ZM326.504 34.0605H310.372V32.3418H326.504V34.0605ZM314.61 29.4414H312.442V24.2266H314.61V29.4414ZM324.795 40.8184H312.295V39.0605H324.795V40.8184ZM314.483 39.5586H312.295V35.6328H314.483V39.5586ZM338.3 27.8203C338.3 29.2396 338.108 30.5938 337.724 31.8828C337.34 33.1654 336.78 34.3014 336.045 35.291C335.309 36.2741 334.427 37.0293 333.398 37.5566L332.05 35.7988C332.981 35.3626 333.782 34.7279 334.453 33.8945C335.123 33.0547 335.638 32.1107 335.996 31.0625C336.354 30.0078 336.533 28.9271 336.533 27.8203V24.998H338.3V27.8203ZM338.691 27.8203C338.691 28.888 338.86 29.9264 339.199 30.9355C339.544 31.9382 340.042 32.8398 340.693 33.6406C341.351 34.4349 342.115 35.0501 342.988 35.4863L341.679 37.2148C340.683 36.707 339.827 35.9779 339.111 35.0273C338.401 34.0703 337.864 32.9733 337.5 31.7363C337.142 30.4993 336.963 29.194 336.963 27.8203V24.998H338.691V27.8203ZM346.22 41.2188H344.052V23.582H346.22V41.2188ZM348.945 32.3516H345.732V30.5059H348.945V32.3516ZM355.517 26.1895C355.517 27.3548 355.328 28.4421 354.95 29.4512C354.573 30.4603 354.019 31.3392 353.29 32.0879C352.567 32.8301 351.682 33.39 350.634 33.7676L349.462 32.0586C350.387 31.7331 351.168 31.2741 351.806 30.6816C352.45 30.0827 352.932 29.3991 353.251 28.6309C353.577 27.8561 353.739 27.0423 353.739 26.1895V24.5098H355.517V26.1895ZM355.907 26.3945C355.907 27.1432 356.067 27.8594 356.386 28.543C356.711 29.2266 357.183 29.832 357.802 30.3594C358.427 30.8867 359.179 31.2936 360.058 31.5801L358.896 33.2695C357.9 32.931 357.043 32.4232 356.327 31.7461C355.611 31.0625 355.067 30.2617 354.696 29.3438C354.332 28.4258 354.15 27.4427 354.15 26.3945V24.5098H355.907V26.3945ZM363.583 34.1387H361.415V23.582H363.583V34.1387ZM366.054 29.6758H362.968V27.8691H366.054V29.6758ZM357.841 34.5293C359.052 34.5293 360.1 34.6595 360.985 34.9199C361.877 35.1803 362.561 35.5612 363.036 36.0625C363.512 36.5573 363.749 37.1562 363.749 37.8594C363.749 38.5625 363.512 39.1647 363.036 39.666C362.561 40.1738 361.881 40.5579 360.995 40.8184C360.11 41.0788 359.058 41.209 357.841 41.209C356.623 41.209 355.562 41.0788 354.657 40.8184C353.759 40.5579 353.066 40.1738 352.577 39.666C352.095 39.1647 351.855 38.5625 351.855 37.8594C351.855 37.1562 352.095 36.5573 352.577 36.0625C353.066 35.5612 353.759 35.1803 354.657 34.9199C355.562 34.6595 356.623 34.5293 357.841 34.5293ZM357.841 36.2383C357.04 36.2383 356.353 36.3001 355.78 36.4238C355.214 36.5475 354.781 36.7331 354.482 36.9805C354.189 37.2214 354.042 37.5143 354.042 37.8594C354.042 38.2174 354.189 38.5202 354.482 38.7676C354.781 39.0085 355.211 39.1908 355.771 39.3145C356.337 39.4382 357.027 39.5033 357.841 39.5098C358.661 39.5033 359.351 39.4382 359.911 39.3145C360.471 39.1908 360.894 39.0085 361.181 38.7676C361.467 38.5202 361.61 38.2174 361.61 37.8594C361.61 37.5078 361.464 37.2116 361.171 36.9707C360.885 36.7298 360.458 36.5475 359.892 36.4238C359.325 36.3001 358.642 36.2383 357.841 36.2383ZM381.61 41.2676H379.413V23.582H381.61V41.2676ZM372.098 24.8711C372.984 24.8711 373.775 25.1283 374.471 25.6426C375.168 26.1504 375.712 26.8763 376.102 27.8203C376.493 28.7578 376.688 29.8516 376.688 31.1016C376.688 32.3581 376.493 33.4583 376.102 34.4023C375.712 35.3398 375.168 36.0658 374.471 36.5801C373.775 37.0944 372.984 37.3516 372.098 37.3516C371.206 37.3516 370.412 37.0944 369.715 36.5801C369.019 36.0658 368.472 35.3398 368.075 34.4023C367.684 33.4583 367.489 32.3581 367.489 31.1016C367.489 29.8516 367.684 28.7578 368.075 27.8203C368.472 26.8763 369.019 26.1504 369.715 25.6426C370.412 25.1283 371.206 24.8711 372.098 24.8711ZM372.098 26.8242C371.603 26.8177 371.164 26.987 370.78 27.332C370.402 27.6706 370.109 28.1621 369.901 28.8066C369.693 29.4512 369.589 30.2161 369.589 31.1016C369.589 31.987 369.693 32.7552 369.901 33.4062C370.109 34.0508 370.402 34.5423 370.78 34.8809C371.164 35.2129 371.603 35.3789 372.098 35.3789C372.593 35.3789 373.029 35.2129 373.407 34.8809C373.784 34.5423 374.077 34.0508 374.286 33.4062C374.494 32.7552 374.598 31.987 374.598 31.1016C374.598 30.2161 374.494 29.4512 374.286 28.8066C374.077 28.1621 373.784 27.6706 373.407 27.332C373.036 26.987 372.6 26.8177 372.098 26.8242ZM396.414 36.6973H389.48V25.4961H396.414V36.6973ZM391.511 34.9785H394.373V27.2051H391.511V34.9785ZM404.168 41.2188H402.078V23.582H404.168V41.2188ZM399.373 31.834H395.34V30.0859H399.373V31.834ZM400.535 40.3887H398.474V23.8848H400.535V40.3887ZM420.896 36.3555H418.718V23.6016H420.896V36.3555ZM421.394 40.9062H409.216V39.1289H421.394V40.9062ZM411.404 39.8223H409.216V35.0664H411.404V39.8223ZM411.277 24.7539C412.168 24.7539 412.976 24.9427 413.698 25.3203C414.428 25.6979 414.997 26.222 415.407 26.8926C415.824 27.5632 416.032 28.3184 416.032 29.1582C416.032 30.0176 415.824 30.7858 415.407 31.4629C414.997 32.1335 414.428 32.6576 413.698 33.0352C412.976 33.4128 412.168 33.6016 411.277 33.6016C410.385 33.6016 409.577 33.4128 408.855 33.0352C408.139 32.6576 407.569 32.1335 407.146 31.4629C406.729 30.7858 406.521 30.0176 406.521 29.1582C406.521 28.3184 406.729 27.5632 407.146 26.8926C407.569 26.222 408.139 25.6979 408.855 25.3203C409.577 24.9427 410.385 24.7539 411.277 24.7539ZM411.277 26.6582C410.775 26.6517 410.323 26.7526 409.919 26.9609C409.522 27.1628 409.21 27.4557 408.982 27.8398C408.754 28.224 408.64 28.6634 408.64 29.1582C408.64 29.666 408.754 30.1152 408.982 30.5059C409.21 30.89 409.522 31.1862 409.919 31.3945C410.323 31.5964 410.775 31.6973 411.277 31.6973C411.771 31.6973 412.217 31.5964 412.614 31.3945C413.012 31.1862 413.321 30.89 413.542 30.5059C413.77 30.1152 413.884 29.666 413.884 29.1582C413.884 28.6634 413.77 28.224 413.542 27.8398C413.321 27.4557 413.012 27.1628 412.614 26.9609C412.217 26.7526 411.771 26.6517 411.277 26.6582ZM438.161 36.3555H435.983V23.6016H438.161V36.3555ZM438.659 40.9062H426.481V39.1289H438.659V40.9062ZM428.669 39.8223H426.481V35.0664H428.669V39.8223ZM428.542 24.7539C429.434 24.7539 430.241 24.9427 430.964 25.3203C431.693 25.6979 432.262 26.222 432.673 26.8926C433.089 27.5632 433.298 28.3184 433.298 29.1582C433.298 30.0176 433.089 30.7858 432.673 31.4629C432.262 32.1335 431.693 32.6576 430.964 33.0352C430.241 33.4128 429.434 33.6016 428.542 33.6016C427.65 33.6016 426.842 33.4128 426.12 33.0352C425.404 32.6576 424.834 32.1335 424.411 31.4629C423.994 30.7858 423.786 30.0176 423.786 29.1582C423.786 28.3184 423.994 27.5632 424.411 26.8926C424.834 26.222 425.404 25.6979 426.12 25.3203C426.842 24.9427 427.65 24.7539 428.542 24.7539ZM428.542 26.6582C428.04 26.6517 427.588 26.7526 427.184 26.9609C426.787 27.1628 426.475 27.4557 426.247 27.8398C426.019 28.224 425.905 28.6634 425.905 29.1582C425.905 29.666 426.019 30.1152 426.247 30.5059C426.475 30.89 426.787 31.1862 427.184 31.3945C427.588 31.5964 428.04 31.6973 428.542 31.6973C429.037 31.6973 429.482 31.5964 429.88 31.3945C430.277 31.1862 430.586 30.89 430.807 30.5059C431.035 30.1152 431.149 29.666 431.149 29.1582C431.149 28.6634 431.035 28.224 430.807 27.8398C430.586 27.4557 430.277 27.1628 429.88 26.9609C429.482 26.7526 429.037 26.6517 428.542 26.6582ZM456.842 33.6406H440.739V31.8926H456.842V33.6406ZM455.094 30.3984H442.721V28.6504H455.094V30.3984ZM454.908 25.9453H444.879V29.5977H442.721V24.1875H454.908V25.9453ZM449.567 35.1738C449.567 36.2155 449.283 37.1465 448.717 37.9668C448.157 38.7871 447.36 39.4674 446.324 40.0078C445.289 40.5482 444.078 40.9193 442.692 41.1211L441.901 39.4609C443.099 39.3047 444.134 39.0182 445.006 38.6016C445.878 38.1849 446.543 37.6803 446.998 37.0879C447.461 36.4954 447.692 35.8574 447.692 35.1738V34.7637H449.567V35.1738ZM449.899 35.1738C449.899 35.8574 450.127 36.4954 450.582 37.0879C451.044 37.6803 451.712 38.1849 452.584 38.6016C453.463 39.0182 454.505 39.3047 455.709 39.4609L454.908 41.1211C453.522 40.9193 452.311 40.5482 451.276 40.0078C450.247 39.4674 449.446 38.7871 448.873 37.9668C448.307 37.1465 448.024 36.2155 448.024 35.1738V34.7637H449.899V35.1738ZM476.568 41.2188H474.419V23.582H476.568V41.2188ZM479.292 32.4102H476.079V30.623H479.292V32.4102ZM473.052 28.0352H462.652V26.2871H473.052V28.0352ZM467.906 29.1777C468.758 29.1777 469.52 29.3568 470.191 29.7148C470.868 30.0664 471.398 30.5579 471.783 31.1895C472.167 31.821 472.359 32.5371 472.359 33.3379C472.359 34.1322 472.167 34.8483 471.783 35.4863C471.398 36.1178 470.868 36.6094 470.191 36.9609C469.52 37.3125 468.758 37.4883 467.906 37.4883C467.059 37.4883 466.297 37.3125 465.62 36.9609C464.943 36.6094 464.413 36.1178 464.029 35.4863C463.651 34.8483 463.462 34.1322 463.462 33.3379C463.462 32.5371 463.651 31.821 464.029 31.1895C464.413 30.5579 464.943 30.0664 465.62 29.7148C466.297 29.3568 467.059 29.1777 467.906 29.1777ZM467.906 30.9648C467.456 30.9648 467.049 31.0625 466.685 31.2578C466.327 31.4531 466.044 31.7298 465.835 32.0879C465.633 32.446 465.533 32.8626 465.533 33.3379C465.533 33.8066 465.633 34.2201 465.835 34.5781C466.044 34.9362 466.327 35.2129 466.685 35.4082C467.049 35.597 467.456 35.6914 467.906 35.6914C468.368 35.6914 468.778 35.597 469.136 35.4082C469.494 35.2129 469.774 34.9362 469.976 34.5781C470.178 34.2201 470.279 33.8066 470.279 33.3379C470.279 32.8626 470.178 32.446 469.976 32.0879C469.774 31.7298 469.494 31.4531 469.136 31.2578C468.778 31.0625 468.368 30.9648 467.906 30.9648ZM468.98 26.9902H466.822V23.8359H468.98V26.9902ZM489.106 37.6836H486.968V33.5039H489.106V37.6836ZM488.052 24.5684C489.302 24.5684 490.425 24.7669 491.421 25.1641C492.423 25.5612 493.208 26.1211 493.774 26.8438C494.341 27.5664 494.624 28.3965 494.624 29.334C494.624 30.2975 494.341 31.1406 493.774 31.8633C493.208 32.5859 492.427 33.1458 491.43 33.543C490.434 33.9336 489.308 34.1289 488.052 34.1289C486.795 34.1289 485.665 33.9336 484.663 33.543C483.667 33.1458 482.886 32.5859 482.319 31.8633C481.759 31.1406 481.479 30.2975 481.479 29.334C481.479 28.3965 481.759 27.5664 482.319 26.8438C482.886 26.1211 483.667 25.5612 484.663 25.1641C485.665 24.7669 486.795 24.5684 488.052 24.5684ZM488.052 26.3164C487.192 26.3164 486.424 26.4401 485.747 26.6875C485.07 26.9349 484.542 27.2865 484.165 27.7422C483.794 28.1979 483.608 28.7285 483.608 29.334C483.608 29.959 483.794 30.5026 484.165 30.9648C484.542 31.4271 485.067 31.7819 485.737 32.0293C486.408 32.2702 487.179 32.3939 488.052 32.4004C488.924 32.3939 489.692 32.2702 490.356 32.0293C491.027 31.7819 491.548 31.4271 491.919 30.9648C492.296 30.5026 492.485 29.959 492.485 29.334C492.485 28.7285 492.296 28.1979 491.919 27.7422C491.548 27.2865 491.027 26.9349 490.356 26.6875C489.686 26.4401 488.917 26.3164 488.052 26.3164ZM496.147 39.0996H480.014V37.3125H496.147V39.0996ZM499.418 39.6562C499.145 39.6562 498.891 39.5879 498.657 39.4512C498.422 39.3079 498.237 39.1224 498.1 38.8945C497.97 38.6602 497.905 38.4062 497.905 38.1328C497.905 37.8659 497.97 37.6185 498.1 37.3906C498.237 37.1562 498.422 36.974 498.657 36.8438C498.891 36.707 499.145 36.6387 499.418 36.6387C499.679 36.6387 499.926 36.707 500.16 36.8438C500.395 36.974 500.58 37.1562 500.717 37.3906C500.854 37.6185 500.922 37.8659 500.922 38.1328C500.922 38.4062 500.854 38.6602 500.717 38.8945C500.58 39.1224 500.395 39.3079 500.16 39.4512C499.926 39.5879 499.679 39.6562 499.418 39.6562Z" fill="#434343"/>
</g>
<defs>
<clipPath id="clip0_4553_57474">
<rect x="20" y="12" width="40" height="40" rx="20" fill="white"/>
</clipPath>
</defs>
</svg>
