<svg width="587" height="35" viewBox="0 0 587 35" fill="none" xmlns="http://www.w3.org/2000/svg">
<g clip-path="url(#clip0_4611_21751)">
<path d="M582.485 0.273438H4.5154C2.17748 0.273438 0.282227 2.10977 0.282227 4.375V30.625C0.282227 32.8902 2.17748 34.7266 4.5154 34.7266H582.485C584.823 34.7266 586.718 32.8902 586.718 30.625V4.375C586.718 2.10977 584.823 0.273438 582.485 0.273438Z" fill="#F9F7F6"/>
<path d="M582.485 0.273438H4.5154C2.17748 0.273438 0.282227 2.10977 0.282227 4.375V30.625C0.282227 32.8902 2.17748 34.7266 4.5154 34.7266H582.485C584.823 34.7266 586.718 32.8902 586.718 30.625V4.375C586.718 2.10977 584.823 0.273438 582.485 0.273438Z" stroke="#EAE5E2"/>
<mask id="mask0_4611_21751" style="mask-type:luminance" maskUnits="userSpaceOnUse" x="11" y="6" width="23" height="23">
<path d="M33.8655 17.5C33.8655 11.4594 28.8115 6.5625 22.577 6.5625C16.3426 6.5625 11.2886 11.4594 11.2886 17.5C11.2886 23.5406 16.3426 28.4375 22.577 28.4375C28.8115 28.4375 33.8655 23.5406 33.8655 17.5Z" fill="white"/>
</mask>
<g mask="url(#mask0_4611_21751)">
<path d="M33.8655 17.5C33.8655 11.4594 28.8115 6.5625 22.577 6.5625C16.3426 6.5625 11.2886 11.4594 11.2886 17.5C11.2886 23.5406 16.3426 28.4375 22.577 28.4375C28.8115 28.4375 33.8655 23.5406 33.8655 17.5Z" fill="#F9F7F6"/>
<path d="M22.577 19.0625C24.8036 19.0625 26.6086 17.3136 26.6086 15.1563C26.6086 12.9989 24.8036 11.25 22.577 11.25C20.3504 11.25 18.5454 12.9989 18.5454 15.1563C18.5454 17.3136 20.3504 19.0625 22.577 19.0625Z" fill="#B5BDC3"/>
<path d="M22.5768 33.125C27.03 33.125 30.64 30.3268 30.64 26.875C30.64 23.4232 27.03 20.625 22.5768 20.625C18.1237 20.625 14.5137 23.4232 14.5137 26.875C14.5137 30.3268 18.1237 33.125 22.5768 33.125Z" fill="#B5BDC3"/>
</g>
<path d="M22.5768 6.4834H22.5768C16.2972 6.4834 11.2065 11.4158 11.2065 17.5001V17.5002C11.2065 23.5846 16.2972 28.5169 22.5768 28.5169H22.5768C28.8565 28.5169 33.9471 23.5846 33.9471 17.5002V17.5001C33.9471 11.4158 28.8565 6.4834 22.5768 6.4834Z" stroke="#D2C5B6" stroke-width="0.289855"/>
<path d="M45.1328 21.6515H40.564V20.7815H45.1328V21.6515ZM45.7874 13.8217H46.844V16.4028H46.9036C47.0259 16.2138 47.135 16.0631 47.2309 15.951C47.3269 15.8388 47.4774 15.7347 47.6824 15.6386C47.8907 15.5424 48.147 15.4943 48.4513 15.4943C48.8878 15.4943 49.2765 15.6017 49.6171 15.8164C49.961 16.0279 50.2306 16.3371 50.4257 16.7441C50.6208 17.1478 50.7184 17.6268 50.7184 18.1812C50.7184 18.7292 50.6208 19.2082 50.4257 19.6183C50.2339 20.0253 49.9676 20.3377 49.627 20.5556C49.2897 20.7703 48.9011 20.8777 48.4612 20.8777C48.1603 20.8777 47.9056 20.8296 47.6973 20.7335C47.4922 20.6341 47.3351 20.5252 47.226 20.4066C47.1169 20.2849 47.0094 20.1406 46.9036 19.974H46.8143V20.7815H45.7874V13.8217ZM46.8192 18.1668C46.8192 18.5321 46.8738 18.8541 46.9829 19.1329C47.092 19.4085 47.2524 19.6231 47.4641 19.777C47.6758 19.9308 47.9271 20.0077 48.2182 20.0077C48.5224 20.0077 48.7804 19.9292 48.992 19.7722C49.207 19.6119 49.369 19.3941 49.4782 19.1185C49.5873 18.8397 49.6419 18.5224 49.6419 18.1668C49.6419 17.8175 49.589 17.5067 49.4831 17.2343C49.3773 16.9619 49.2169 16.7505 49.0019 16.5999C48.787 16.4461 48.5257 16.3691 48.2182 16.3691C47.9238 16.3691 47.6708 16.4428 47.4591 16.5902C47.2508 16.7377 47.092 16.9459 46.9829 17.2151C46.8738 17.4843 46.8192 17.8015 46.8192 18.1668ZM51.8491 13.8217H52.9058V16.4028H52.9654C53.0877 16.2138 53.1968 16.0631 53.2928 15.951C53.3887 15.8388 53.5391 15.7347 53.7442 15.6386C53.9525 15.5424 54.2088 15.4943 54.5131 15.4943C54.9496 15.4943 55.3382 15.6017 55.6789 15.8164C56.0228 16.0279 56.2923 16.3371 56.4874 16.7441C56.6826 17.1478 56.7803 17.6268 56.7803 18.1812C56.7803 18.7292 56.6826 19.2082 56.4874 19.6183C56.2957 20.0253 56.0294 20.3377 55.6888 20.5556C55.3515 20.7703 54.9628 20.8777 54.523 20.8777C54.222 20.8777 53.9674 20.8296 53.759 20.7335C53.554 20.6341 53.3969 20.5252 53.2878 20.4066C53.1787 20.2849 53.0712 20.1406 52.9654 19.974H52.8761V20.7815H51.8491V13.8217ZM52.881 18.1668C52.881 18.5321 52.9356 18.8541 53.0447 19.1329C53.1539 19.4085 53.3142 19.6231 53.5259 19.777C53.7375 19.9308 53.9889 20.0077 54.28 20.0077C54.5842 20.0077 54.8422 19.9292 55.0538 19.7722C55.2688 19.6119 55.4308 19.3941 55.54 19.1185C55.6491 18.8397 55.7037 18.5224 55.7037 18.1668C55.7037 17.8175 55.6508 17.5067 55.5449 17.2343C55.4391 16.9619 55.2787 16.7505 55.0638 16.5999C54.8488 16.4461 54.5875 16.3691 54.28 16.3691C53.9856 16.3691 53.7326 16.4428 53.521 16.5902C53.3126 16.7377 53.1539 16.9459 53.0447 17.2151C52.9356 17.4843 52.881 17.8015 52.881 18.1668ZM61.671 21.6515H57.1026V20.7815H61.671V21.6515ZM64.2803 20.8777C63.7278 20.8777 63.2554 20.7383 62.8614 20.4595C62.468 20.1807 62.1671 19.7737 61.9589 19.2386C61.7506 18.7035 61.6462 18.0578 61.6462 17.3016C61.6462 16.5518 61.7506 15.9093 61.9589 15.3742C62.1671 14.8391 62.4697 14.4305 62.8665 14.1485C63.2633 13.8666 63.7345 13.7256 64.2803 13.7256C64.8261 13.7256 65.2974 13.8666 65.6942 14.1485C66.091 14.4305 66.3935 14.8391 66.6018 15.3742C66.8101 15.9093 66.9145 16.5518 66.9145 17.3016C66.9145 18.0578 66.8101 18.7035 66.6018 19.2386C66.3969 19.7737 66.0961 20.1807 65.6993 20.4595C65.3053 20.7383 64.8329 20.8777 64.2803 20.8777ZM64.2803 19.9692C64.6009 19.9692 64.8775 19.8667 65.1089 19.6616C65.3437 19.4565 65.5221 19.1553 65.6446 18.758C65.767 18.3575 65.8263 17.872 65.8229 17.3016C65.8229 16.7313 65.762 16.2458 65.6395 15.8452C65.517 15.4447 65.3403 15.1403 65.1089 14.932C64.8775 14.7237 64.6009 14.6196 64.2803 14.6196C63.9598 14.6196 63.6832 14.7237 63.4518 14.932C63.2204 15.1403 63.042 15.4447 62.9161 15.8452C62.7903 16.2458 62.7276 16.7313 62.7276 17.3016C62.7276 17.872 62.7886 18.3575 62.9111 18.758C63.0335 19.1553 63.2119 19.4565 63.4467 19.6616C63.6815 19.8667 63.9598 19.9692 64.2803 19.9692ZM71.2944 14.7782V14.7301H67.589V13.8217H72.4255V14.7638L69.2258 20.7815H68.0902L71.2944 14.7782ZM76.245 20.7815H75.1438V14.8839H75.1043L73.393 15.9702V14.9561L75.1737 13.8217H76.245V20.7815ZM80.6599 20.8777C80.1739 20.8713 79.7275 20.7623 79.3205 20.5508C78.917 20.3393 78.5862 19.9852 78.3283 19.4886C78.0737 18.9919 77.9467 18.3398 77.9467 17.5323C77.9467 16.7344 78.0607 16.0503 78.2888 15.48C78.5168 14.9063 78.8413 14.4706 79.2613 14.1725C79.6812 13.8746 80.1773 13.7256 80.7491 13.7256C81.1859 13.7256 81.5743 13.8073 81.9152 13.9707C82.2589 14.1309 82.5383 14.3552 82.7533 14.6436C82.9718 14.932 83.1089 15.262 83.1654 15.6337H82.0839C82.0309 15.4383 81.9451 15.2668 81.826 15.1195C81.7103 14.9689 81.5613 14.8535 81.3795 14.7734C81.1972 14.6933 80.9873 14.6532 80.7491 14.6532C80.3822 14.6532 80.0678 14.7526 79.8065 14.9512C79.5457 15.1467 79.3454 15.4319 79.2065 15.8068C79.0677 16.1817 78.9965 16.6319 78.9932 17.1574H79.0727C79.2048 16.9619 79.3634 16.7937 79.5486 16.6527C79.7371 16.5117 79.9487 16.4044 80.1835 16.3307C80.4183 16.2538 80.6633 16.2153 80.9178 16.2153C81.3412 16.2153 81.73 16.3147 82.0839 16.5133C82.4407 16.7088 82.7206 16.9796 82.9221 17.3257C83.127 17.6717 83.2297 18.0642 83.2297 18.5032C83.2297 18.9519 83.1225 19.3572 82.9074 19.7193C82.6924 20.0814 82.3899 20.365 81.9993 20.5701C81.6093 20.7751 81.1628 20.8777 80.6599 20.8777ZM80.6548 19.9933C80.9393 19.9933 81.1955 19.9276 81.4241 19.7962C81.6555 19.6648 81.8373 19.487 81.9699 19.2627C82.1054 19.0351 82.1731 18.79 82.1731 18.5273C82.1731 18.2549 82.1088 18.0082 81.9795 17.7871C81.8508 17.566 81.6719 17.3929 81.4439 17.268C81.2159 17.1398 80.9579 17.0757 80.6701 17.0757C80.389 17.0757 80.131 17.143 79.8962 17.2776C79.6614 17.409 79.4746 17.5868 79.3358 17.8111C79.1997 18.0322 79.1286 18.2725 79.1224 18.5321C79.1252 18.7852 79.1935 19.0239 79.3256 19.2483C79.4611 19.4725 79.6445 19.6536 79.8765 19.7914C80.1079 19.9259 80.3675 19.9933 80.6548 19.9933Z" fill="#2C2C2C"/>
<path d="M117.95 18.38C119.447 18.38 120.393 18.8398 120.397 19.6211C120.393 20.3987 119.447 20.8585 117.95 20.8548C116.469 20.8585 115.519 20.3987 115.519 19.6211C115.519 18.8398 116.469 18.38 117.95 18.38ZM114.84 17.8267V17.251H117.364V15.9949H118.081V17.251H121.129V17.8267H114.84ZM115.574 15.0677V14.4995H120.342V15.0603C120.346 15.5949 120.346 16.1481 120.149 16.8398L119.432 16.765C119.617 16.0809 119.617 15.5874 119.617 15.0677H115.574ZM116.253 19.6211C116.245 20.0548 116.904 20.3053 117.95 20.309C119.007 20.3053 119.663 20.0548 119.671 19.6211C119.663 19.18 119.007 18.9221 117.95 18.9183C116.904 18.9221 116.245 19.18 116.253 19.6211ZM125.505 14.679V15.0528C125.497 15.5014 125.497 16.1669 125.327 17.0341L124.601 16.9669C124.752 16.2267 124.775 15.6846 124.783 15.2622H122.016V14.679H125.505ZM121.6 17.6099C122.024 17.6099 122.507 17.6061 123.012 17.5949V16.1818H123.737V17.5725C124.478 17.5426 125.242 17.4902 125.937 17.3931L125.983 17.9089C124.54 18.1557 122.888 18.1819 121.669 18.1856L121.6 17.6099ZM122.649 20.7277V18.7464H123.382V20.152H127.349V20.7277H122.649ZM126.377 19.2024V14.1705H127.125V16.3014H128.074V16.8996H127.125V19.2024H126.377ZM130.744 14.4771C131.786 14.4733 132.538 15.0378 132.542 15.8678C132.538 16.6902 131.786 17.2585 130.744 17.251C129.706 17.2585 128.958 16.6902 128.962 15.8678C128.958 15.0378 129.706 14.4733 130.744 14.4771ZM128.468 17.7744C129.744 17.7744 131.508 17.7482 133.02 17.5276L133.075 18.0585C132.442 18.1744 131.789 18.2454 131.153 18.2865V20.6604H130.42V18.3277C129.748 18.3576 129.116 18.3613 128.568 18.365L128.468 17.7744ZM129.672 15.8678C129.664 16.3538 130.115 16.6753 130.744 16.6678C131.389 16.6753 131.84 16.3538 131.84 15.8678C131.84 15.378 131.389 15.0491 130.744 15.0528C130.115 15.0491 129.664 15.378 129.672 15.8678ZM133.499 20.8698V14.178H134.224V20.8698H133.499ZM140.891 16.1294V16.6977H136.13V14.4098H136.856V16.1294H140.891ZM135.289 18.1108V17.5426H141.617V18.1108H135.289ZM136.076 20.7127V18.7464H136.809V20.1296H140.938V20.7127H136.076ZM149.881 17.2061V17.7744H147.381V14.7761H149.811V15.3519H148.114V17.2061H149.881ZM144.04 20.0324V19.4566H146.817V18.0958H147.535V19.4566H150.367V20.0324H144.04ZM144.564 17.7744V14.7836H146.949V15.3593H145.297V17.1911C145.872 17.1837 146.412 17.1426 147.01 17.0117L147.072 17.6024C146.331 17.7594 145.706 17.7781 144.973 17.7744H144.564ZM158.215 14.163V16.1669H159.218V16.765H158.215V19.0903H157.481V14.163H158.215ZM152.89 16.2939C152.882 15.3182 153.685 14.6304 154.726 14.6266C155.772 14.6304 156.563 15.3182 156.571 16.2939C156.563 17.2697 155.772 17.965 154.726 17.9613C153.685 17.965 152.882 17.2697 152.89 16.2939ZM153.608 16.2939C153.6 16.9183 154.094 17.3407 154.726 17.3407C155.367 17.3407 155.85 16.9183 155.854 16.2939C155.85 15.6696 155.367 15.2472 154.726 15.2472C154.094 15.2472 153.6 15.6696 153.608 16.2939ZM153.832 20.7277V18.5744H154.564V20.152H158.508V20.7277H153.832ZM165.916 17.4304V17.9987H159.604V17.4304H162.405V16.7201H160.39V14.4771H165.137V15.0378H161.116V16.1519H165.183V16.7201H163.114V17.4304H165.916ZM160.352 19.651C160.352 18.8734 161.251 18.4361 162.752 18.4323C164.241 18.4361 165.133 18.8734 165.137 19.651C165.133 20.4286 164.241 20.866 162.752 20.8698C161.251 20.866 160.352 20.4286 160.352 19.651ZM161.093 19.651C161.089 20.0809 161.695 20.3165 162.752 20.309C163.794 20.3165 164.403 20.0809 164.403 19.651C164.403 19.2286 163.794 18.9856 162.752 18.9856C161.695 18.9856 161.089 19.2286 161.093 19.651ZM168.963 15.8753C168.956 17.0977 169.72 18.3314 170.793 18.7912L170.352 19.352C169.558 18.9856 168.929 18.2342 168.605 17.3183C168.284 18.3015 167.648 19.109 166.819 19.5015L166.371 18.9034C167.459 18.4361 168.223 17.1538 168.223 15.8753V14.7313H168.963V15.8753ZM171.418 20.8847V14.1705H172.151V20.8847H171.418ZM175.661 15.4042C175.657 16.2566 176.271 17.0341 177.321 17.3556L176.974 17.9089C176.186 17.6659 175.611 17.1613 175.306 16.5258C175.006 17.2585 174.4 17.8379 173.57 18.1183L173.192 17.5501C174.272 17.2061 174.925 16.3426 174.928 15.4117V15.2247H173.408V14.6491H177.151V15.2247H175.661V15.4042ZM174.126 19.5987C174.126 18.8136 175.01 18.3538 176.449 18.3576C177.872 18.3538 178.74 18.8136 178.74 19.5987C178.74 20.395 177.872 20.8585 176.449 20.8548C175.01 20.8585 174.126 20.395 174.126 19.5987ZM174.859 19.5987C174.855 20.0473 175.449 20.2978 176.449 20.2941C177.44 20.2978 178.027 20.0473 178.023 19.5987C178.027 19.1613 177.44 18.9146 176.449 18.9183C175.449 18.9146 174.855 19.1613 174.859 19.5987ZM177.946 18.1931V14.1705H178.679V15.8304H179.682V16.4136H178.679V18.1931H177.946ZM186.372 17.6697V18.2379H180.068V17.6697H186.372ZM180.747 15.7332C180.743 14.892 181.711 14.3911 183.216 14.3949C184.713 14.3911 185.682 14.892 185.686 15.7332C185.682 16.5781 184.713 17.0902 183.216 17.094C181.711 17.0902 180.743 16.5781 180.747 15.7332ZM180.863 20.7277V18.7838H181.603V20.152H185.662V20.7277H180.863ZM181.503 15.7332C181.499 16.2304 182.155 16.5108 183.216 16.5108C184.273 16.5108 184.933 16.2304 184.929 15.7332C184.933 15.2547 184.273 14.9631 183.216 14.9631C182.155 14.9631 181.499 15.2547 181.503 15.7332ZM194.598 14.178V19.2324H193.857V18.3576H192.391V17.7893H193.857V14.178H194.598ZM188.764 16.7874C189.632 16.7837 190.712 16.7725 191.781 16.7052C191.897 16.0248 191.928 15.5014 191.931 15.1276H189.389V14.5519H192.669V14.8136C192.665 15.1762 192.665 15.7967 192.522 16.6491C192.777 16.6229 193.028 16.5967 193.271 16.5631L193.324 17.079C192.704 17.1799 192.059 17.2473 191.426 17.2884V18.7987H190.693V17.3257C190.033 17.3556 189.409 17.3631 188.864 17.3631L188.764 16.7874ZM189.775 20.7277V18.6865H190.508V20.152H194.768V20.7277H189.775ZM199.482 14.5743V14.9556C199.478 15.3818 199.478 15.9874 199.305 16.7575L198.579 16.6977C198.726 16.0435 198.749 15.5537 198.753 15.1575H195.994V14.5743H199.482ZM195.578 17.3332C196.006 17.3332 196.488 17.3295 196.99 17.322V16.0398H197.715V17.3033C198.46 17.2772 199.22 17.2286 199.915 17.1463L199.961 17.6472C198.518 17.8828 196.889 17.9202 195.647 17.9239L195.578 17.3332ZM196.481 19.6136C196.481 18.8585 197.372 18.4024 198.819 18.4024C200.266 18.4024 201.157 18.8585 201.157 19.6136C201.157 20.3987 200.266 20.8511 198.819 20.8473C197.372 20.8511 196.481 20.3987 196.481 19.6136ZM197.221 19.6136C197.217 20.0585 197.82 20.2903 198.819 20.2866C199.814 20.2903 200.409 20.0585 200.416 19.6136C200.409 19.2024 199.814 18.9557 198.819 18.9557C197.82 18.9557 197.217 19.2024 197.221 19.6136ZM200.354 18.3202V14.1705H201.103V15.9425H202.06V16.5332H201.103V18.3202H200.354ZM205.439 14.6491V15.2247H203.441V15.9724H205.363V16.5183H203.441V17.3332C204.367 17.3257 204.972 17.2921 205.686 17.1613L205.756 17.7445C204.945 17.8903 204.286 17.9202 203.186 17.9164H202.739V14.6491H205.439ZM203.649 19.1426V18.5669H208.349V20.8698H207.624V19.1426H203.649ZM206.119 18.1931V14.2976H206.805V15.8827H207.654V14.178H208.349V18.2454H207.654V16.4584H206.805V18.1931H206.119ZM210.062 18.3949C209.76 18.3912 209.51 18.1557 209.514 17.8641C209.51 17.5725 209.76 17.3332 210.062 17.3332C210.359 17.3332 210.605 17.5725 210.609 17.8641C210.605 18.1557 210.359 18.3912 210.062 18.3949ZM217.137 14.178V19.2324H216.397V18.3576H214.931V17.7893H216.397V14.178H217.137ZM211.304 16.7874C212.172 16.7837 213.253 16.7725 214.321 16.7052C214.437 16.0248 214.468 15.5014 214.472 15.1276H211.929V14.5519H215.208V14.8136C215.205 15.1762 215.205 15.7967 215.062 16.6491C215.317 16.6229 215.567 16.5967 215.811 16.5631L215.864 17.079C215.243 17.1799 214.599 17.2473 213.966 17.2884V18.7987H213.233V17.3257C212.573 17.3556 211.948 17.3631 211.404 17.3631L211.304 16.7874ZM212.314 20.7277V18.6865H213.048V20.152H217.307V20.7277H212.314ZM223.921 14.1705V20.8698H223.18V14.1705H223.921ZM218.241 19.0754C220.078 18.2267 220.977 17.0192 221.119 15.4566H218.573V14.8883H221.86C221.86 16.851 221 18.5482 218.627 19.651L218.241 19.0754ZM227.416 15.6061C227.416 16.3837 228.041 17.1052 229.098 17.3931L228.758 17.9538C227.964 17.7295 227.373 17.2547 227.069 16.6454C226.764 17.3332 226.162 17.8679 225.348 18.1258L224.985 17.565C226.042 17.2622 226.69 16.4734 226.69 15.6061V15.5238H225.186V14.9481H226.69V14.1406H227.424V14.9481H228.921V15.5238H227.416V15.6061ZM225.873 19.6361C225.873 18.851 226.748 18.4061 228.195 18.4099C229.627 18.4061 230.487 18.851 230.487 19.6361C230.487 20.4062 229.627 20.8511 228.195 20.8548C226.748 20.8511 225.873 20.4062 225.873 19.6361ZM226.606 19.6361C226.602 20.066 227.188 20.3053 228.195 20.309C229.187 20.3053 229.773 20.066 229.77 19.6361C229.773 19.195 229.187 18.9632 228.195 18.9632C227.188 18.9632 226.602 19.195 226.606 19.6361ZM229.693 18.2529V14.1705H230.426V15.8603H231.429V16.4435H230.426V18.2529H229.693ZM232.602 18.3949C232.301 18.3912 232.05 18.1557 232.053 17.8641C232.05 17.5725 232.301 17.3332 232.602 17.3332C232.898 17.3332 233.146 17.5725 233.149 17.8641C233.146 18.1557 232.898 18.3912 232.602 18.3949ZM237.548 14.5892C237.544 16.3052 236.293 17.5127 234.245 18.0361L233.952 17.4753C235.614 17.0566 236.625 16.2155 236.761 15.1575H234.338V14.5892H237.548ZM235.093 20.78V18.2454H239.624V20.78H235.093ZM235.819 20.2118H238.906V18.8136H235.819V20.2118ZM238.89 17.9463V14.178H239.624V17.9463H238.89ZM242.964 14.6491C244.057 14.6453 244.844 15.2996 244.847 16.2416C244.844 17.1837 244.057 17.8379 242.964 17.8417C241.877 17.8379 241.078 17.1837 241.082 16.2416C241.078 15.2996 241.877 14.6453 242.964 14.6491ZM240.75 18.851C242.008 18.851 243.752 18.8398 245.264 18.6267L245.318 19.1426C243.756 19.4342 242.077 19.4417 240.843 19.4417L240.75 18.851ZM241.807 16.2416C241.799 16.836 242.293 17.2211 242.964 17.2211C243.636 17.2211 244.13 16.836 244.13 16.2416C244.13 15.6547 243.636 15.2622 242.964 15.2622C242.293 15.2622 241.799 15.6547 241.807 16.2416ZM245.696 20.8847V14.1705H246.429V20.8847H245.696ZM251.059 14.5593C251.063 15.3593 252.167 16.1294 253.482 16.2865L253.212 16.8472C252.109 16.6902 251.137 16.1631 250.689 15.4379C250.249 16.1706 249.277 16.6902 248.166 16.8472L247.88 16.2865C249.207 16.1294 250.307 15.3743 250.311 14.5593V14.2827H251.059V14.5593ZM247.533 17.9015V17.3332H253.837V17.9015H247.533ZM248.281 19.666C248.281 18.8921 249.176 18.4697 250.681 18.4697C252.167 18.4697 253.062 18.8921 253.066 19.666C253.062 20.4324 252.167 20.866 250.681 20.8698C249.176 20.866 248.281 20.4324 248.281 19.666ZM249.022 19.666C249.018 20.0884 249.624 20.3165 250.681 20.309C251.723 20.3165 252.333 20.0884 252.333 19.666C252.333 19.2473 251.723 19.0155 250.681 19.0155C249.624 19.0155 249.018 19.2473 249.022 19.666ZM262.225 14.9107V15.4939H256.6V14.9107H259.061V14.1406H259.786V14.9107H262.225ZM256.275 19.0903V18.5071H262.603V19.0903H259.786V20.8772H259.061V19.0903H256.275ZM257.124 16.9669C257.121 16.2341 257.985 15.8341 259.424 15.8379C260.859 15.8341 261.724 16.2341 261.724 16.9669C261.724 17.6809 260.859 18.0846 259.424 18.0884C257.985 18.0846 257.121 17.6809 257.124 16.9669ZM257.88 16.9669C257.88 17.3407 258.432 17.5538 259.424 17.5501C260.412 17.5538 260.963 17.3407 260.967 16.9669C260.963 16.5818 260.412 16.3687 259.424 16.3687C258.432 16.3687 257.88 16.5818 257.88 16.9669ZM269.425 19.4492V20.0398H263.097V19.4492H265.883V18.0734H263.822V14.6266H264.555V15.7781H267.951V14.6266H268.676V18.0734H266.608V19.4492H269.425ZM264.555 17.4977H267.951V16.3538H264.555V17.4977ZM277.272 14.1705V16.1519H278.275V16.7425H277.272V19.0379H276.531V14.1705H277.272ZM271.832 17.737C273.452 17.266 274.455 16.3725 274.598 15.2696H272.125V14.679H275.397C275.397 16.436 274.162 17.7108 272.141 18.3052L271.832 17.737ZM272.881 20.7277V18.537H273.622V20.152H277.557V20.7277H272.881ZM286.346 14.178V18.1407H285.613V17.3257H283.869V16.7425H285.613V15.9276H283.943C283.495 17.0043 282.457 17.7631 280.96 18.1781L280.667 17.6248C282.303 17.1725 283.26 16.3201 283.391 15.2397H281.022V14.6565H284.186C284.186 14.9033 284.159 15.1426 284.113 15.3668H285.613V14.178H286.346ZM281.74 19.524C281.74 18.7127 282.65 18.2192 284.07 18.2155C285.47 18.2192 286.389 18.7127 286.393 19.524C286.389 20.3389 285.47 20.8398 284.07 20.8398C282.65 20.8398 281.74 20.3389 281.74 19.524ZM282.465 19.524C282.465 19.995 283.082 20.2679 284.07 20.2716C285.039 20.2679 285.656 19.995 285.66 19.524C285.656 19.0454 285.039 18.7725 284.07 18.7763C283.082 18.7725 282.465 19.0454 282.465 19.524ZM289.842 15.3967C289.846 16.3052 290.467 17.1799 291.509 17.5351L291.107 18.0884C290.355 17.808 289.788 17.2547 289.491 16.5631C289.194 17.3332 288.604 17.9426 287.789 18.2454L287.396 17.6846C288.472 17.3145 289.113 16.3837 289.117 15.3743V14.5818H289.842V15.3967ZM288.654 20.7277V18.6118H289.394V20.152H293.322V20.7277H288.654ZM290.976 16.2865V15.7033H292.435V14.178H293.168V19.1725H292.435V16.2865H290.976ZM297.374 14.5743C298.824 14.5743 299.928 15.3182 299.928 16.4435C299.928 17.5762 298.824 18.3165 297.374 18.3127C295.926 18.3165 294.823 17.5762 294.827 16.4435C294.823 15.3182 295.926 14.5743 297.374 14.5743ZM294.225 20.0025V19.4118H300.552V20.0025H294.225ZM295.529 16.4435C295.525 17.2248 296.312 17.7295 297.374 17.7295C298.431 17.7295 299.214 17.2248 299.218 16.4435C299.214 15.6659 298.431 15.1463 297.374 15.15C296.312 15.1463 295.525 15.6659 295.529 16.4435ZM307.374 19.4716V20.0697H301.046V19.4716H303.832V18.2977H301.818V16.1669H305.877V15.2247H301.803V14.6416H306.602V16.7351H302.543V17.7146H306.764V18.2977H304.558V19.4716H307.374ZM309.11 19.7183L308.493 21.7819H307.837L308.246 19.7183H309.11ZM317.76 14.1705V20.8698H317.058V14.1705H317.76ZM311.888 17.0641C311.888 15.6136 312.474 14.7051 313.377 14.7089C313.968 14.7051 314.423 15.0864 314.67 15.7482H315.677V14.2976H316.371V20.5408H315.677V18.38H314.674C314.423 19.0454 313.968 19.4305 313.377 19.4267C312.474 19.4305 311.888 18.5183 311.888 17.0641ZM312.559 17.0641C312.555 18.1295 312.864 18.7576 313.377 18.7538C313.886 18.7576 314.21 18.1295 314.21 17.0641C314.21 15.9949 313.886 15.3705 313.377 15.3743C312.864 15.3705 312.555 15.9949 312.559 17.0641ZM314.824 16.3239C314.863 16.5519 314.882 16.7987 314.882 17.0641C314.882 17.3257 314.863 17.5725 314.824 17.7968H315.677V16.3239H314.824ZM321.055 15.7631C321.055 16.608 321.707 17.3856 322.768 17.7071L322.413 18.2678C321.618 18.0249 321.02 17.5164 320.704 16.8622C320.403 17.5613 319.805 18.1108 318.987 18.3725L318.632 17.8192C319.689 17.4902 320.33 16.6641 320.33 15.7631V15.6061H318.825V15.0304H320.33V14.2154H321.063V15.0304H322.56V15.6061H321.055V15.7631ZM319.905 20.7277V18.7239H320.639V20.152H324.582V20.7277H319.905ZM322.321 16.78V16.2043H323.663V14.178H324.396V19.165H323.663V16.78H322.321ZM330.979 14.5145V15.0603C330.982 15.6211 330.982 16.2491 330.816 17.094H331.781V17.6622H329.011V19.2174H328.277V17.6622H325.454V17.094H330.068C330.25 16.2603 330.253 15.6435 330.253 15.0902H326.248V14.5145H330.979ZM326.233 20.7277V18.6118H326.966V20.152H331.118V20.7277H326.233ZM335.817 14.7612C335.813 15.6509 336.936 16.4846 338.294 16.6603L338.008 17.2435C336.878 17.0678 335.886 16.4996 335.435 15.7108C334.983 16.4996 333.992 17.0678 332.869 17.2435L332.576 16.6603C333.93 16.4846 335.049 15.6621 335.053 14.7612V14.3949H335.817V14.7612ZM332.275 18.4847V17.9015H338.579V18.4847H335.771V20.8698H335.053V18.4847H332.275ZM344.691 16.1294V16.6977H339.929V14.4098H340.655V16.1294H344.691ZM339.088 18.1108V17.5426H345.416V18.1108H339.088ZM339.876 20.7127V18.7464H340.608V20.1296H344.737V20.7127H339.876ZM353.441 17.2585V17.8267H351.35V19.4641H354.166V20.0473H347.839V19.4641H350.625V17.8267H348.626V14.6865H353.38V15.2622H349.359V17.2585H353.441ZM360.409 14.1705V20.8698H359.668V14.1705H360.409ZM354.73 19.0754C356.566 18.2267 357.465 17.0192 357.608 15.4566H355.062V14.8883H358.349C358.349 16.851 357.489 18.5482 355.116 19.651L354.73 19.0754ZM367.786 17.3931V17.9613H364.993V18.7015H367.014V20.8698H366.274V19.2623H362.184V18.7015H364.267V17.9613H361.482V17.3931H367.786ZM362.161 15.6285C362.157 14.8098 363.118 14.3163 364.63 14.3201C366.139 14.3163 367.096 14.8098 367.1 15.6285C367.096 16.4323 366.139 16.9257 364.63 16.922C363.118 16.9257 362.157 16.4323 362.161 15.6285ZM362.917 15.6285C362.913 16.0958 363.565 16.365 364.63 16.3613C365.687 16.365 366.347 16.0958 366.343 15.6285C366.347 15.1575 365.687 14.8771 364.63 14.8808C363.565 14.8771 362.913 15.1575 362.917 15.6285ZM369.09 18.3949C368.789 18.3912 368.538 18.1557 368.542 17.8641C368.538 17.5725 368.789 17.3332 369.09 17.3332C369.387 17.3332 369.634 17.5725 369.638 17.8641C369.634 18.1557 369.387 18.3912 369.09 18.3949ZM375.811 14.163V16.1669H376.814V16.765H375.811V19.0903H375.078V14.163H375.811ZM370.487 16.2939C370.479 15.3182 371.281 14.6304 372.323 14.6266C373.369 14.6304 374.16 15.3182 374.167 16.2939C374.16 17.2697 373.369 17.965 372.323 17.9613C371.281 17.965 370.479 17.2697 370.487 16.2939ZM371.204 16.2939C371.197 16.9183 371.691 17.3407 372.323 17.3407C372.964 17.3407 373.446 16.9183 373.45 16.2939C373.446 15.6696 372.964 15.2472 372.323 15.2472C371.691 15.2472 371.197 15.6696 371.204 16.2939ZM371.428 20.7277V18.5744H372.161V20.152H376.104V20.7277H371.428ZM378.265 14.5818V15.5986H379.993V14.5818H380.719V15.2322H382.231V14.1705H382.964V18.2155H382.231V17.1837H380.719V17.7519H377.532V14.5818H378.265ZM378.265 17.1837H379.993V16.1594H378.265V17.1837ZM378.311 19.6062C378.307 18.7987 379.195 18.3389 380.65 18.3351C382.096 18.3389 382.984 18.7987 382.988 19.6062C382.984 20.3987 382.096 20.8585 380.65 20.8548C379.195 20.8585 378.307 20.3987 378.311 19.6062ZM379.037 19.6062C379.033 20.051 379.635 20.3053 380.65 20.309C381.657 20.3053 382.258 20.051 382.262 19.6062C382.258 19.1426 381.657 18.8884 380.65 18.8809C379.635 18.8884 379.033 19.1426 379.037 19.6062ZM380.719 16.6005H382.231V15.8005H380.719V16.6005ZM387.17 14.3275C388.655 14.3313 389.627 14.8509 389.624 15.6808C389.627 16.5108 388.655 17.0267 387.17 17.0267C385.684 17.0267 384.705 16.5108 384.708 15.6808C384.705 14.8509 385.684 14.3313 387.17 14.3275ZM384.022 18.066V17.4902H390.334V18.066H388.767V19.3969H388.034V18.066H386.946V19.3969H386.205V18.066H384.022ZM384.778 20.7277V18.8211H385.518V20.152H389.693V20.7277H384.778ZM385.495 15.6808C385.487 16.1706 386.159 16.4584 387.17 16.4659C388.185 16.4584 388.849 16.1706 388.852 15.6808C388.849 15.1911 388.185 14.8995 387.17 14.8958C386.159 14.8995 385.487 15.1911 385.495 15.6808ZM398.714 14.9107V15.4939H393.088V14.9107H395.55V14.1406H396.275V14.9107H398.714ZM392.764 19.0903V18.5071H399.092V19.0903H396.275V20.8772H395.55V19.0903H392.764ZM393.613 16.9669C393.609 16.2341 394.474 15.8341 395.912 15.8379C397.348 15.8341 398.212 16.2341 398.212 16.9669C398.212 17.6809 397.348 18.0846 395.912 18.0884C394.474 18.0846 393.609 17.6809 393.613 16.9669ZM394.369 16.9669C394.369 17.3407 394.921 17.5538 395.912 17.5501C396.9 17.5538 397.452 17.3407 397.456 16.9669C397.452 16.5818 396.9 16.3687 395.912 16.3687C394.921 16.3687 394.369 16.5818 394.369 16.9669ZM405.913 19.4492V20.0398H399.586V19.4492H402.372V18.0734H400.311V14.6266H401.044V15.7781H404.44V14.6266H405.165V18.0734H403.097V19.4492H405.913ZM401.044 17.4977H404.44V16.3538H401.044V17.4977ZM413.761 14.1705V16.1519H414.764V16.7425H413.761V19.0379H413.02V14.1705H413.761ZM408.321 17.737C409.941 17.266 410.944 16.3725 411.087 15.2696H408.613V14.679H411.885C411.885 16.436 410.651 17.7108 408.629 18.3052L408.321 17.737ZM409.37 20.7277V18.537H410.111V20.152H414.046V20.7277H409.37ZM422.835 14.178V18.1407H422.102V17.3257H420.358V16.7425H422.102V15.9276H420.431C419.984 17.0043 418.946 17.7631 417.449 18.1781L417.155 17.6248C418.792 17.1725 419.748 16.3201 419.88 15.2397H417.51V14.6565H420.675C420.675 14.9033 420.648 15.1426 420.601 15.3668H422.102V14.178H422.835ZM418.228 19.524C418.228 18.7127 419.139 18.2192 420.559 18.2155C421.959 18.2192 422.878 18.7127 422.882 19.524C422.878 20.3389 421.959 20.8398 420.559 20.8398C419.139 20.8398 418.228 20.3389 418.228 19.524ZM418.954 19.524C418.954 19.995 419.571 20.2679 420.559 20.2716C421.527 20.2679 422.144 19.995 422.148 19.524C422.144 19.0454 421.527 18.7725 420.559 18.7763C419.571 18.7725 418.954 19.0454 418.954 19.524ZM426.331 15.3967C426.335 16.3052 426.956 17.1799 427.997 17.5351L427.596 18.0884C426.844 17.808 426.277 17.2547 425.98 16.5631C425.683 17.3332 425.092 17.9426 424.278 18.2454L423.885 17.6846C424.961 17.3145 425.601 16.3837 425.605 15.3743V14.5818H426.331V15.3967ZM425.143 20.7277V18.6118H425.883V20.152H429.811V20.7277H425.143ZM427.465 16.2865V15.7033H428.924V14.178H429.657V19.1725H428.924V16.2865H427.465ZM433.862 14.2827C435.421 14.279 436.328 14.6865 436.331 15.4341C436.328 16.1856 435.421 16.593 433.862 16.593C432.303 16.593 431.389 16.1856 431.392 15.4341C431.389 14.6865 432.303 14.279 433.862 14.2827ZM430.714 17.5725V17.0043H437.018V17.5725H430.714ZM431.47 18.6193V18.0884H436.223V19.6585H432.195V20.2567H436.416V20.8025H431.478V19.1426H435.498V18.6193H431.47ZM432.157 15.4341C432.153 15.8491 432.762 16.0622 433.862 16.0622C434.969 16.0622 435.579 15.8491 435.575 15.4341C435.579 15.0378 434.969 14.8061 433.862 14.8061C432.762 14.8061 432.153 15.0378 432.157 15.4341ZM445.761 17.6921V18.2529H439.441V17.6921H442.234V17.109H440.266V14.35H444.989V14.9107H441.007V15.4566H444.812V15.9874H441.007V16.5556H445.036V17.109H442.968V17.6921H445.761ZM440.205 19.7781C440.205 19.0754 441.066 18.6903 442.605 18.694C444.121 18.6903 444.985 19.0754 444.989 19.7781C444.985 20.4847 444.121 20.8585 442.605 20.8548C441.066 20.8585 440.205 20.4847 440.205 19.7781ZM440.938 19.7781C440.934 20.1408 441.513 20.324 442.605 20.3165C443.681 20.324 444.256 20.1408 444.256 19.7781C444.256 19.4155 443.681 19.2249 442.605 19.2249C441.513 19.2249 440.934 19.4155 440.938 19.7781ZM449.696 15.2771V15.8528H446.262V15.2771H447.62V14.365H448.346V15.2771H449.696ZM446.486 17.7968C446.482 16.8958 447.115 16.2566 447.983 16.2566C448.859 16.2566 449.484 16.8958 449.488 17.7968C449.484 18.7127 448.859 19.3557 447.983 19.352C447.115 19.3557 446.482 18.7127 446.486 17.7968ZM447.134 17.7968C447.13 18.365 447.485 18.7464 447.983 18.7464C448.481 18.7464 448.84 18.365 448.84 17.7968C448.84 17.2398 448.481 16.851 447.983 16.8472C447.485 16.851 447.13 17.2398 447.134 17.7968ZM450.013 20.5557V14.3201H450.707V16.9594H451.502V14.1705H452.197V20.8698H451.502V17.5426H450.707V20.5557H450.013ZM458.169 14.5743C459.646 14.578 460.723 15.2846 460.723 16.3538C460.723 17.3556 459.82 18.0249 458.532 18.1258V19.4417H461.348V20.0324H455.02V19.4417H457.806V18.1258C456.525 18.0249 455.619 17.3556 455.623 16.3538C455.619 15.2846 456.699 14.578 458.169 14.5743ZM456.332 16.3538C456.332 17.1052 457.104 17.5725 458.169 17.58C459.242 17.5725 460.009 17.1052 460.013 16.3538C460.009 15.6285 459.242 15.15 458.169 15.1575C457.104 15.15 456.332 15.6285 456.332 16.3538ZM467.437 16.1294V16.6977H462.675V14.4098H463.4V16.1294H467.437ZM461.834 18.1108V17.5426H468.162V18.1108H461.834ZM462.621 20.7127V18.7464H463.354V20.1296H467.483V20.7127H462.621ZM472.745 14.7462C473.772 14.7537 474.848 15.3519 474.852 17.3332C474.852 19.2324 474.007 20.309 472.668 20.309C471.638 20.309 470.92 19.6922 470.785 18.8136H471.626C471.742 19.2697 472.105 19.5875 472.668 19.5912C473.528 19.5875 474.034 18.8622 474.041 17.6248H473.972C473.671 18.0809 473.146 18.3576 472.545 18.3576C471.542 18.3576 470.739 17.6136 470.739 16.5781C470.739 15.5463 471.53 14.7388 472.745 14.7462ZM471.565 16.5631C471.568 17.1911 472.051 17.6884 472.73 17.6846C473.405 17.6884 473.926 17.1538 473.926 16.5556C473.926 15.9687 473.428 15.4341 472.745 15.4341C472.07 15.4341 471.561 15.9425 471.565 16.5631ZM477.46 14.3949C478.501 14.4023 479.27 15.0192 479.273 15.8977C479.27 16.78 478.501 17.3931 477.46 17.3931C476.406 17.3931 475.643 16.78 475.639 15.8977C475.643 15.0192 476.406 14.4023 477.46 14.3949ZM476.357 15.8977C476.353 16.451 476.823 16.8174 477.46 16.8174C478.093 16.8174 478.564 16.451 478.564 15.8977C478.564 15.3519 478.093 14.9855 477.46 14.993C476.823 14.9855 476.353 15.3519 476.357 15.8977ZM476.688 18.4548V17.8865H481.233V19.5763H477.421V20.2193H481.465V20.7875H476.711V19.0454H480.508V18.4548H476.688ZM480.5 17.58V14.1705H481.233V17.58H480.5ZM486.92 17.7295V18.8884C487.553 18.8547 488.194 18.8024 488.795 18.7164L488.85 19.2398C487.287 19.5202 485.608 19.5314 484.374 19.5314L484.281 18.9482C484.837 18.9445 485.496 18.9408 486.187 18.9183V17.7295H486.92ZM484.466 17.408C485.496 17.1202 486.141 16.421 486.179 15.5986H484.651V15.0229H486.187V14.2229H486.92V15.0229H488.471V15.5986H486.92C486.959 16.3874 487.615 17.0641 488.649 17.3332L488.309 17.8865C487.484 17.6585 486.866 17.1725 486.554 16.537C486.253 17.2061 485.643 17.7183 484.813 17.9463L484.466 17.408ZM489.228 20.8847V14.1705H489.96V20.8847H489.228ZM494.575 16.5556V17.4603H497.368V18.0435H491.064V17.4603H493.85V16.5556H494.575ZM491.388 16.3463C492.638 16.2229 493.618 15.6921 493.718 15.0453H491.643V14.4771H496.805V15.0453H494.706C494.81 15.6883 495.79 16.2229 497.044 16.3463L496.782 16.907C495.582 16.7725 494.59 16.2939 494.212 15.5874C493.834 16.2939 492.85 16.7725 491.65 16.907L491.388 16.3463ZM491.812 19.6959C491.812 18.9445 492.707 18.5295 494.212 18.5295C495.706 18.5295 496.593 18.9445 496.597 19.6959C496.593 20.4436 495.706 20.8585 494.212 20.8548C492.707 20.8585 491.812 20.4436 491.812 19.6959ZM492.553 19.6959C492.549 20.0959 493.144 20.3165 494.212 20.3165C495.265 20.3165 495.864 20.0959 495.864 19.6959C495.864 19.2959 495.265 19.0791 494.212 19.0754C493.144 19.0791 492.549 19.2959 492.553 19.6959Z" fill="#434343"/>
<path d="M559.343 17.6094L562.422 20.8906L569.198 13.6719" stroke="#DADADA" stroke-width="3"/>
</g>
<defs>
<clipPath id="clip0_4611_21751">
<rect width="587" height="35" fill="white"/>
</clipPath>
</defs>
</svg>
