<svg width="891" height="64" viewBox="0 0 891 64" fill="none" xmlns="http://www.w3.org/2000/svg">
<g opacity="0.1">
<rect x="0.5" y="0.5" width="890" height="63" rx="7.5" fill="white"/>
<rect x="0.5" y="0.5" width="890" height="63" rx="7.5" stroke="#EAE5E2"/>
<g clip-path="url(#clip0_4558_57498)">
<rect x="20" y="12" width="40" height="40" rx="20" fill="#F9F7F6"/>
<ellipse cx="39.9998" cy="27.7141" rx="7.14286" ry="7.14286" fill="#B5BDC3"/>
<ellipse cx="40.0001" cy="49.1429" rx="14.2857" ry="11.4286" fill="#B5BDC3"/>
</g>
<rect x="19.8551" y="11.8551" width="40.2899" height="40.2899" rx="20.1449" stroke="#D2C5B6" stroke-width="0.289855"/>
<path d="M125.905 23.0427C125.935 22.9506 126.065 22.9506 126.095 23.0427L128.054 29.0725C128.068 29.1137 128.106 29.1416 128.149 29.1416H134.49C134.586 29.1416 134.627 29.2656 134.548 29.3225L129.419 33.0491C129.384 33.0746 129.369 33.1197 129.383 33.1609L131.342 39.1907C131.372 39.2828 131.266 39.3594 131.188 39.3025L126.059 35.5759C126.024 35.5504 125.976 35.5504 125.941 35.5759L120.812 39.3025C120.734 39.3594 120.628 39.2828 120.658 39.1907L122.617 33.1609C122.631 33.1197 122.616 33.0746 122.581 33.0491L117.452 29.3225C117.373 29.2656 117.414 29.1416 117.51 29.1416H123.851C123.894 29.1416 123.932 29.1137 123.946 29.0725L125.905 23.0427Z" fill="#F5BB80" stroke="#F5BB80" stroke-width="1.5" stroke-linecap="round"/>
<path d="M149.905 23.0427C149.935 22.9506 150.065 22.9506 150.095 23.0427L152.054 29.0725C152.068 29.1137 152.106 29.1416 152.149 29.1416H158.49C158.586 29.1416 158.627 29.2656 158.548 29.3225L153.419 33.0491C153.384 33.0746 153.369 33.1197 153.383 33.1609L155.342 39.1907C155.372 39.2828 155.266 39.3594 155.188 39.3025L150.059 35.5759C150.024 35.5504 149.976 35.5504 149.941 35.5759L144.812 39.3025C144.734 39.3594 144.628 39.2828 144.658 39.1907L146.617 33.1609C146.631 33.1197 146.616 33.0746 146.581 33.0491L141.452 29.3225C141.373 29.2656 141.414 29.1416 141.51 29.1416H147.851C147.894 29.1416 147.932 29.1137 147.946 29.0725L149.905 23.0427Z" fill="#F5BB80" stroke="#F5BB80" stroke-width="1.5" stroke-linecap="round"/>
<path d="M173.905 23.0427C173.935 22.9506 174.065 22.9506 174.095 23.0427L176.054 29.0725C176.068 29.1137 176.106 29.1416 176.149 29.1416H182.49C182.586 29.1416 182.627 29.2656 182.548 29.3225L177.419 33.0491C177.384 33.0746 177.369 33.1197 177.383 33.1609L179.342 39.1907C179.372 39.2828 179.266 39.3594 179.188 39.3025L174.059 35.5759C174.024 35.5504 173.976 35.5504 173.941 35.5759L168.812 39.3025C168.734 39.3594 168.628 39.2828 168.658 39.1907L170.617 33.1609C170.631 33.1197 170.616 33.0746 170.581 33.0491L165.452 29.3225C165.373 29.2656 165.414 29.1416 165.51 29.1416H171.851C171.894 29.1416 171.932 29.1137 171.946 29.0725L173.905 23.0427Z" fill="#F5BB80" stroke="#F5BB80" stroke-width="1.5" stroke-linecap="round"/>
<path d="M197.905 23.0427C197.935 22.9506 198.065 22.9506 198.095 23.0427L200.054 29.0725C200.068 29.1137 200.106 29.1416 200.149 29.1416H206.49C206.586 29.1416 206.627 29.2656 206.548 29.3225L201.419 33.0491C201.384 33.0746 201.369 33.1197 201.383 33.1609L203.342 39.1907C203.372 39.2828 203.266 39.3594 203.188 39.3025L198.059 35.5759C198.024 35.5504 197.976 35.5504 197.941 35.5759L192.812 39.3025C192.734 39.3594 192.628 39.2828 192.658 39.1907L194.617 33.1609C194.631 33.1197 194.616 33.0746 194.581 33.0491L189.452 29.3225C189.373 29.2656 189.414 29.1416 189.51 29.1416H195.851C195.894 29.1416 195.932 29.1137 195.946 29.0725L197.905 23.0427Z" fill="#F5BB80" stroke="#F5BB80" stroke-width="1.5" stroke-linecap="round"/>
<path d="M221.905 23.0427C221.935 22.9506 222.065 22.9506 222.095 23.0427L224.054 29.0725C224.068 29.1137 224.106 29.1416 224.149 29.1416H230.49C230.586 29.1416 230.627 29.2656 230.548 29.3225L225.419 33.0491C225.384 33.0746 225.369 33.1197 225.383 33.1609L227.342 39.1907C227.372 39.2828 227.266 39.3594 227.188 39.3025L222.059 35.5759C222.024 35.5504 221.976 35.5504 221.941 35.5759L216.812 39.3025C216.734 39.3594 216.628 39.2828 216.658 39.1907L218.617 33.1609C218.631 33.1197 218.616 33.0746 218.581 33.0491L213.452 29.3225C213.373 29.2656 213.414 29.1416 213.51 29.1416H219.851C219.894 29.1416 219.932 29.1137 219.946 29.0725L221.905 23.0427Z" fill="#F5BB80" stroke="#F5BB80" stroke-width="1.5" stroke-linecap="round"/>
<path d="M264.855 27.8203C264.855 29.2917 264.654 30.6816 264.25 31.9902C263.853 33.2923 263.27 34.4382 262.502 35.4277C261.734 36.4173 260.809 37.1693 259.729 37.6836L258.4 35.8672C259.357 35.444 260.188 34.8223 260.891 34.002C261.594 33.1751 262.131 32.2279 262.502 31.1602C262.88 30.0859 263.068 28.9727 263.068 27.8203V24.998H264.855V27.8203ZM265.256 27.8203C265.256 28.9141 265.438 29.972 265.803 30.9941C266.167 32.0163 266.695 32.9277 267.385 33.7285C268.081 34.5293 268.895 35.1315 269.826 35.5352L268.537 37.2734C267.495 36.7852 266.59 36.0658 265.822 35.1152C265.054 34.1582 264.468 33.0547 264.064 31.8047C263.661 30.5547 263.459 29.2266 263.459 27.8203V24.998H265.256V27.8203ZM273.273 41.2676H271.076V23.582H273.273V41.2676ZM291.037 41.2188H288.986V23.582H291.037V41.2188ZM289.494 32.2441H286.359V30.4961H289.494V32.2441ZM286.984 40.3496H285.001V23.9141H286.984V40.3496ZM277.599 35.2812C278.934 35.2812 280.07 35.252 281.007 35.1934C281.945 35.1348 282.902 35.0143 283.878 34.832L284.044 36.6094C283.048 36.7982 282.069 36.9284 281.105 37C280.148 37.0651 278.979 37.1009 277.599 37.1074H276.398V35.2812H277.599ZM282.99 27.4297H278.576V36.1602H276.398V25.6719H282.99V27.4297ZM303.37 31.9805H300.265V30.2324H303.37V31.9805ZM308.351 41.2188H306.261V23.582H308.351V41.2188ZM304.718 40.3887H302.657V23.8848H304.718V40.3887ZM297.11 24.9199C297.892 24.9199 298.572 25.1738 299.151 25.6816C299.731 26.1895 300.18 26.9186 300.499 27.8691C300.818 28.8197 300.978 29.9362 300.978 31.2188C300.978 32.4948 300.818 33.6113 300.499 34.5684C300.18 35.5189 299.731 36.2513 299.151 36.7656C298.572 37.2799 297.892 37.5371 297.11 37.5371C296.342 37.5371 295.668 37.2799 295.089 36.7656C294.516 36.2513 294.07 35.5189 293.751 34.5684C293.439 33.6113 293.282 32.4948 293.282 31.2188C293.282 29.9297 293.439 28.8132 293.751 27.8691C294.07 26.9186 294.519 26.1895 295.099 25.6816C295.678 25.1738 296.349 24.9199 297.11 24.9199ZM297.11 26.9707C296.733 26.9707 296.407 27.1335 296.134 27.459C295.86 27.7845 295.652 28.2663 295.509 28.9043C295.372 29.5358 295.304 30.3073 295.304 31.2188C295.304 32.1237 295.372 32.8952 295.509 33.5332C295.652 34.1647 295.86 34.6432 296.134 34.9688C296.414 35.2943 296.739 35.457 297.11 35.457C297.495 35.457 297.823 35.2943 298.097 34.9688C298.377 34.6432 298.592 34.1647 298.741 33.5332C298.891 32.8952 298.966 32.1237 298.966 31.2188C298.966 30.3073 298.891 29.5358 298.741 28.9043C298.592 28.2663 298.377 27.7845 298.097 27.459C297.823 27.1335 297.495 26.9707 297.11 26.9707ZM329.287 41.2188H327.129V23.543H329.287V41.2188ZM331.563 32.1172H328.389V30.3008H331.563V32.1172ZM316.397 35.0078C317.1 35.0143 317.751 34.9948 318.35 34.9492C318.949 34.9036 319.57 34.8158 320.215 34.6855L320.4 36.4824C319.717 36.6126 319.076 36.6973 318.477 36.7363C317.878 36.7754 317.184 36.7949 316.397 36.7949H315.547V35.0078H316.397ZM320.088 27.1367H317.705V35.8184H315.547V25.3789H320.088V27.1367ZM321.943 35.0078C322.953 35.0078 323.76 34.985 324.365 34.9395C324.971 34.8874 325.566 34.7897 326.152 34.6465L326.328 36.4434C325.716 36.5931 325.114 36.6908 324.522 36.7363C323.929 36.7754 323.07 36.7949 321.943 36.7949H321.045V35.0078H321.943ZM325.791 27.1367H323.184V35.8574H321.045V25.3789H325.791V27.1367ZM346.22 41.2676H344.072V23.582H346.22V41.2676ZM348.945 32.1758H345.732V30.3691H348.945V32.1758ZM334.589 35.291C336.295 35.2975 337.76 35.2617 338.984 35.1836C340.214 35.1055 341.458 34.9557 342.714 34.7344L342.91 36.4824C341.627 36.7103 340.348 36.8698 339.072 36.9609C337.802 37.0521 336.308 37.1009 334.589 37.1074H333.125V35.291H334.589ZM341.211 31.7754H335.283V35.9941H333.125V30.0469H339.043V26.8828H333.105V25.1152H341.211V31.7754ZM368.231 41.2676H366.063V23.582H368.231V41.2676ZM370.956 32.0684H367.743V30.2812H370.956V32.0684ZM356.581 35.1348C358.215 35.1413 359.65 35.1022 360.887 35.0176C362.131 34.9329 363.384 34.7767 364.647 34.5488L364.891 36.3848C363.615 36.6126 362.349 36.7624 361.092 36.834C359.842 36.9056 358.339 36.9382 356.581 36.9316H355.126V35.1348H356.581ZM363.387 27.0195H357.294V36.0137H355.126V25.252H363.387V27.0195ZM387.791 34.959H371.658V33.2012H387.791V34.959ZM386.18 40.9062H373.719V39.1289H386.18V40.9062ZM375.897 39.8613H373.719V36.0723H375.897V39.8613ZM385.799 28.7676H375.858V30.7988H373.699V27.1953H383.611V25.75H373.651V24.0605H385.799V28.7676ZM386.141 31.9121H373.699V30.252H386.141V31.9121ZM406.745 26.4043H395.583V24.6562H406.745V26.4043ZM409.763 33.9531H393.689V32.1855H409.763V33.9531ZM402.751 41.2578H400.564V33.4062H402.751V41.2578ZM407.8 26.2285C407.8 27.0944 407.787 27.8366 407.761 28.4551C407.741 29.0736 407.68 29.7897 407.575 30.6035C407.478 31.4173 407.321 32.2995 407.107 33.25L404.958 33.0059C405.173 32.1009 405.329 31.2546 405.427 30.4668C405.525 29.6725 405.583 28.9727 405.603 28.3672C405.622 27.7617 405.632 27.0488 405.632 26.2285V24.6562H407.8V26.2285ZM427.087 39.1094H410.954V37.3223H427.087V39.1094ZM420.094 37.8691H417.917V33.2793H420.094V37.8691ZM419.694 26.6777C419.694 27.8887 419.385 29.002 418.766 30.0176C418.148 31.0332 417.292 31.8861 416.198 32.5762C415.111 33.2598 413.88 33.735 412.507 34.002L411.647 32.2832C412.819 32.0814 413.877 31.7005 414.821 31.1406C415.772 30.5807 416.514 29.9102 417.048 29.1289C417.581 28.3477 417.848 27.5306 417.848 26.6777V25.8867H419.694V26.6777ZM420.114 26.6777C420.114 27.5436 420.384 28.3607 420.925 29.1289C421.465 29.8971 422.217 30.5547 423.18 31.1016C424.144 31.6419 425.228 32.0065 426.432 32.1953L425.573 33.9043C424.186 33.6504 422.94 33.1882 421.833 32.5176C420.732 31.8405 419.87 31.0007 419.245 29.998C418.62 28.9954 418.307 27.8887 418.307 26.6777V25.8867H420.114V26.6777ZM425.68 26.7852H412.282V25.0176H425.68V26.7852ZM442.037 41.209H439.869V23.582H442.037V41.209ZM444.655 32.2832H441.481V30.4863H444.655V32.2832ZM437.379 25.4277C437.379 27.2246 437.109 28.8978 436.569 30.4473C436.035 31.9902 435.172 33.4095 433.981 34.7051C432.789 35.9941 431.246 37.1107 429.352 38.0547L428.131 36.375C429.726 35.5677 431.048 34.6465 432.096 33.6113C433.151 32.5762 433.938 31.4141 434.459 30.125C434.98 28.8294 435.24 27.3906 435.24 25.8086V25.4277H437.379ZM436.344 27.2148H429.049V25.4277H436.344V27.2148ZM465.034 41.2676H462.866V23.582H465.034V41.2676ZM463.521 30.9355H457.818V29.168H463.521V30.9355ZM453.335 36.4629H451.158V25.5059H453.335V36.4629ZM452.593 35.2715C454.032 35.2585 455.393 35.1999 456.675 35.0957C457.958 34.985 459.243 34.8027 460.533 34.5488L460.777 36.3359C459.449 36.6029 458.127 36.7917 456.812 36.9023C455.497 37.013 454.09 37.0684 452.593 37.0684H451.158V35.2715H452.593ZM483.608 35.3398H467.475V33.582H483.608V35.3398ZM476.557 41.2188H474.419V34.6855H476.557V41.2188ZM481.626 31.5215H469.429V24.4902H481.626V31.5215ZM471.557 29.8125H479.458V26.2285H471.557V29.8125ZM497.523 35.7598C499.489 35.7598 501 35.9941 502.055 36.4629C503.109 36.9251 503.637 37.6022 503.637 38.4941C503.637 39.3861 503.109 40.0632 502.055 40.5254C501.006 40.9941 499.496 41.235 497.523 41.248C495.531 41.235 494.008 40.9941 492.953 40.5254C491.898 40.0632 491.371 39.3861 491.371 38.4941C491.371 37.5957 491.902 36.9154 492.963 36.4531C494.024 35.9909 495.544 35.7598 497.523 35.7598ZM497.523 37.3125C496.651 37.3125 495.922 37.3581 495.336 37.4492C494.756 37.5339 494.32 37.6641 494.027 37.8398C493.734 38.0156 493.588 38.2337 493.588 38.4941C493.588 38.748 493.734 38.9629 494.027 39.1387C494.32 39.3079 494.756 39.4349 495.336 39.5195C495.915 39.6107 496.644 39.6562 497.523 39.6562C498.402 39.6562 499.128 39.6107 499.701 39.5195C500.28 39.4349 500.713 39.3079 501 39.1387C501.293 38.9629 501.439 38.748 501.439 38.4941C501.439 38.2337 501.293 38.0156 501 37.8398C500.707 37.6641 500.271 37.5339 499.691 37.4492C499.118 37.3581 498.396 37.3125 497.523 37.3125ZM504.711 26.5996H490.287V24.959H504.711V26.5996ZM497.543 27.1562C499.431 27.1562 500.876 27.3743 501.879 27.8105C502.888 28.2467 503.392 28.8815 503.392 29.7148C503.392 30.5352 502.888 31.1602 501.879 31.5898C500.876 32.0195 499.431 32.2344 497.543 32.2344C495.648 32.2344 494.193 32.0195 493.178 31.5898C492.168 31.1602 491.664 30.5352 491.664 29.7148C491.664 28.8815 492.168 28.2467 493.178 27.8105C494.193 27.3743 495.648 27.1562 497.543 27.1562ZM497.543 28.6211C496.736 28.6211 496.071 28.6602 495.551 28.7383C495.036 28.8164 494.646 28.9368 494.379 29.0996C494.118 29.2624 493.988 29.4674 493.988 29.7148C493.988 29.9427 494.118 30.1315 494.379 30.2812C494.646 30.431 495.036 30.5449 495.551 30.623C496.065 30.7012 496.729 30.7435 497.543 30.75C498.35 30.7435 499.011 30.7012 499.525 30.623C500.04 30.5449 500.427 30.431 500.687 30.2812C500.948 30.1315 501.078 29.9427 501.078 29.7148C501.078 29.4674 500.948 29.2624 500.687 29.0996C500.427 28.9368 500.036 28.8164 499.515 28.7383C499.001 28.6602 498.344 28.6211 497.543 28.6211ZM498.617 26.043H496.449V23.3965H498.617V26.043ZM505.58 34.8027H489.506V33.1426H505.58V34.8027ZM516.097 36.9512H507.699V25.2422H516.097V36.9512ZM509.847 35.2227H513.978V26.9414H509.847V35.2227ZM521.449 41.2676H519.251V23.582H521.449V41.2676ZM540.149 34.168H524.016V32.4492H540.149V34.168ZM533.147 33.25H530.999V30.5059H533.147V33.25ZM528.255 36.2383H536.057V34.9004H538.196V41.0137H526.087V34.9004H528.255V36.2383ZM536.057 39.3242V37.8887H528.255V39.3242H536.057ZM538.157 28.2695H528.216V30.4082H526.057V26.707H535.97V25.5547H526.009V23.8848H538.157V28.2695ZM538.499 31.1602H526.057V29.5H538.499V31.1602ZM555.12 41.2676H552.952V23.582H555.12V41.2676ZM557.844 32.0684H554.631V30.2812H557.844V32.0684ZM543.469 35.1348C545.103 35.1413 546.539 35.1022 547.776 35.0176C549.019 34.9329 550.273 34.7767 551.536 34.5488L551.78 36.3848C550.504 36.6126 549.237 36.7624 547.981 36.834C546.731 36.9056 545.227 36.9382 543.469 36.9316H542.014V35.1348H543.469ZM550.276 27.0195H544.182V36.0137H542.014V25.252H550.276V27.0195ZM560.705 39.6562C560.432 39.6562 560.178 39.5879 559.943 39.4512C559.709 39.3079 559.523 39.1224 559.387 38.8945C559.256 38.6602 559.191 38.4062 559.191 38.1328C559.191 37.8659 559.256 37.6185 559.387 37.3906C559.523 37.1562 559.709 36.974 559.943 36.8438C560.178 36.707 560.432 36.6387 560.705 36.6387C560.965 36.6387 561.213 36.707 561.447 36.8438C561.682 36.974 561.867 37.1562 562.004 37.3906C562.141 37.6185 562.209 37.8659 562.209 38.1328C562.209 38.4062 562.141 38.6602 562.004 38.8945C561.867 39.1224 561.682 39.3079 561.447 39.4512C561.213 39.5879 560.965 39.6562 560.705 39.6562Z" fill="#434343"/>
</g>
<defs>
<clipPath id="clip0_4558_57498">
<rect x="20" y="12" width="40" height="40" rx="20" fill="white"/>
</clipPath>
</defs>
</svg>
