<svg width="893" height="94" viewBox="0 0 893 94" fill="none" xmlns="http://www.w3.org/2000/svg">
<g filter="url(#filter0_d_4551_57298)">
<rect x="15" y="15" width="863" height="64" rx="8" fill="white" shape-rendering="crispEdges"/>
<rect x="13.5" y="13.5" width="866" height="67" rx="9.5" stroke="#10D277" stroke-width="3" shape-rendering="crispEdges"/>
<rect x="36" y="36" width="22" height="22" rx="11" stroke="#BBBBBB" stroke-width="2"/>
<circle cx="47" cy="47" r="6" fill="#10D277"/>
<path d="M75.7764 48.8486L80.1377 42.1016H81.0947V43.8926H80.4727L77.3486 48.7119V48.7939H83.3506V50.0654H75.7764V48.8486ZM80.5752 49.7031L80.582 49.1426V42.1016H82.0107V52H80.5752V49.7031Z" fill="#2C2C2C"/>
<path d="M826 49.8189C829.256 49.8106 832.025 51.3057 833.043 54.5242C830.991 55.7748 828.577 56.2564 826 56.2501C823.423 56.2564 821.008 55.7748 818.957 54.5242C819.976 51.3022 822.74 49.8105 826 49.8189Z" stroke="#8D8D8D" stroke-width="1.5" stroke-linecap="square"/>
<circle cx="826" cy="42.1697" r="4.41973" stroke="#8D8D8D" stroke-width="1.5" stroke-linecap="square"/>
<path d="M847.623 52H846.106V43.6123H846.051L843.693 45.1572V43.7148L846.147 42.1016H847.623V52ZM853.632 52.1367C852.962 52.1367 852.36 52.0228 851.827 51.7949C851.294 51.5671 850.875 51.248 850.569 50.8379C850.264 50.4232 850.1 49.9469 850.077 49.4092H851.595C851.618 49.6872 851.72 49.9355 851.902 50.1543C852.085 50.373 852.326 50.5417 852.627 50.6602C852.928 50.7786 853.26 50.8379 853.625 50.8379C854.017 50.8379 854.372 50.7695 854.691 50.6328C855.01 50.4915 855.257 50.3024 855.43 50.0654C855.603 49.8239 855.689 49.5459 855.689 49.2314C855.689 48.8988 855.603 48.6048 855.43 48.3496C855.257 48.0944 855.001 47.8962 854.664 47.7549C854.331 47.6136 853.93 47.543 853.461 47.543H852.613V46.3193H853.461C853.835 46.3193 854.167 46.2533 854.459 46.1211C854.751 45.9889 854.976 45.8044 855.136 45.5674C855.295 45.3304 855.373 45.057 855.368 44.7471C855.373 44.4463 855.304 44.1797 855.163 43.9473C855.022 43.7148 854.821 43.5371 854.562 43.4141C854.302 43.2865 854.001 43.2227 853.659 43.2227C853.322 43.2227 853.01 43.2819 852.723 43.4004C852.436 43.5189 852.201 43.6875 852.019 43.9062C851.841 44.125 851.745 44.3825 851.731 44.6787H850.282C850.305 44.1501 850.467 43.6807 850.768 43.2705C851.073 42.8558 851.479 42.5345 851.984 42.3066C852.495 42.0788 853.055 41.9648 853.666 41.9648C854.299 41.9648 854.855 42.0856 855.334 42.3271C855.817 42.5641 856.188 42.8877 856.448 43.2979C856.708 43.708 856.833 44.1615 856.824 44.6582C856.833 45.0228 856.765 45.3577 856.619 45.6631C856.478 45.9639 856.273 46.2168 856.004 46.4219C855.74 46.6224 855.43 46.766 855.074 46.8525V46.9277C855.521 46.987 855.904 47.126 856.223 47.3447C856.546 47.5589 856.792 47.8301 856.961 48.1582C857.13 48.4863 857.209 48.86 857.2 49.2793C857.209 49.8171 857.059 50.3047 856.749 50.7422C856.439 51.1751 856.011 51.5169 855.464 51.7676C854.917 52.0137 854.306 52.1367 853.632 52.1367Z" fill="#8D8D8D"/>
</g>
<defs>
<filter id="filter0_d_4551_57298" x="0" y="0" width="893" height="94" filterUnits="userSpaceOnUse" color-interpolation-filters="sRGB">
<feFlood flood-opacity="0" result="BackgroundImageFix"/>
<feColorMatrix in="SourceAlpha" type="matrix" values="0 0 0 0 0 0 0 0 0 0 0 0 0 0 0 0 0 0 127 0" result="hardAlpha"/>
<feOffset/>
<feGaussianBlur stdDeviation="6"/>
<feComposite in2="hardAlpha" operator="out"/>
<feColorMatrix type="matrix" values="0 0 0 0 0.378205 0 0 0 0 1 0 0 0 0 0.461111 0 0 0 0.25 0"/>
<feBlend mode="normal" in2="BackgroundImageFix" result="effect1_dropShadow_4551_57298"/>
<feBlend mode="normal" in="SourceGraphic" in2="effect1_dropShadow_4551_57298" result="shape"/>
</filter>
</defs>
</svg>
