<svg width="224" height="72" viewBox="0 0 224 72" fill="none" xmlns="http://www.w3.org/2000/svg">
<g filter="url(#filter0_d_4515_55727)">
<rect x="14" y="13" width="196" height="44" rx="8" fill="#7B6154" shape-rendering="crispEdges"/>
<rect x="13" y="12" width="198" height="46" rx="9" stroke="#F4E4D7" stroke-width="2" shape-rendering="crispEdges"/>
<path d="M93.3496 42.4766H91.6885V26.7354H93.3496V42.4766ZM95.793 34.417H92.9189V33.0283H95.793V34.417ZM89.2275 28.4053C89.2275 29.9814 88.9814 31.4551 88.4893 32.8262C88.0029 34.1914 87.2236 35.4512 86.1514 36.6055C85.085 37.7539 83.7109 38.7441 82.0293 39.5762L81.0977 38.2754C82.5449 37.5488 83.749 36.7109 84.71 35.7617C85.6709 34.8066 86.3916 33.7432 86.8721 32.5713C87.3525 31.3936 87.5928 30.1016 87.5928 28.6953V28.4053H89.2275ZM88.4365 29.7939H81.8711V28.4053H88.4365V29.7939ZM109.679 35.1992H108.018V26.7354H109.679V35.1992ZM101.022 37.7129H108.027V35.9551H109.679V42.292H99.3697V35.9551H101.022V37.7129ZM108.027 40.9385V39.0312H101.022V40.9385H108.027ZM101.136 27.4736C101.933 27.4619 102.648 27.6113 103.281 27.9219C103.92 28.2266 104.42 28.6602 104.784 29.2227C105.147 29.7793 105.329 30.415 105.329 31.1299C105.329 31.8271 105.147 32.4541 104.784 33.0107C104.42 33.5615 103.92 33.9922 103.281 34.3027C102.648 34.6133 101.933 34.7686 101.136 34.7686C100.339 34.7686 99.6216 34.6133 98.983 34.3027C98.3502 33.9922 97.8521 33.5615 97.4888 33.0107C97.1256 32.4541 96.9439 31.8271 96.9439 31.1299C96.9439 30.415 97.1256 29.7793 97.4888 29.2227C97.8521 28.6602 98.3502 28.2266 98.983 27.9219C99.6216 27.6113 100.339 27.4619 101.136 27.4736ZM101.136 28.8711C100.644 28.8594 100.202 28.9502 99.8091 29.1436C99.4224 29.3369 99.1207 29.6064 98.9039 29.9521C98.6871 30.292 98.5787 30.6846 98.5787 31.1299C98.5787 31.5693 98.6871 31.9619 98.9039 32.3076C99.1207 32.6475 99.4224 32.9141 99.8091 33.1074C100.202 33.3008 100.644 33.3975 101.136 33.3975C101.628 33.3975 102.068 33.3008 102.455 33.1074C102.841 32.9141 103.143 32.6475 103.36 32.3076C103.577 31.9619 103.685 31.5693 103.685 31.1299C103.685 30.6846 103.574 30.292 103.351 29.9521C103.134 29.6064 102.833 29.3369 102.446 29.1436C102.065 28.9502 101.628 28.8594 101.136 28.8711ZM124.427 42.4854H122.775V26.7354H124.427V42.4854ZM126.967 34.5049H124.049V33.125H126.967V34.5049ZM121.403 30.5674H112.069V29.2051H121.403V30.5674ZM116.807 31.7363C117.557 31.7363 118.228 31.8916 118.819 32.2021C119.417 32.5127 119.883 32.9463 120.217 33.5029C120.557 34.0596 120.727 34.6895 120.727 35.3926C120.727 36.1016 120.557 36.7344 120.217 37.291C119.883 37.8477 119.417 38.2812 118.819 38.5918C118.228 38.9023 117.557 39.0576 116.807 39.0576C116.051 39.0576 115.377 38.9023 114.785 38.5918C114.193 38.2812 113.728 37.8477 113.388 37.291C113.054 36.7344 112.887 36.1016 112.887 35.3926C112.887 34.6895 113.054 34.0596 113.388 33.5029C113.728 32.9463 114.193 32.5127 114.785 32.2021C115.377 31.8916 116.051 31.7363 116.807 31.7363ZM116.807 33.1162C116.361 33.1162 115.963 33.2129 115.611 33.4062C115.26 33.5938 114.982 33.8604 114.777 34.2061C114.577 34.5518 114.478 34.9473 114.478 35.3926C114.478 35.8438 114.577 36.2393 114.777 36.5791C114.982 36.9189 115.26 37.1855 115.611 37.3789C115.963 37.5664 116.361 37.6602 116.807 37.6602C117.252 37.6602 117.651 37.5664 118.002 37.3789C118.354 37.1855 118.629 36.9189 118.828 36.5791C119.027 36.2393 119.127 35.8438 119.127 35.3926C119.127 34.9473 119.027 34.5518 118.828 34.2061C118.629 33.8604 118.354 33.5938 118.002 33.4062C117.651 33.2129 117.252 33.1162 116.807 33.1162ZM117.624 29.7852H115.963V26.9463H117.624V29.7852ZM140.792 42.4854H139.104V26.7354H140.792V42.4854ZM136.116 28.4316C136.116 30.0371 135.867 31.5225 135.369 32.8877C134.877 34.2471 134.086 35.501 132.996 36.6494C131.906 37.792 130.488 38.7822 128.742 39.6201L127.845 38.2666C129.363 37.5518 130.608 36.7197 131.581 35.7705C132.559 34.8213 133.283 33.7607 133.752 32.5889C134.22 31.417 134.455 30.1221 134.455 28.7041V28.4316H136.116ZM135.175 29.7676H128.61V28.4316H135.175V29.7676Z" fill="white"/>
</g>
<defs>
<filter id="filter0_d_4515_55727" x="0" y="0" width="224" height="72" filterUnits="userSpaceOnUse" color-interpolation-filters="sRGB">
<feFlood flood-opacity="0" result="BackgroundImageFix"/>
<feColorMatrix in="SourceAlpha" type="matrix" values="0 0 0 0 0 0 0 0 0 0 0 0 0 0 0 0 0 0 127 0" result="hardAlpha"/>
<feOffset dy="1"/>
<feGaussianBlur stdDeviation="6"/>
<feComposite in2="hardAlpha" operator="out"/>
<feColorMatrix type="matrix" values="0 0 0 0 0 0 0 0 0 0 0 0 0 0 0 0 0 0 0.4 0"/>
<feBlend mode="normal" in2="BackgroundImageFix" result="effect1_dropShadow_4515_55727"/>
<feBlend mode="normal" in="SourceGraphic" in2="effect1_dropShadow_4515_55727" result="shape"/>
</filter>
</defs>
</svg>
