<svg width="288" height="72" viewBox="0 0 288 72" fill="none" xmlns="http://www.w3.org/2000/svg">
<g filter="url(#filter0_d_4515_55724)">
<rect x="14" y="13" width="260" height="44" rx="8" fill="#7B6154" shape-rendering="crispEdges"/>
<rect x="13" y="12" width="262" height="46" rx="9" stroke="#F4E4D7" stroke-width="2" shape-rendering="crispEdges"/>
<path d="M91.8779 30.4531H93.5566V38.8643H91.8779V30.4531ZM88.5117 33.8193H96.9316V35.498H88.5117V33.8193ZM117.796 40.5254H103.382V39.1455H117.796V40.5254ZM111.371 39.5146H109.736V35.2168H111.371V39.5146ZM116.073 35.5068H105.026V28.0098H116.073V35.5068ZM106.669 34.1885H114.447V29.3457H106.669V34.1885ZM131.981 35.7178H130.32V26.7529H131.981V35.7178ZM131.981 42.292H121.636V36.5264H131.981V42.292ZM123.28 40.9385H130.346V37.8623H123.28V40.9385ZM123.438 27.5439C124.235 27.5439 124.95 27.7021 125.583 28.0186C126.221 28.3291 126.722 28.7686 127.086 29.3369C127.449 29.8994 127.631 30.5439 127.631 31.2705C127.631 31.9795 127.449 32.6152 127.086 33.1777C126.722 33.7402 126.221 34.1797 125.583 34.4961C124.95 34.8125 124.235 34.9707 123.438 34.9707C122.641 34.9707 121.924 34.8125 121.285 34.4961C120.652 34.1797 120.154 33.7402 119.791 33.1777C119.427 32.6152 119.246 31.9795 119.246 31.2705C119.246 30.5439 119.427 29.8994 119.791 29.3369C120.154 28.7686 120.652 28.3291 121.285 28.0186C121.924 27.7021 122.641 27.5439 123.438 27.5439ZM123.438 28.959C122.946 28.9531 122.504 29.0469 122.111 29.2402C121.724 29.4277 121.423 29.7002 121.206 30.0576C120.989 30.4092 120.881 30.8135 120.881 31.2705C120.881 31.71 120.989 32.1055 121.206 32.457C121.423 32.8027 121.724 33.0723 122.111 33.2656C122.504 33.459 122.946 33.5557 123.438 33.5557C123.93 33.5557 124.367 33.459 124.748 33.2656C125.134 33.0723 125.436 32.8027 125.653 32.457C125.876 32.1055 125.987 31.71 125.987 31.2705C125.987 30.8135 125.879 30.4092 125.662 30.0576C125.445 29.7002 125.143 29.4277 124.757 29.2402C124.37 29.0469 123.93 28.9531 123.438 28.959ZM143.362 29.7588C143.362 30.5791 143.219 31.3848 142.931 32.1758C142.65 32.9668 142.231 33.6787 141.675 34.3115C141.118 34.9385 140.453 35.4131 139.68 35.7354L138.774 34.4434C139.46 34.1445 140.049 33.7402 140.541 33.2305C141.033 32.7207 141.405 32.167 141.657 31.5693C141.915 30.9658 142.044 30.3623 142.044 29.7588V27.7197H143.362V29.7588ZM143.643 29.7588C143.643 30.3447 143.766 30.9131 144.013 31.4639C144.264 32.0146 144.628 32.5127 145.102 32.958C145.577 33.4033 146.142 33.752 146.799 34.0039L145.92 35.2783C145.158 34.9795 144.505 34.5518 143.96 33.9951C143.421 33.4326 143.014 32.7852 142.738 32.0527C142.469 31.3203 142.334 30.5557 142.334 29.7588V27.7197H143.643V29.7588ZM152.265 36.4473H150.675V26.7529H152.265V36.4473ZM151.167 32.2285H148.319V30.8574H151.167V32.2285ZM148.847 35.9551H147.291V27.043H148.847V35.9551ZM147.001 36.7549C148.091 36.7549 149.037 36.8662 149.84 37.0889C150.648 37.3115 151.269 37.6396 151.703 38.0732C152.137 38.501 152.353 39.0137 152.353 39.6113C152.353 40.2031 152.137 40.71 151.703 41.1318C151.269 41.5596 150.648 41.8877 149.84 42.1162C149.037 42.3506 148.091 42.4678 147.001 42.4678C145.905 42.4678 144.953 42.3506 144.144 42.1162C143.342 41.8877 142.726 41.5596 142.299 41.1318C141.871 40.71 141.657 40.2031 141.657 39.6113C141.657 39.0137 141.871 38.501 142.299 38.0732C142.726 37.6396 143.342 37.3115 144.144 37.0889C144.953 36.8662 145.905 36.7549 147.001 36.7549ZM147.001 38.0205C146.245 38.0205 145.589 38.082 145.032 38.2051C144.475 38.3223 144.051 38.5039 143.758 38.75C143.471 38.9902 143.327 39.2773 143.327 39.6113C143.327 39.9453 143.471 40.2295 143.758 40.4639C144.051 40.6982 144.472 40.877 145.023 41C145.574 41.123 146.233 41.1846 147.001 41.1846C147.763 41.1846 148.419 41.123 148.97 41C149.52 40.877 149.942 40.6982 150.235 40.4639C150.534 40.2295 150.683 39.9453 150.683 39.6113C150.683 39.2773 150.534 38.9902 150.235 38.75C149.942 38.5039 149.517 38.3223 148.961 38.2051C148.404 38.082 147.751 38.0205 147.001 38.0205ZM159.665 29.1787C159.665 30.2041 159.487 31.1592 159.129 32.0439C158.778 32.9229 158.268 33.6904 157.6 34.3467C156.932 34.9971 156.138 35.4951 155.218 35.8408L154.313 34.4873C155.139 34.2061 155.854 33.7988 156.457 33.2656C157.061 32.7324 157.521 32.1143 157.837 31.4111C158.154 30.708 158.312 29.9639 158.312 29.1787V27.6143H159.665V29.1787ZM159.973 29.0996C159.973 29.832 160.122 30.5293 160.421 31.1914C160.726 31.8535 161.165 32.4336 161.74 32.9316C162.314 33.4238 162.994 33.7988 163.779 34.0566L162.856 35.3574C161.977 35.0352 161.221 34.5693 160.588 33.96C159.955 33.3506 159.466 32.6328 159.121 31.8066C158.781 30.9746 158.611 30.0723 158.611 29.0996V27.6143H159.973V29.0996ZM167.505 36.0342H165.835V26.7354H167.505V36.0342ZM162.223 36.4824C163.33 36.4824 164.283 36.5996 165.079 36.834C165.882 37.0625 166.495 37.4053 166.916 37.8623C167.344 38.3135 167.558 38.8555 167.558 39.4883C167.558 40.1094 167.344 40.6426 166.916 41.0879C166.495 41.5391 165.882 41.8818 165.079 42.1162C164.283 42.3506 163.33 42.4678 162.223 42.4678C161.127 42.4678 160.181 42.3506 159.384 42.1162C158.587 41.8818 157.975 41.5391 157.547 41.0879C157.12 40.6426 156.906 40.1094 156.906 39.4883C156.906 38.8555 157.12 38.3135 157.547 37.8623C157.975 37.4053 158.587 37.0625 159.384 36.834C160.181 36.5996 161.127 36.4824 162.223 36.4824ZM162.223 37.7832C161.467 37.7832 160.811 37.8506 160.254 37.9854C159.704 38.1143 159.282 38.3076 158.989 38.5654C158.702 38.8174 158.558 39.125 158.558 39.4883C158.558 39.8281 158.702 40.124 158.989 40.376C159.282 40.6221 159.704 40.8125 160.254 40.9473C160.811 41.082 161.467 41.1494 162.223 41.1494C162.996 41.1494 163.656 41.082 164.201 40.9473C164.751 40.8125 165.17 40.6221 165.457 40.376C165.75 40.124 165.897 39.8281 165.897 39.4883C165.897 39.125 165.75 38.8174 165.457 38.5654C165.17 38.3076 164.751 38.1143 164.201 37.9854C163.656 37.8506 162.996 37.7832 162.223 37.7832ZM166.134 31.3232H162.513V29.9521H166.134V31.3232ZM182.183 42.4854H180.53V26.7354H182.183V42.4854ZM184.723 34.5049H181.805V33.125H184.723V34.5049ZM179.159 30.5674H169.825V29.2051H179.159V30.5674ZM174.562 31.7363C175.312 31.7363 175.983 31.8916 176.575 32.2021C177.173 32.5127 177.639 32.9463 177.973 33.5029C178.312 34.0596 178.482 34.6895 178.482 35.3926C178.482 36.1016 178.312 36.7344 177.973 37.291C177.639 37.8477 177.173 38.2812 176.575 38.5918C175.983 38.9023 175.312 39.0576 174.562 39.0576C173.807 39.0576 173.133 38.9023 172.541 38.5918C171.949 38.2812 171.483 37.8477 171.144 37.291C170.81 36.7344 170.643 36.1016 170.643 35.3926C170.643 34.6895 170.81 34.0596 171.144 33.5029C171.483 32.9463 171.949 32.5127 172.541 32.2021C173.133 31.8916 173.807 31.7363 174.562 31.7363ZM174.562 33.1162C174.117 33.1162 173.719 33.2129 173.367 33.4062C173.016 33.5938 172.737 33.8604 172.532 34.2061C172.333 34.5518 172.233 34.9473 172.233 35.3926C172.233 35.8438 172.333 36.2393 172.532 36.5791C172.737 36.9189 173.016 37.1855 173.367 37.3789C173.719 37.5664 174.117 37.6602 174.562 37.6602C175.008 37.6602 175.406 37.5664 175.758 37.3789C176.109 37.1855 176.385 36.9189 176.584 36.5791C176.783 36.2393 176.883 35.8438 176.883 35.3926C176.883 34.9473 176.783 34.5518 176.584 34.2061C176.385 33.8604 176.109 33.5938 175.758 33.4062C175.406 33.2129 175.008 33.1162 174.562 33.1162ZM175.38 29.7852H173.719V26.9463H175.38V29.7852ZM198.547 42.4854H196.86V26.7354H198.547V42.4854ZM193.872 28.4316C193.872 30.0371 193.623 31.5225 193.125 32.8877C192.632 34.2471 191.841 35.501 190.752 36.6494C189.662 37.792 188.244 38.7822 186.498 39.6201L185.601 38.2666C187.119 37.5518 188.364 36.7197 189.336 35.7705C190.315 34.8213 191.039 33.7607 191.507 32.5889C191.976 31.417 192.21 30.1221 192.21 28.7041V28.4316H193.872ZM192.931 29.7676H186.366V28.4316H192.931V29.7676Z" fill="white"/>
</g>
<defs>
<filter id="filter0_d_4515_55724" x="0" y="0" width="288" height="72" filterUnits="userSpaceOnUse" color-interpolation-filters="sRGB">
<feFlood flood-opacity="0" result="BackgroundImageFix"/>
<feColorMatrix in="SourceAlpha" type="matrix" values="0 0 0 0 0 0 0 0 0 0 0 0 0 0 0 0 0 0 127 0" result="hardAlpha"/>
<feOffset dy="1"/>
<feGaussianBlur stdDeviation="6"/>
<feComposite in2="hardAlpha" operator="out"/>
<feColorMatrix type="matrix" values="0 0 0 0 0 0 0 0 0 0 0 0 0 0 0 0 0 0 0.4 0"/>
<feBlend mode="normal" in2="BackgroundImageFix" result="effect1_dropShadow_4515_55724"/>
<feBlend mode="normal" in="SourceGraphic" in2="effect1_dropShadow_4515_55724" result="shape"/>
</filter>
</defs>
</svg>
