<svg width="891" height="64" viewBox="0 0 891 64" fill="none" xmlns="http://www.w3.org/2000/svg">
<g opacity="0.4">
<rect x="0.5" y="0.5" width="890" height="63" rx="7.5" fill="white"/>
<rect x="0.5" y="0.5" width="890" height="63" rx="7.5" stroke="#EAE5E2"/>
<g clip-path="url(#clip0_4553_57412)">
<rect x="20" y="12" width="40" height="40" rx="20" fill="#F9F7F6"/>
<ellipse cx="39.9998" cy="27.7141" rx="7.14286" ry="7.14286" fill="#B5BDC3"/>
<ellipse cx="40.0001" cy="49.1429" rx="14.2857" ry="11.4286" fill="#B5BDC3"/>
</g>
<rect x="19.8551" y="11.8551" width="40.2899" height="40.2899" rx="20.1449" stroke="#D2C5B6" stroke-width="0.289855"/>
<path d="M125.905 23.0427C125.935 22.9506 126.065 22.9506 126.095 23.0427L128.054 29.0725C128.068 29.1137 128.106 29.1416 128.149 29.1416H134.49C134.586 29.1416 134.627 29.2656 134.548 29.3225L129.419 33.0491C129.384 33.0746 129.369 33.1197 129.383 33.1609L131.342 39.1907C131.372 39.2828 131.266 39.3594 131.188 39.3025L126.059 35.5759C126.024 35.5504 125.976 35.5504 125.941 35.5759L120.812 39.3025C120.734 39.3594 120.628 39.2828 120.658 39.1907L122.617 33.1609C122.631 33.1197 122.616 33.0746 122.581 33.0491L117.452 29.3225C117.373 29.2656 117.414 29.1416 117.51 29.1416H123.851C123.894 29.1416 123.932 29.1137 123.946 29.0725L125.905 23.0427Z" fill="#F5BB80" stroke="#F5BB80" stroke-width="1.5" stroke-linecap="round"/>
<path d="M149.905 23.0427C149.935 22.9506 150.065 22.9506 150.095 23.0427L152.054 29.0725C152.068 29.1137 152.106 29.1416 152.149 29.1416H158.49C158.586 29.1416 158.627 29.2656 158.548 29.3225L153.419 33.0491C153.384 33.0746 153.369 33.1197 153.383 33.1609L155.342 39.1907C155.372 39.2828 155.266 39.3594 155.188 39.3025L150.059 35.5759C150.024 35.5504 149.976 35.5504 149.941 35.5759L144.812 39.3025C144.734 39.3594 144.628 39.2828 144.658 39.1907L146.617 33.1609C146.631 33.1197 146.616 33.0746 146.581 33.0491L141.452 29.3225C141.373 29.2656 141.414 29.1416 141.51 29.1416H147.851C147.894 29.1416 147.932 29.1137 147.946 29.0725L149.905 23.0427Z" fill="#F5BB80" stroke="#F5BB80" stroke-width="1.5" stroke-linecap="round"/>
<path d="M173.905 23.0427C173.935 22.9506 174.065 22.9506 174.095 23.0427L176.054 29.0725C176.068 29.1137 176.106 29.1416 176.149 29.1416H182.49C182.586 29.1416 182.627 29.2656 182.548 29.3225L177.419 33.0491C177.384 33.0746 177.369 33.1197 177.383 33.1609L179.342 39.1907C179.372 39.2828 179.266 39.3594 179.188 39.3025L174.059 35.5759C174.024 35.5504 173.976 35.5504 173.941 35.5759L168.812 39.3025C168.734 39.3594 168.628 39.2828 168.658 39.1907L170.617 33.1609C170.631 33.1197 170.616 33.0746 170.581 33.0491L165.452 29.3225C165.373 29.2656 165.414 29.1416 165.51 29.1416H171.851C171.894 29.1416 171.932 29.1137 171.946 29.0725L173.905 23.0427Z" fill="#F5BB80" stroke="#F5BB80" stroke-width="1.5" stroke-linecap="round"/>
<path d="M197.905 23.0427C197.935 22.9506 198.065 22.9506 198.095 23.0427L200.054 29.0725C200.068 29.1137 200.106 29.1416 200.149 29.1416H206.49C206.586 29.1416 206.627 29.2656 206.548 29.3225L201.419 33.0491C201.384 33.0746 201.369 33.1197 201.383 33.1609L203.342 39.1907C203.372 39.2828 203.266 39.3594 203.188 39.3025L198.059 35.5759C198.024 35.5504 197.976 35.5504 197.941 35.5759L192.812 39.3025C192.734 39.3594 192.628 39.2828 192.658 39.1907L194.617 33.1609C194.631 33.1197 194.616 33.0746 194.581 33.0491L189.452 29.3225C189.373 29.2656 189.414 29.1416 189.51 29.1416H195.851C195.894 29.1416 195.932 29.1137 195.946 29.0725L197.905 23.0427Z" fill="#F5BB80" stroke="#F5BB80" stroke-width="1.5" stroke-linecap="round"/>
<path d="M221.905 23.0427C221.935 22.9506 222.065 22.9506 222.095 23.0427L224.054 29.0725C224.068 29.1137 224.106 29.1416 224.149 29.1416H230.49C230.586 29.1416 230.627 29.2656 230.548 29.3225L225.419 33.0491C225.384 33.0746 225.369 33.1197 225.383 33.1609L227.342 39.1907C227.372 39.2828 227.266 39.3594 227.188 39.3025L222.059 35.5759C222.024 35.5504 221.976 35.5504 221.941 35.5759L216.812 39.3025C216.734 39.3594 216.628 39.2828 216.658 39.1907L218.617 33.1609C218.631 33.1197 218.616 33.0746 218.581 33.0491L213.452 29.3225C213.373 29.2656 213.414 29.1416 213.51 29.1416H219.851C219.894 29.1416 219.932 29.1137 219.946 29.0725L221.905 23.0427Z" fill="#DADADA" stroke="#DADADA" stroke-width="1.5" stroke-linecap="round"/>
<path d="M273.4 41.2676H271.232V23.582H273.4V41.2676ZM271.887 30.9355H266.184V29.168H271.887V30.9355ZM261.701 36.4629H259.523V25.5059H261.701V36.4629ZM260.959 35.2715C262.398 35.2585 263.758 35.1999 265.041 35.0957C266.324 34.985 267.609 34.8027 268.898 34.5488L269.143 36.3359C267.814 36.6029 266.493 36.7917 265.178 36.9023C263.863 37.013 262.456 37.0684 260.959 37.0684H259.523V35.2715H260.959ZM291.974 35.3398H275.841V33.582H291.974V35.3398ZM284.923 41.2188H282.785V34.6855H284.923V41.2188ZM289.992 31.5215H277.794V24.4902H289.992V31.5215ZM279.923 29.8125H287.824V26.2285H279.923V29.8125ZM311.788 33.4941H309.62V23.582H311.788V33.4941ZM314.258 29.3828H311.172V27.6055H314.258V29.3828ZM306.885 24.6562C306.885 26.1797 306.563 27.5469 305.919 28.7578C305.274 29.9622 304.333 30.9909 303.096 31.8438C301.859 32.6966 300.359 33.3607 298.594 33.8359L297.725 32.0879C299.197 31.7168 300.443 31.2155 301.465 30.584C302.494 29.946 303.269 29.2135 303.79 28.3867C304.31 27.5534 304.571 26.6517 304.571 25.6816V24.6562H306.885ZM305.86 26.4043H298.575V24.6562H305.86V26.4043ZM311.788 41.0137H300.372V34.2168H311.788V41.0137ZM302.53 39.2852H309.639V35.9746H302.53V39.2852ZM328.467 27.9961H323.672V26.2676H328.467V27.9961ZM328.525 31.541H323.672V29.7637H328.525V31.541ZM329.912 33.9629H327.744V23.582H329.912V33.9629ZM324.18 32.8984H315.899V24.9004H324.18V32.8984ZM318.057 31.1699H322.051V26.6289H318.057V31.1699ZM323.945 34.4414C325.195 34.4414 326.27 34.5749 327.168 34.8418C328.073 35.1022 328.766 35.4896 329.248 36.0039C329.73 36.5117 329.971 37.1237 329.971 37.8398C329.971 38.543 329.73 39.1484 329.248 39.6562C328.766 40.1641 328.073 40.5482 327.168 40.8086C326.27 41.0755 325.195 41.209 323.945 41.209C322.708 41.209 321.637 41.0755 320.732 40.8086C319.834 40.5482 319.141 40.1641 318.652 39.6562C318.171 39.1484 317.93 38.543 317.93 37.8398C317.93 37.1237 318.171 36.5117 318.652 36.0039C319.141 35.4896 319.834 35.1022 320.732 34.8418C321.637 34.5749 322.708 34.4414 323.945 34.4414ZM323.945 36.1016C323.119 36.1016 322.419 36.1699 321.846 36.3066C321.273 36.4368 320.837 36.6322 320.537 36.8926C320.238 37.1465 320.088 37.4622 320.088 37.8398C320.088 38.1914 320.238 38.4941 320.537 38.748C320.837 39.002 321.276 39.2005 321.856 39.3438C322.435 39.4805 323.132 39.5488 323.945 39.5488C324.772 39.5488 325.472 39.4805 326.045 39.3438C326.624 39.2005 327.061 39.0052 327.354 38.7578C327.653 38.5039 327.803 38.1979 327.803 37.8398C327.803 37.4622 327.653 37.1465 327.354 36.8926C327.061 36.6322 326.624 36.4368 326.045 36.3066C325.472 36.1699 324.772 36.1016 323.945 36.1016ZM341.943 24.7441C341.943 26.248 341.608 27.5892 340.937 28.7676C340.273 29.946 339.319 30.9355 338.076 31.7363C336.839 32.5306 335.348 33.1328 333.603 33.543L332.714 31.8145C334.212 31.4889 335.475 31.0365 336.504 30.457C337.539 29.8711 338.32 29.1908 338.847 28.416C339.375 27.6348 339.638 26.7982 339.638 25.9062V24.7441H341.943ZM340.927 26.4922H333.642V24.7441H340.927V26.4922ZM347.06 33.1523H344.873V23.6016H347.06V33.1523ZM347.304 35.7109H335.273V34.0215H347.304V35.7109ZM347.5 40.9551H335.117V39.207H347.5V40.9551ZM339.638 40.125H337.509V34.7637H339.638V40.125ZM345.068 40.125H342.929V34.7637H345.068V40.125ZM364.882 41.2188H362.831V23.582H364.882V41.2188ZM359.56 32.2637H355.487V30.5352H359.56V32.2637ZM361.142 40.4082H359.091V24.0117H361.142V40.4082ZM357.343 25.7402C357.343 27.4329 357.128 28.9889 356.698 30.4082C356.269 31.8275 355.569 33.1361 354.599 34.334C353.629 35.5254 352.349 36.5833 350.761 37.5078L349.521 35.9648C350.875 35.1641 351.972 34.2754 352.812 33.2988C353.651 32.3223 354.263 31.248 354.648 30.0762C355.038 28.8978 355.234 27.5957 355.234 26.1699V25.7402H357.343ZM355.966 27.498H350.419V25.7402H355.966V27.498ZM385.662 34.3633H383.485V23.6016H385.662V34.3633ZM388.045 30.0664H384.861V28.2695H388.045V30.0664ZM371.59 32.3418C373.732 32.3353 375.692 32.2962 377.469 32.2246C379.246 32.153 380.913 32.0195 382.469 31.8242L382.596 33.2988C381.489 33.4876 380.314 33.6341 379.07 33.7383C377.827 33.8424 376.645 33.9108 375.526 33.9434C374.412 33.9694 373.175 33.9889 371.815 34.002L371.59 32.3418ZM378.182 32.6934H375.985V29.8125H378.182V32.6934ZM374.93 25.8379H379.236V24.334H381.375V30.6621H372.791V24.334H374.93V25.8379ZM379.236 28.9434V27.5078H374.93V28.9434H379.236ZM377.117 35.3691C377.117 36.2155 376.968 37.0098 376.668 37.752C376.375 38.4941 375.926 39.1484 375.32 39.7148C374.715 40.2812 373.973 40.7109 373.094 41.0039L372.02 39.3926C372.775 39.1647 373.41 38.8424 373.924 38.4258C374.438 38.0091 374.822 37.5371 375.076 37.0098C375.33 36.4824 375.457 35.9355 375.457 35.3691V34.9883H377.117V35.3691ZM377.567 35.3691C377.567 35.916 377.677 36.4596 377.899 37C378.126 37.5339 378.468 38.0286 378.924 38.4844C379.38 38.9336 379.949 39.2949 380.633 39.5684L379.774 41.1406C378.921 40.8411 378.208 40.3919 377.635 39.793C377.069 39.194 376.649 38.5137 376.375 37.752C376.108 36.9837 375.975 36.1895 375.975 35.3691V34.9883H377.567V35.3691ZM383.543 35.3691C383.543 36.1764 383.406 36.9609 383.133 37.7227C382.866 38.4844 382.453 39.168 381.893 39.7734C381.333 40.3854 380.626 40.8411 379.774 41.1406L378.885 39.5684C379.555 39.2819 380.125 38.9108 380.594 38.4551C381.069 37.9993 381.417 37.5046 381.639 36.9707C381.867 36.4368 381.981 35.903 381.981 35.3691V34.9883H383.543V35.3691ZM384.11 35.3691C384.11 35.9355 384.236 36.4824 384.49 37.0098C384.751 37.5371 385.138 38.0091 385.652 38.4258C386.167 38.8424 386.792 39.1647 387.527 39.3926L386.463 41.0039C385.591 40.7109 384.852 40.2812 384.246 39.7148C383.647 39.1484 383.201 38.4941 382.908 37.752C382.615 37.0098 382.469 36.2155 382.469 35.3691V34.9883H384.11V35.3691ZM393.758 24.8711C394.63 24.8711 395.405 25.1283 396.082 25.6426C396.765 26.1504 397.299 26.8763 397.683 27.8203C398.074 28.7578 398.269 29.8516 398.269 31.1016C398.269 32.3581 398.074 33.4583 397.683 34.4023C397.299 35.3398 396.765 36.0658 396.082 36.5801C395.405 37.0944 394.63 37.3516 393.758 37.3516C392.879 37.3516 392.097 37.0977 391.414 36.5898C390.73 36.0755 390.193 35.3464 389.802 34.4023C389.418 33.4583 389.226 32.3581 389.226 31.1016C389.226 29.8516 389.418 28.7578 389.802 27.8203C390.193 26.8763 390.73 26.1504 391.414 25.6426C392.097 25.1283 392.879 24.8711 393.758 24.8711ZM393.758 26.8242C393.276 26.8177 392.846 26.987 392.468 27.332C392.097 27.6771 391.811 28.1719 391.609 28.8164C391.407 29.4544 391.306 30.2161 391.306 31.1016C391.306 31.987 391.407 32.7552 391.609 33.4062C391.811 34.0508 392.097 34.5423 392.468 34.8809C392.846 35.2129 393.276 35.3789 393.758 35.3789C394.239 35.3789 394.666 35.2129 395.037 34.8809C395.414 34.5423 395.704 34.0508 395.906 33.4062C396.108 32.7552 396.209 31.987 396.209 31.1016C396.209 30.2096 396.108 29.4447 395.906 28.8066C395.704 28.1621 395.418 27.6706 395.047 27.332C394.682 26.987 394.252 26.8177 393.758 26.8242ZM403.728 41.2676H401.58V23.582H403.728V41.2676ZM402.517 31.834H397.605V30.0762H402.517V31.834ZM412.077 37.6641H409.939V32.6055H412.077V37.6641ZM418.611 37.6641H416.423V32.6055H418.611V37.6641ZM422.341 39.0996H406.208V37.3125H422.341V39.0996ZM414.245 24.5293C415.508 24.5293 416.635 24.7246 417.624 25.1152C418.62 25.4993 419.402 26.0462 419.968 26.7559C420.534 27.4655 420.818 28.2793 420.818 29.1973C420.818 30.1217 420.534 30.9355 419.968 31.6387C419.408 32.3418 418.63 32.8854 417.634 33.2695C416.644 33.6536 415.515 33.849 414.245 33.8555C412.976 33.849 411.843 33.6536 410.847 33.2695C409.857 32.8854 409.079 32.3418 408.513 31.6387C407.953 30.9355 407.673 30.1217 407.673 29.1973C407.673 28.2793 407.953 27.4655 408.513 26.7559C409.079 26.0462 409.861 25.4993 410.857 25.1152C411.853 24.7246 412.982 24.5293 414.245 24.5293ZM414.245 26.2676C413.366 26.2611 412.592 26.375 411.921 26.6094C411.257 26.8438 410.736 27.1823 410.359 27.625C409.988 28.0677 409.802 28.5918 409.802 29.1973C409.802 29.7962 409.988 30.3203 410.359 30.7695C410.736 31.2122 411.257 31.5573 411.921 31.8047C412.592 32.0456 413.366 32.166 414.245 32.166C415.111 32.166 415.879 32.0456 416.55 31.8047C417.221 31.5573 417.741 31.2122 418.113 30.7695C418.49 30.3203 418.679 29.7962 418.679 29.1973C418.679 28.5918 418.49 28.071 418.113 27.6348C417.741 27.1921 417.221 26.8535 416.55 26.6191C415.886 26.3783 415.118 26.2611 414.245 26.2676ZM424.753 31.9023C425.072 31.5508 425.433 31.2839 425.837 31.1016C426.24 30.9128 426.667 30.8184 427.116 30.8184C427.461 30.8184 427.79 30.8639 428.102 30.9551C428.415 31.0397 428.835 31.1797 429.362 31.375C429.837 31.5573 430.238 31.6973 430.563 31.7949C430.895 31.8861 431.234 31.9316 431.579 31.9316C432.035 31.9316 432.458 31.8372 432.848 31.6484C433.245 31.4531 433.594 31.1732 433.893 30.8086V32.9375C433.574 33.2891 433.213 33.5592 432.809 33.748C432.412 33.9303 431.986 34.0215 431.53 34.0215C431.191 34.0215 430.856 33.9759 430.524 33.8848C430.192 33.7871 429.779 33.6471 429.284 33.4648C428.822 33.276 428.421 33.1361 428.083 33.0449C427.751 32.9538 427.409 32.9082 427.057 32.9082C426.608 32.9082 426.188 33.0026 425.798 33.1914C425.413 33.3802 425.065 33.6602 424.753 34.0312V31.9023Z" fill="#2C2C2C"/>
</g>
<defs>
<clipPath id="clip0_4553_57412">
<rect x="20" y="12" width="40" height="40" rx="20" fill="white"/>
</clipPath>
</defs>
</svg>
