<svg width="24" height="24" viewBox="0 0 24 24" fill="none" xmlns="http://www.w3.org/2000/svg">
<path d="M9.51408 14.7071C12.6415 14.6991 15.3007 16.135 16.2782 19.2261C14.308 20.4272 11.9889 20.8898 9.51408 20.8837C7.03921 20.8898 4.72016 20.4272 2.75 19.2261C3.72857 16.1317 6.38327 14.6991 9.51408 14.7071Z" stroke="#8D8D8D" stroke-width="1.5" stroke-linecap="square"/>
<path d="M16.0872 18.2321C17.977 18.2367 19.7478 17.8835 21.2522 16.9664C20.5058 14.606 18.4753 13.5095 16.0872 13.5157C14.5829 13.5118 13.2225 13.9435 12.2344 14.8529" stroke="#8D8D8D" stroke-width="1.5" stroke-linecap="square"/>
<circle cx="9.51031" cy="7.3521" r="4.23687" stroke="#8D8D8D" stroke-width="1.5" stroke-linecap="square"/>
<path d="M13.7175 5.67014C14.3078 5.05148 15.1403 4.66602 16.0629 4.66602C17.853 4.66602 19.3042 6.11718 19.3042 7.90729C19.3042 9.69739 17.853 11.1486 16.0629 11.1486C14.9686 11.1486 14.001 10.6063 13.4141 9.77575" stroke="#8D8D8D" stroke-width="1.5" stroke-linecap="square"/>
</svg>
